<?xml version="1.0" encoding="UTF-8"?>
<svg width="252px" height="308px" viewBox="0 0 252 308" version="1.1" xmlns="http://www.w3.org/2000/svg" xmlns:xlink="http://www.w3.org/1999/xlink">
    <!-- Generator: Sketch 47.1 (45422) - http://www.bohemiancoding.com/sketch -->
    <title>hisha</title>
    <desc>Created with Sketch.</desc>
    <defs>
        <path d="M95,0 L152,18.0206931 L190,230.506224 L0,230.506224 L38,18.0206931 L95,0 Z M0,230.506224 L190,230.506224 L190,248 L0,248 L0,230.506224 Z" id="path-1"></path>
        <filter x="-37.6%" y="-28.0%" width="175.3%" height="157.7%" filterUnits="objectBoundingBox" id="filter-3">
            <feMorphology radius="1.5" operator="dilate" in="SourceAlpha" result="shadowSpreadOuter1"></feMorphology>
            <feOffset dx="0" dy="1" in="shadowSpreadOuter1" result="shadowOffsetOuter1"></feOffset>
            <feGaussianBlur stdDeviation="15.5" in="shadowOffsetOuter1" result="shadowBlurOuter1"></feGaussianBlur>
            <feComposite in="shadowBlurOuter1" in2="SourceAlpha" operator="out" result="shadowBlurOuter1"></feComposite>
            <feColorMatrix values="0 0 0 0 0   0 0 0 0 1   0 0 0 0 0  0 0 0 1 0" type="matrix" in="shadowBlurOuter1" result="shadowMatrixOuter1"></feColorMatrix>
            <feMorphology radius="1.5" operator="dilate" in="SourceAlpha" result="shadowSpreadOuter2"></feMorphology>
            <feOffset dx="0" dy="1" in="shadowSpreadOuter2" result="shadowOffsetOuter2"></feOffset>
            <feGaussianBlur stdDeviation="11.5" in="shadowOffsetOuter2" result="shadowBlurOuter2"></feGaussianBlur>
            <feComposite in="shadowBlurOuter2" in2="SourceAlpha" operator="out" result="shadowBlurOuter2"></feComposite>
            <feColorMatrix values="0 0 0 0 1   0 0 0 0 1   0 0 0 0 1  0 0 0 1 0" type="matrix" in="shadowBlurOuter2" result="shadowMatrixOuter2"></feColorMatrix>
            <feMerge>
                <feMergeNode in="shadowMatrixOuter1"></feMergeNode>
                <feMergeNode in="shadowMatrixOuter2"></feMergeNode>
            </feMerge>
        </filter>
        <path d="M138.392,114.48 C138.392,118.512 134.36,121.392 128.792,121.392 C124.472,121.392 119.192,119.664 114.104,115.248 C104.888,107.28 101.72,92.496 101.528,78.48 L98.264,78.48 C98.264,84.432 98.168,90.96 98.168,97.488 C98.168,103.92 98.264,110.448 98.456,116.4 L98.456,116.592 C98.456,119.76 96.536,120.816 90.584,121.2 L89.24,121.2 C84.728,121.2 83.48,119.952 83.48,117.552 L83.48,116.976 C83.96,106.128 84.248,91.44 84.248,78.48 L77.816,78.48 C77.432,87.984 76.76,95.952 74.264,102.192 C70.232,112.272 62.936,117.36 53.336,120.528 C53.048,120.624 52.856,120.72 52.568,120.72 C52.088,120.72 51.896,120.528 51.896,120.144 C51.896,119.856 51.992,119.472 52.28,119.088 C52.472,118.896 52.664,118.608 52.856,118.416 C57.08,112.848 60.248,107.376 62.36,98.736 C63.896,92.4 64.184,85.488 64.376,78.48 C60.92,78.48 56.984,78.672 55.16,79.248 C54.392,79.44 53.528,79.152 53.144,78.384 C52.76,77.616 52.088,75.696 51.8,74.544 C51.704,74.256 51.704,74.16 51.704,73.968 C51.704,73.68 51.896,73.584 52.184,73.584 C52.376,73.584 52.664,73.584 53.048,73.68 C55.832,74.544 61.016,74.928 64.472,74.928 L64.472,62.544 C61.208,62.928 57.464,63.12 53.912,63.216 C52.856,63.216 52.472,62.832 52.472,62.352 C52.472,61.872 52.856,61.392 53.432,61.104 C62.552,56.784 68.984,51.696 72.344,47.568 C72.44,47.472 72.92,46.896 73.496,46.896 C73.688,46.896 73.976,46.992 74.264,47.184 C77.144,49.104 80.792,51.6 83.96,54 C83.864,52.464 83.768,51.312 83.672,50.544 C83.48,49.008 83.288,48.144 83.288,47.664 C83.288,47.184 83.384,47.088 83.864,47.088 C84.056,47.088 84.344,47.184 84.728,47.184 C90.2,47.568 95.576,48.336 100.664,49.392 C101.912,49.68 102.584,50.448 102.584,51.312 C102.584,52.08 102.008,52.848 100.664,53.136 C98.744,53.712 98.264,54.384 98.168,55.632 L98.168,58.224 C98.168,62.16 98.264,67.824 98.264,74.928 C99.704,74.928 100.376,74.928 100.856,74.448 C102.392,73.104 104.408,71.472 106.04,70.128 C106.424,69.84 106.808,69.648 107.288,69.648 C107.672,69.648 108.152,69.744 108.632,70.128 C111.128,71.856 113.816,74.16 116.888,76.848 C117.656,77.424 118.04,78.192 118.04,78.96 C118.04,79.728 117.656,80.496 116.6,81.168 C114.872,82.32 114.872,82.32 114.872,84.336 C114.872,85.392 114.968,86.448 115.064,87.504 L119.96,87.504 C121.592,83.952 122.168,81.648 122.456,78.48 C120.728,77.712 118.808,76.752 116.888,75.408 C107.384,68.88 105.656,56.88 104.888,45.744 L68.12,45.744 C64.376,45.744 60.632,45.936 58.712,46.512 C57.944,46.704 57.08,46.416 56.696,45.648 C56.312,44.88 55.64,42.864 55.352,41.808 C55.256,41.52 55.256,41.424 55.256,41.232 C55.256,40.944 55.448,40.848 55.736,40.848 C55.928,40.848 56.216,40.848 56.6,40.944 C59.48,41.808 64.472,42.192 68.024,42.192 L102.008,42.192 C103.16,42.192 103.64,41.904 104.12,41.424 C105.848,39.792 107.768,37.968 109.4,36.624 C109.784,36.336 110.168,36.144 110.648,36.144 C111.032,36.144 111.512,36.336 112.088,36.624 C114.392,37.968 117.944,40.176 119.96,41.808 C120.92,42.576 121.496,43.44 121.496,44.304 C121.496,45.072 121.112,45.744 119.96,46.416 C118.232,47.376 118.04,47.664 118.04,49.872 C119.096,49.776 120.152,49.776 121.112,49.776 C122.648,46.416 123.608,42.768 123.608,39.504 C123.608,38.928 123.896,38.64 124.472,38.64 C124.76,38.64 125.144,38.64 125.528,38.832 C128.504,39.984 132.632,41.808 135.8,43.44 C136.664,43.824 137.048,44.496 137.048,45.072 C137.048,45.84 136.376,46.512 135.128,46.512 L134.168,46.512 C133.304,46.512 132.728,46.704 131.864,47.28 C130.136,48.24 128.312,49.2 126.008,50.256 C128.792,50.832 131,51.984 131.96,54 C132.44,54.864 132.632,55.824 132.632,56.592 C132.632,59.664 130.04,62.064 127.352,62.064 C126.2,62.064 124.952,61.68 123.896,60.624 C120.824,57.648 122.84,54.864 118.136,52.272 C118.424,58.704 121.016,63.024 125.72,65.616 C126.872,66.192 127.736,66.48 128.312,66.48 C129.368,66.48 129.944,65.712 130.616,64.272 C131.48,62.448 132.536,59.376 133.304,56.592 C133.4,56.112 133.784,55.824 134.072,55.824 C134.552,55.824 135.032,56.208 135.032,56.88 L135.032,57.072 C134.936,59.664 134.84,61.584 134.84,63.024 C134.84,66.672 135.32,67.44 136.376,68.976 C137.432,70.512 138.008,72.048 138.008,73.488 C138.008,77.04 134.744,79.92 129.56,79.92 C129.08,79.92 128.6,79.824 128.12,79.824 C130.424,80.88 133.016,82.032 135.032,83.184 C135.8,83.664 136.28,84.336 136.28,85.008 C136.28,85.68 135.704,86.256 134.456,86.256 L133.496,86.256 C132.824,86.256 132.344,86.544 131,86.928 C128.792,87.6 127.256,88.176 125.336,88.464 C129.08,88.944 131.384,91.344 132.344,93.36 C132.728,94.32 132.92,95.184 132.92,96.048 C132.92,99.312 130.424,101.808 127.64,101.808 C126.392,101.808 125.048,101.328 123.896,100.08 C120.92,97.104 120.536,92.496 115.352,90.096 C116.6,96.336 119.384,100.944 124.28,104.688 C125.432,105.552 126.584,105.936 127.64,105.936 C128.792,105.936 129.752,105.36 130.52,104.016 C131.768,102 132.92,98.832 134.168,95.376 C134.36,94.992 134.744,94.8 135.128,94.8 C135.608,94.8 135.992,95.088 135.992,95.664 L135.992,95.856 C135.416,100.752 135.128,103.632 135.128,105.36 C135.128,107.472 135.512,108.24 136.472,109.488 C137.816,111.216 138.392,112.944 138.392,114.48 Z M84.248,74.928 L84.248,69.552 C84.248,65.424 84.248,61.872 84.152,58.704 C83.192,58.416 83,58.416 82.04,58.704 C80.888,59.088 79.352,59.472 78.104,59.856 C78.104,65.328 78.104,70.128 77.912,74.928 L84.248,74.928 Z M138.392,198.672 C138.392,199.344 138.008,199.92 136.856,199.92 L101.912,199.92 C102.008,204.336 102.008,208.656 102.104,212.88 L102.104,212.976 C102.104,216.336 98.744,217.008 93.08,217.104 L92.312,217.104 C87.224,217.104 85.496,216.144 85.496,213.456 L85.496,212.976 C85.688,208.944 85.784,204.528 85.88,199.92 L66.2,199.92 C62.456,199.92 56.888,200.112 54.968,200.688 C54.2,200.88 53.336,200.592 52.952,199.824 C52.568,199.056 51.992,197.04 51.704,195.888 L51.704,195.6 C51.704,195.024 52.088,194.928 52.472,194.928 L52.856,194.928 C52.952,195.024 53.048,195.024 53.048,195.024 C56.6,195.888 62.648,196.368 66.2,196.368 L86.072,196.368 C86.168,193.584 86.168,190.608 86.264,187.728 L77.24,187.728 C77.24,190.896 74.552,192.144 69.272,192.432 C68.6,192.432 67.928,192.528 67.256,192.528 C63.896,192.528 61.688,191.76 61.688,188.976 L61.688,188.592 C61.976,181.488 62.264,171.984 62.264,164.208 C62.264,158.544 62.168,153.84 61.592,151.728 C61.304,150.576 61.208,149.808 61.208,149.232 C61.208,148.368 61.496,148.08 61.976,148.08 C62.264,148.08 62.552,148.176 63.032,148.368 C69.656,150.768 78.296,154.128 78.296,154.128 L86.456,154.128 C86.456,151.44 86.36,148.752 86.264,146.544 L66.872,146.544 C63.128,146.544 59.192,146.736 57.272,147.312 C56.504,147.504 55.736,147.216 55.352,146.448 C54.968,145.68 54.392,143.568 54.104,142.512 C54.008,142.224 54.008,142.128 54.008,141.936 C54.008,141.648 54.2,141.552 54.488,141.552 C54.68,141.552 54.968,141.552 55.352,141.648 C58.232,142.512 63.32,142.896 66.872,142.896 L86.264,142.896 C86.072,139.152 85.88,136.464 85.688,135.12 C85.496,133.968 85.304,133.296 85.304,132.816 C85.304,132.432 85.496,132.24 86.072,132.24 C86.36,132.24 86.648,132.336 87.032,132.336 C91.16,132.72 99.608,133.392 104.312,134.256 C105.56,134.448 106.328,135.216 106.328,136.08 C106.328,136.848 105.656,137.712 104.312,138.096 C102.68,138.576 101.912,138.96 101.912,140.208 C101.912,141.072 101.912,141.936 101.816,142.896 L112.28,142.896 C113.24,142.896 114.296,142.704 114.968,142.032 C116.504,140.4 119.192,138 121.592,135.792 C121.976,135.504 122.456,135.312 123.032,135.312 C123.512,135.312 123.992,135.408 124.376,135.696 C127.736,137.904 131.672,141.072 134.936,143.856 C135.32,144.144 135.608,144.72 135.608,145.2 C135.608,145.872 135.128,146.544 134.072,146.544 L101.816,146.544 L101.816,154.128 L108.824,154.128 C109.88,154.128 110.36,153.84 110.936,153.36 C112.568,151.824 114.776,150.384 116.504,148.944 C116.792,148.656 117.272,148.464 117.752,148.464 C118.232,148.464 118.808,148.656 119.384,148.944 C122.36,150.48 126.584,152.784 129.176,154.896 C130.04,155.568 130.616,156.528 130.616,157.392 C130.616,158.16 130.232,158.928 129.272,159.504 C127.256,160.752 126.584,160.752 126.488,163.152 C126.488,165.072 126.392,167.376 126.392,169.776 C126.392,174.672 126.488,180.144 126.776,185.424 L126.776,185.616 C126.776,188.784 123.608,189.552 118.712,189.84 C117.752,189.936 116.888,189.936 116.12,189.936 C113.624,189.936 111.8,189.456 111.32,187.728 L101.816,187.728 C101.912,190.512 101.912,193.488 101.912,196.368 L115.16,196.368 C116.12,196.368 116.792,195.984 117.368,195.408 C119.48,193.296 122.552,190.704 124.472,189.264 C124.76,188.976 125.336,188.784 125.816,188.784 C126.296,188.784 126.68,188.88 127.064,189.168 C130.424,191.376 134.84,194.64 137.72,197.136 C138.104,197.52 138.392,198.096 138.392,198.672 Z M111.608,168.336 C111.608,164.304 111.608,160.656 111.512,157.776 L101.816,157.776 C101.816,161.136 101.72,164.592 101.72,168.336 L111.608,168.336 Z M86.456,168.336 L86.456,157.776 L77.048,157.776 C76.952,160.752 76.952,164.4 76.952,168.336 L86.456,168.336 Z M111.512,171.984 L101.72,171.984 C101.72,176.016 101.72,179.856 101.816,184.176 L111.32,184.176 C111.416,180.24 111.512,176.208 111.512,171.984 Z M86.36,171.984 L76.952,171.984 C77.048,176.208 77.048,180.144 77.144,184.176 L86.264,184.176 C86.36,179.952 86.36,176.112 86.36,171.984 Z" id="path-4"></path>
        <filter x="-39.2%" y="-18.8%" width="178.4%" height="137.6%" filterUnits="objectBoundingBox" id="filter-5">
            <feOffset dx="0" dy="0" in="SourceAlpha" result="shadowOffsetOuter1"></feOffset>
            <feGaussianBlur stdDeviation="10" in="shadowOffsetOuter1" result="shadowBlurOuter1"></feGaussianBlur>
            <feColorMatrix values="0 0 0 0 1   0 0 0 0 1   0 0 0 0 1  0 0 0 1 0" type="matrix" in="shadowBlurOuter1" result="shadowMatrixOuter1"></feColorMatrix>
            <feOffset dx="0" dy="0" in="SourceAlpha" result="shadowOffsetOuter2"></feOffset>
            <feGaussianBlur stdDeviation="2" in="shadowOffsetOuter2" result="shadowBlurOuter2"></feGaussianBlur>
            <feColorMatrix values="0 0 0 0 0   0 0 0 0 1   0 0 0 0 0.392156863  0 0 0 1 0" type="matrix" in="shadowBlurOuter2" result="shadowMatrixOuter2"></feColorMatrix>
            <feMerge>
                <feMergeNode in="shadowMatrixOuter1"></feMergeNode>
                <feMergeNode in="shadowMatrixOuter2"></feMergeNode>
            </feMerge>
        </filter>
    </defs>
    <g id="Symbols" stroke="none" stroke-width="1" fill="none" fill-rule="evenodd">
        <g id="koma-vecter" transform="translate(30.000000, 20.000000)">
            <g id="hisha" transform="translate(1.000000, 8.000000)">
                <mask id="mask-2" fill="white">
                    <use xlink:href="#path-1"></use>
                </mask>
                <g id="Polygon-Copy-26" transform="translate(95.000000, 124.000000) scale(-1, 1) translate(-95.000000, -124.000000) ">
                    <use fill="black" fill-opacity="1" filter="url(#filter-3)" xlink:href="#path-1"></use>
                    <use stroke="#00FF64" stroke-width="3" fill="#000000" fill-rule="evenodd" xlink:href="#path-1"></use>
                </g>
                <g mask="url(#mask-2)">
                    <use fill="black" fill-opacity="1" filter="url(#filter-5)" xlink:href="#path-4"></use>
                    <use fill="#0A3208" fill-rule="evenodd" xlink:href="#path-4"></use>
                </g>
            </g>
        </g>
    </g>
</svg>