<?xml version="1.0" encoding="UTF-8"?>
<svg width="252px" height="308px" viewBox="0 0 252 308" version="1.1" xmlns="http://www.w3.org/2000/svg" xmlns:xlink="http://www.w3.org/1999/xlink">
    <!-- Generator: Sketch 47.1 (45422) - http://www.bohemiancoding.com/sketch -->
    <title>narihisha</title>
    <desc>Created with Sketch.</desc>
    <defs>
        <path d="M95,0 L152,18.0206931 L190,230.506224 L0,230.506224 L38,18.0206931 L95,0 Z M0,230.506224 L190,230.506224 L190,248 L0,248 L0,230.506224 Z" id="path-1"></path>
        <filter x="-37.6%" y="-28.0%" width="175.3%" height="157.7%" filterUnits="objectBoundingBox" id="filter-3">
            <feMorphology radius="1.5" operator="dilate" in="SourceAlpha" result="shadowSpreadOuter1"></feMorphology>
            <feOffset dx="0" dy="1" in="shadowSpreadOuter1" result="shadowOffsetOuter1"></feOffset>
            <feGaussianBlur stdDeviation="15.5" in="shadowOffsetOuter1" result="shadowBlurOuter1"></feGaussianBlur>
            <feComposite in="shadowBlurOuter1" in2="SourceAlpha" operator="out" result="shadowBlurOuter1"></feComposite>
            <feColorMatrix values="0 0 0 0 0   0 0 0 0 1   0 0 0 0 0  0 0 0 1 0" type="matrix" in="shadowBlurOuter1" result="shadowMatrixOuter1"></feColorMatrix>
            <feMorphology radius="1.5" operator="dilate" in="SourceAlpha" result="shadowSpreadOuter2"></feMorphology>
            <feOffset dx="0" dy="1" in="shadowSpreadOuter2" result="shadowOffsetOuter2"></feOffset>
            <feGaussianBlur stdDeviation="11.5" in="shadowOffsetOuter2" result="shadowBlurOuter2"></feGaussianBlur>
            <feComposite in="shadowBlurOuter2" in2="SourceAlpha" operator="out" result="shadowBlurOuter2"></feComposite>
            <feColorMatrix values="0 0 0 0 1   0 0 0 0 1   0 0 0 0 1  0 0 0 1 0" type="matrix" in="shadowBlurOuter2" result="shadowMatrixOuter2"></feColorMatrix>
            <feMerge>
                <feMergeNode in="shadowMatrixOuter1"></feMergeNode>
                <feMergeNode in="shadowMatrixOuter2"></feMergeNode>
            </feMerge>
        </filter>
        <path d="M95.768,47.568 C95.768,48.336 95.192,48.816 94.232,48.816 L65.24,48.816 C62.072,48.816 58.328,49.008 56.504,49.584 C55.736,49.776 54.968,49.488 54.584,48.72 C54.2,47.952 53.624,46.224 53.336,45.168 C53.24,44.88 53.24,44.784 53.24,44.592 C53.24,44.304 53.432,44.208 53.72,44.208 C53.912,44.208 54.2,44.208 54.584,44.304 C57.272,45.168 61.88,45.552 65.048,45.552 L65.048,44.112 C65.048,42.384 64.952,40.464 64.664,39.312 C64.376,38.16 64.184,37.488 64.184,37.008 C64.184,36.432 64.472,36.24 65.144,36.24 C65.432,36.24 65.72,36.336 66.104,36.336 C69.464,36.528 77.72,37.2 80.888,37.68 C82.232,37.872 82.808,38.64 82.808,39.408 C82.808,40.272 82.232,41.136 81.08,41.52 C79.448,42.096 78.872,42.576 78.872,44.016 L78.872,45.552 L80.792,45.552 C81.368,45.552 81.944,45.264 82.328,44.784 C83.576,42.96 84.92,41.424 86.456,39.408 C86.936,38.832 87.8,38.832 88.472,39.408 C90.872,41.424 92.984,43.728 95.288,46.416 C95.576,46.8 95.768,47.28 95.768,47.568 Z M138.488,111.696 C138.488,114.96 136.28,118.416 130.904,119.184 C127.16,119.76 121.976,119.952 116.984,119.952 C112.76,119.952 108.728,119.856 105.752,119.568 C99.512,119.088 96.152,116.496 96.152,109.104 L96.152,108.432 C96.248,101.712 96.344,94.608 96.344,87.792 C96.344,80.304 96.248,73.296 95.768,67.632 L64.376,67.632 C60.632,67.728 56.984,67.824 55.064,68.4 C54.296,68.592 53.528,68.304 53.144,67.536 C52.76,66.768 52.088,65.04 51.8,63.984 C51.704,63.696 51.704,63.6 51.704,63.408 C51.704,63.12 51.896,63.024 52.184,63.024 C52.376,63.024 52.664,63.024 53.048,63.12 C55.736,63.984 60.728,64.368 64.184,64.368 C62.936,63.792 61.784,62.736 61.208,61.008 C60.92,60.144 60.824,59.376 60.824,58.512 C60.824,57.648 60.92,56.784 60.92,55.92 C60.92,54.288 60.632,52.848 58.904,51.312 C58.616,51.024 58.424,50.736 58.424,50.448 C58.424,50.064 58.808,49.68 59.576,49.68 L59.864,49.68 C65.624,50.448 71.96,52.272 72.728,57.552 C72.824,57.936 72.824,58.32 72.824,58.704 C72.824,61.584 71,63.504 68.792,64.368 L73.496,64.368 C74.84,59.76 75.8,55.728 75.8,51.888 C75.8,51.408 75.704,50.832 75.704,50.352 L75.704,49.68 C75.704,49.2 75.8,49.008 76.28,49.008 L76.568,49.008 C80.792,49.584 86.264,50.544 90.392,51.6 C91.352,51.888 92.12,52.656 92.12,53.424 C92.12,54 91.544,54.576 90.2,54.672 C88.28,54.864 87.512,55.152 86.84,55.92 C84.248,58.896 80.984,61.872 77.528,64.368 L81.752,64.368 C82.616,64.368 83.192,64.08 83.672,63.504 C85.112,61.68 86.744,59.664 88.088,57.84 C88.376,57.456 88.664,57.264 89.144,57.264 C89.528,57.264 89.912,57.456 90.392,57.84 C92.504,59.856 97.4,64.752 97.88,66.384 C104.504,68.016 111.128,69.84 111.128,69.84 L119.288,69.84 C119.384,67.728 119.576,65.52 119.576,63.6 C119.576,62.544 119.48,61.584 119.384,60.816 L109.88,60.816 C109.688,62.832 107.576,63.408 102.872,63.792 C101.912,63.888 101.144,63.888 100.376,63.888 C97.112,63.888 95.576,63.12 95.768,60.624 C96.056,57.456 96.44,50.736 96.44,45.36 C96.44,42.672 96.344,40.368 96.056,38.928 C95.864,37.968 95.768,37.392 95.768,37.008 C95.768,36.336 95.96,36.24 96.44,36.24 C96.632,36.24 96.92,36.336 97.304,36.336 C102.104,36.624 106.616,37.104 111.704,37.68 C112.856,37.872 113.432,38.64 113.432,39.408 C113.432,40.176 112.856,40.944 111.608,41.232 C109.976,41.616 109.688,42.192 109.688,43.344 L109.688,46.416 L118.136,46.416 C119,46.416 119.384,46.416 119.96,45.744 C121.496,43.824 123.992,40.944 125.72,39.024 C126.008,38.64 126.392,38.448 126.68,38.448 C127.064,38.448 127.448,38.64 127.928,39.024 C131.096,41.424 134.168,44.4 136.952,47.376 C137.24,47.664 137.528,48.24 137.528,48.624 C137.528,49.296 137.144,49.776 136.088,49.776 L109.688,49.776 C109.688,52.368 109.688,55.056 109.784,57.456 L116.792,57.456 C117.848,57.456 118.52,57.168 119,56.688 C120.632,55.248 122.36,53.808 123.896,52.368 C124.184,52.08 124.568,51.984 125.048,51.984 C125.624,51.984 126.2,52.08 126.68,52.368 C129.176,53.712 132.056,55.728 134.744,57.744 C135.512,58.224 135.992,58.992 135.992,59.856 C135.992,60.432 135.608,61.2 134.648,61.776 C132.92,62.928 132.44,63.024 132.44,64.944 L132.44,66.192 C132.44,67.44 132.536,68.784 132.632,70.512 L132.632,70.992 C132.632,73.392 130.616,74.064 126.296,74.448 C128.312,75.792 130.712,77.808 133.304,80.304 C134.168,81.168 133.88,82.608 132.44,82.608 L109.88,82.608 L109.88,88.464 L117.944,88.464 C118.616,88.464 119.096,88.368 119.576,87.888 C120.92,86.448 122.264,85.008 123.992,83.472 C124.568,82.896 125.144,82.896 126.008,83.472 C128.024,84.816 130.616,86.928 133.304,89.52 C134.168,90.384 133.88,91.728 132.44,91.728 L109.88,91.728 C109.976,93.84 109.976,95.952 109.976,97.968 L117.464,97.968 C118.136,97.968 118.52,97.872 119,97.296 L123.416,92.88 C123.992,92.4 124.568,92.4 125.432,92.88 C127.256,94.128 129.464,95.856 131.864,98.16 C132.056,97.584 132.152,97.008 132.344,96.432 C132.536,95.76 133.016,95.376 133.592,95.376 C134.072,95.376 134.456,95.76 134.456,96.72 C134.456,98.736 134.36,100.272 134.36,101.52 C134.36,104.976 134.648,105.552 136.088,106.608 C137.528,107.76 138.488,109.68 138.488,111.696 Z M93.752,78 C92.12,78.96 91.352,79.536 91.352,80.784 C91.256,85.776 91.256,94.224 91.256,101.616 L91.256,110.448 C91.256,115.824 89.144,120.048 78.488,121.2 L78.008,121.2 C77.144,121.2 76.376,120.912 76.28,119.568 C75.896,112.848 74.84,111.696 69.56,109.392 C69.56,112.272 69.656,114.768 69.656,117.456 C69.656,120.144 67.16,120.912 62.552,121.104 L61.4,121.104 C58.04,121.104 56.024,120.336 56.024,118.128 L56.024,117.84 C56.408,112.944 56.6,103.056 56.6,93.552 C56.6,83.088 56.312,73.296 55.64,71.376 C55.352,70.608 55.256,70.128 55.256,69.744 C55.256,69.36 55.352,69.264 55.64,69.264 C55.832,69.264 56.12,69.36 56.504,69.456 C62.84,70.992 70.424,73.392 70.424,73.392 L76.184,73.392 C77.048,73.392 77.624,73.104 78.2,72.624 C79.64,71.664 81.272,69.936 82.712,68.88 C83.48,68.304 84.344,68.304 85.4,68.88 C87.8,70.128 90.872,72.048 93.464,73.776 C95.288,74.928 95.384,76.944 93.752,78 Z M123.608,74.64 C121.304,74.64 120.344,74.256 119.576,73.2 L110.072,73.2 C109.976,75.12 109.976,77.136 109.88,79.344 L117.944,79.344 C118.616,79.344 119.096,79.248 119.576,78.768 C120.824,77.424 122.072,76.08 123.608,74.64 Z M78.584,84.048 C78.584,81.456 78.584,78.96 78.488,76.752 L69.56,76.752 C69.56,79.056 69.464,81.552 69.464,84.048 L78.584,84.048 Z M78.584,95.376 L78.584,87.408 L69.464,87.408 L69.464,95.376 L78.584,95.376 Z M78.584,98.736 L69.464,98.736 C69.464,101.424 69.56,104.496 69.56,107.28 C71,107.472 73.304,107.568 75.224,107.568 L76.472,107.568 C78.008,107.568 78.392,107.088 78.392,105.648 C78.488,103.632 78.488,101.04 78.584,98.736 Z M130.904,101.136 L109.976,101.136 L109.976,104.4 C109.976,107.088 110.552,107.376 112.472,107.664 C115.64,108.048 121.592,108.048 124.472,107.664 C128.024,107.184 129.656,106.704 130.904,101.136 Z M138.2,210.864 C138.2,210.384 138.008,209.808 137.624,209.424 C133.976,205.68 129.368,201.36 125.72,198.384 C125.336,198.096 124.856,197.904 124.376,197.904 C123.896,197.904 123.512,198.096 123.224,198.384 C120.44,201.552 117.464,205.104 115.352,207.696 C114.968,208.272 114.2,208.56 113.336,208.56 L102.104,208.56 C102.008,198.192 101.912,186.576 101.912,175.536 L130.04,175.536 C131.096,175.536 131.48,174.96 131.48,174.288 C131.48,173.808 131.288,173.232 130.904,172.848 C128.216,170.064 123.8,165.936 120.536,163.152 C119.768,162.48 118.616,162.48 118.04,163.152 C115.64,165.84 113.336,168.528 111.128,171.216 C110.648,171.792 109.88,172.08 109.016,172.08 L101.912,172.08 C101.912,162.576 102.008,153.552 102.104,146.352 L133.976,146.352 C135.032,146.352 135.512,145.776 135.512,145.008 C135.512,144.528 135.224,144.048 134.84,143.664 C131.384,140.4 127.064,136.656 123.608,133.968 C122.84,133.296 121.784,133.296 121.112,133.968 C118.712,136.464 115.736,139.728 113.912,141.936 C113.432,142.512 112.664,142.8 111.896,142.8 L67.544,142.8 C63.992,142.8 59,142.416 56.12,141.552 C55.736,141.456 55.448,141.456 55.256,141.456 C54.968,141.456 54.776,141.552 54.776,141.84 C54.776,142.032 54.776,142.128 54.872,142.416 C55.16,143.472 55.736,145.488 56.12,146.256 C56.504,147.024 57.464,147.312 58.232,147.12 C60.152,146.544 63.896,146.352 67.64,146.352 L85.208,146.352 C85.496,153.36 85.592,162.48 85.496,172.08 L72.152,172.08 C68.6,172.08 63.608,171.696 60.728,170.832 C60.344,170.736 60.056,170.736 59.864,170.736 C59.576,170.736 59.384,170.832 59.384,171.12 C59.384,171.312 59.384,171.408 59.48,171.696 C59.768,172.752 60.44,174.672 60.824,175.44 C61.208,176.208 62.072,176.496 62.84,176.304 C64.76,175.728 68.504,175.536 72.248,175.536 L85.496,175.536 C85.496,186.672 85.304,198.288 85.112,208.56 L64.568,208.56 C61.016,208.56 56.024,208.176 53.144,207.312 C52.76,207.216 52.472,207.216 52.28,207.216 C51.896,207.216 51.704,207.312 51.704,207.696 C51.704,207.792 51.704,207.984 51.8,208.176 C52.088,209.232 52.856,211.248 53.24,212.016 C53.624,212.784 54.488,213.072 55.256,212.88 C57.176,212.304 60.92,212.112 64.664,212.112 L136.76,212.112 C137.816,212.112 138.2,211.536 138.2,210.864 Z" id="path-4"></path>
        <filter x="-155.0%" y="-76.1%" width="410.0%" height="252.2%" filterUnits="objectBoundingBox" id="filter-5">
            <feOffset dx="0" dy="0" in="SourceAlpha" result="shadowOffsetOuter1"></feOffset>
            <feGaussianBlur stdDeviation="10" in="shadowOffsetOuter1" result="shadowBlurOuter1"></feGaussianBlur>
            <feColorMatrix values="0 0 0 0 1   0 0 0 0 1   0 0 0 0 1  0 0 0 1 0" type="matrix" in="shadowBlurOuter1" result="shadowMatrixOuter1"></feColorMatrix>
            <feOffset dx="0" dy="0" in="SourceAlpha" result="shadowOffsetOuter2"></feOffset>
            <feGaussianBlur stdDeviation="3.5" in="shadowOffsetOuter2" result="shadowBlurOuter2"></feGaussianBlur>
            <feColorMatrix values="0 0 0 0 1   0 0 0 0 0   0 0 0 0 0  0 0 0 1 0" type="matrix" in="shadowBlurOuter2" result="shadowMatrixOuter2"></feColorMatrix>
            <feOffset dx="0" dy="0" in="SourceAlpha" result="shadowOffsetOuter3"></feOffset>
            <feGaussianBlur stdDeviation="20" in="shadowOffsetOuter3" result="shadowBlurOuter3"></feGaussianBlur>
            <feColorMatrix values="0 0 0 0 1   0 0 0 0 1   0 0 0 0 1  0 0 0 1 0" type="matrix" in="shadowBlurOuter3" result="shadowMatrixOuter3"></feColorMatrix>
            <feOffset dx="0" dy="0" in="SourceAlpha" result="shadowOffsetOuter4"></feOffset>
            <feGaussianBlur stdDeviation="22.5" in="shadowOffsetOuter4" result="shadowBlurOuter4"></feGaussianBlur>
            <feColorMatrix values="0 0 0 0 1   0 0 0 0 0.567964804   0 0 0 0 0.567964804  0 0 0 1 0" type="matrix" in="shadowBlurOuter4" result="shadowMatrixOuter4"></feColorMatrix>
            <feMerge>
                <feMergeNode in="shadowMatrixOuter1"></feMergeNode>
                <feMergeNode in="shadowMatrixOuter2"></feMergeNode>
                <feMergeNode in="shadowMatrixOuter3"></feMergeNode>
                <feMergeNode in="shadowMatrixOuter4"></feMergeNode>
            </feMerge>
        </filter>
    </defs>
    <g id="Symbols" stroke="none" stroke-width="1" fill="none" fill-rule="evenodd">
        <g id="koma-vecter" transform="translate(30.000000, 20.000000)">
            <g id="narihisha" transform="translate(1.000000, 8.000000)">
                <mask id="mask-2" fill="white">
                    <use xlink:href="#path-1"></use>
                </mask>
                <g id="Polygon" transform="translate(95.000000, 124.000000) scale(-1, 1) translate(-95.000000, -124.000000) ">
                    <use fill="black" fill-opacity="1" filter="url(#filter-3)" xlink:href="#path-1"></use>
                    <use stroke="#00FF64" stroke-width="3" fill="#000000" fill-rule="evenodd" xlink:href="#path-1"></use>
                </g>
                <g id="hisha-nari" mask="url(#mask-2)">
                    <use fill="black" fill-opacity="1" filter="url(#filter-5)" xlink:href="#path-4"></use>
                    <use fill="#320D08" fill-rule="evenodd" xlink:href="#path-4"></use>
                </g>
            </g>
        </g>
    </g>
</svg>