<?xml version="1.0" encoding="UTF-8"?>
<svg width="252px" height="308px" viewBox="0 0 252 308" version="1.1" xmlns="http://www.w3.org/2000/svg" xmlns:xlink="http://www.w3.org/1999/xlink">
    <!-- Generator: Sketch 47.1 (45422) - http://www.bohemiancoding.com/sketch -->
    <title>kaku</title>
    <desc>Created with Sketch.</desc>
    <defs>
        <path d="M95,0 L152,18.0206931 L190,230.506224 L0,230.506224 L38,18.0206931 L95,0 Z M0,230.506224 L190,230.506224 L190,248 L0,248 L0,230.506224 Z" id="path-1"></path>
        <filter x="-37.6%" y="-28.0%" width="175.3%" height="157.7%" filterUnits="objectBoundingBox" id="filter-3">
            <feMorphology radius="1.5" operator="dilate" in="SourceAlpha" result="shadowSpreadOuter1"></feMorphology>
            <feOffset dx="0" dy="1" in="shadowSpreadOuter1" result="shadowOffsetOuter1"></feOffset>
            <feGaussianBlur stdDeviation="15.5" in="shadowOffsetOuter1" result="shadowBlurOuter1"></feGaussianBlur>
            <feComposite in="shadowBlurOuter1" in2="SourceAlpha" operator="out" result="shadowBlurOuter1"></feComposite>
            <feColorMatrix values="0 0 0 0 0   0 0 0 0 1   0 0 0 0 0  0 0 0 1 0" type="matrix" in="shadowBlurOuter1" result="shadowMatrixOuter1"></feColorMatrix>
            <feMorphology radius="1.5" operator="dilate" in="SourceAlpha" result="shadowSpreadOuter2"></feMorphology>
            <feOffset dx="0" dy="1" in="shadowSpreadOuter2" result="shadowOffsetOuter2"></feOffset>
            <feGaussianBlur stdDeviation="11.5" in="shadowOffsetOuter2" result="shadowBlurOuter2"></feGaussianBlur>
            <feComposite in="shadowBlurOuter2" in2="SourceAlpha" operator="out" result="shadowBlurOuter2"></feComposite>
            <feColorMatrix values="0 0 0 0 1   0 0 0 0 1   0 0 0 0 1  0 0 0 1 0" type="matrix" in="shadowBlurOuter2" result="shadowMatrixOuter2"></feColorMatrix>
            <feMerge>
                <feMergeNode in="shadowMatrixOuter1"></feMergeNode>
                <feMergeNode in="shadowMatrixOuter2"></feMergeNode>
            </feMerge>
        </filter>
        <path d="M134.648,61.872 C134.648,62.64 134.168,63.312 133.208,63.984 C131.192,65.328 130.52,65.52 130.424,67.536 C130.328,71.184 130.328,75.504 130.328,79.92 C130.328,89.808 130.424,100.656 130.52,107.664 L130.52,108.048 C130.52,117.072 127.448,119.952 114.104,121.008 C113.624,121.008 113.24,121.104 112.952,121.104 C111.608,121.104 111.416,120.72 111.224,119.472 C110.264,111.312 109.208,110.064 100.376,106.704 C99.8,106.416 99.416,105.84 99.416,105.264 C99.416,104.784 99.704,104.304 100.472,104.304 L100.568,104.304 C104.408,104.592 109.88,104.784 113.24,104.784 C115.064,104.784 115.352,104.208 115.448,102.288 C115.544,100.656 115.544,98.544 115.544,96.048 L77.048,96.048 C74.072,110.64 65.336,117.552 53.624,121.008 C53.336,121.104 53.144,121.104 52.952,121.104 C52.28,121.104 51.8,120.816 51.8,120.24 C51.8,120.048 51.896,119.664 52.184,119.28 C57.848,112.272 61.496,104.016 62.84,93.936 C63.608,89.136 63.896,82.32 63.896,75.984 C63.896,72.528 63.8,69.168 63.608,66.384 C60.536,67.728 57.08,69.072 53.528,70.032 C53.336,70.032 53.24,70.128 53.048,70.128 C52.376,70.128 51.992,69.648 51.992,69.072 C51.992,68.784 52.088,68.4 52.472,68.112 C64.568,57.552 72.632,46.128 74.264,37.488 C74.456,36.528 74.744,36.24 75.32,36.24 C75.512,36.24 75.8,36.24 76.088,36.336 C81.272,37.2 88.376,38.832 94.136,40.176 C95.096,40.368 95.576,41.136 95.576,41.904 C95.576,42.768 95,43.536 93.464,43.632 C91.064,43.824 90.296,44.4 89.72,45.072 C89.528,45.36 89.336,45.744 89.048,46.032 L95.576,46.032 C96.44,46.032 97.208,45.648 97.688,45.264 C99.416,43.824 101.816,41.808 103.544,40.56 C103.928,40.272 104.312,40.08 104.792,40.08 C105.368,40.08 105.848,40.272 106.424,40.56 C109.592,42.192 113.144,44.688 116.408,47.088 C117.752,48.048 118.424,49.2 118.424,50.16 C118.424,51.408 117.368,52.272 115.448,52.368 C112.184,52.464 111.608,52.848 110.072,53.616 C106.424,55.44 103.352,57.456 99.608,59.184 L113.24,59.184 C114.008,59.184 114.488,58.992 114.872,58.608 C116.6,56.976 119.096,54.672 120.92,53.04 C121.304,52.752 121.688,52.56 122.168,52.56 C122.648,52.56 123.128,52.752 123.608,53.04 C126.2,54.576 130.616,57.264 133.4,59.568 C134.264,60.336 134.648,61.104 134.648,61.872 Z M97.592,49.584 L86.36,49.584 C83.864,52.656 80.888,55.536 77.528,58.128 C78.968,58.8 80.024,59.184 80.024,59.184 L91.736,59.184 C94.04,56.208 96.152,52.656 97.592,49.584 Z M115.64,74.64 C115.64,70.032 115.64,65.616 115.544,62.736 L104.12,62.736 C104.024,65.808 104.024,70.128 104.024,74.64 L115.64,74.64 Z M89.72,74.64 L89.72,68.208 C89.72,66.096 89.72,64.272 89.624,62.736 L78.584,62.736 L78.584,74.64 L89.72,74.64 Z M115.64,92.4 L115.64,78.192 L103.928,78.192 C103.928,83.088 103.928,87.888 104.12,92.4 L115.64,92.4 Z M89.72,78.192 L78.584,78.192 C78.488,83.28 78.392,87.984 77.72,92.4 L89.432,92.4 C89.624,87.984 89.72,83.184 89.72,78.192 Z M134.168,143.088 C134.168,142.512 133.88,141.936 133.496,141.552 C130.232,138.576 126.008,135.408 123.032,133.296 C122.168,132.624 121.208,132.624 120.536,133.296 C118.52,135.408 115.832,138.096 114.104,140.016 C113.432,140.784 113.048,140.88 112.088,140.88 L102.488,140.88 C98.936,140.88 93.944,140.496 91.064,139.632 C90.68,139.536 90.392,139.536 90.2,139.536 C89.912,139.536 89.72,139.632 89.72,139.92 C89.72,140.112 89.72,140.208 89.816,140.496 C90.104,141.552 90.776,143.472 91.16,144.24 C91.448,144.816 91.928,145.104 92.504,145.104 C92.696,145.104 92.888,145.104 93.08,145.008 C95,144.528 98.648,144.336 102.392,144.336 L132.632,144.336 C133.688,144.336 134.168,143.76 134.168,143.088 Z M89.144,157.488 C89.144,158.352 88.376,159.216 86.84,159.312 C84.728,159.408 84.344,159.792 83.384,161.232 C81.656,163.92 79.832,166.416 77.912,168.72 C77.912,174.48 77.816,180.144 77.816,185.616 C77.816,195.024 77.912,204.048 78.104,212.976 C78.104,215.184 75.704,216.816 69.848,217.104 L68.216,217.104 C64.088,217.104 62.744,216.144 62.744,213.84 L62.744,213.552 C63.032,204.624 63.224,195.312 63.224,186.48 L63.224,181.104 C60.344,182.736 56.792,184.176 53.624,185.52 C53.336,185.616 53.048,185.712 52.76,185.712 C52.088,185.712 51.704,185.328 51.704,184.752 C51.704,184.368 51.896,183.984 52.184,183.6 C60.152,174.192 67.928,161.136 69.368,151.92 C65.24,154.416 59.768,157.104 54.872,158.928 C54.488,159.12 54.104,159.12 53.816,159.12 C53.144,159.12 52.76,158.736 52.76,158.256 C52.76,157.872 53.048,157.392 53.432,156.912 C59.576,150.384 64.664,142.608 66.968,133.968 C67.16,133.296 66.968,132.24 67.928,132.24 L68.216,132.24 C73.496,133.392 80.408,135.408 85.208,136.944 C86.456,137.328 87.128,138.192 87.128,138.96 C87.128,139.824 86.36,140.592 84.728,140.784 C82.808,140.976 82.424,140.784 81.368,142.032 C78.776,144.912 75.128,147.984 70.904,150.768 C76.088,152.112 82.616,153.936 87.512,155.568 C88.568,155.952 89.144,156.72 89.144,157.488 Z M138.488,163.824 C138.488,164.496 138.008,165.072 136.952,165.072 L123.896,165.072 C123.896,175.344 123.896,187.728 124.088,204.048 L124.088,204.432 C124.088,212.208 120.824,215.856 107.48,217.2 L106.712,217.2 C105.56,217.2 104.984,216.816 104.888,215.568 C104.408,207.696 102.392,206.256 91.736,202.032 C91.064,201.744 90.776,201.264 90.776,200.688 C90.776,200.112 91.256,199.632 91.928,199.632 L92.024,199.632 C96.632,199.92 103.16,200.304 106.136,200.304 C107.96,200.304 108.632,199.152 108.632,197.712 C108.824,187.248 108.824,171.984 108.632,165.072 L98.936,165.072 C95.192,165.072 91.544,165.264 89.624,165.744 C89.432,165.84 89.24,165.84 89.144,165.84 C88.568,165.84 87.992,165.456 87.704,164.88 C87.32,164.112 86.648,162.288 86.36,161.232 C86.264,160.944 86.264,160.848 86.264,160.656 C86.264,160.368 86.456,160.272 86.744,160.272 C86.936,160.272 87.224,160.272 87.608,160.368 C90.488,161.232 95.48,161.616 99.032,161.616 L115.352,161.616 C116.312,161.616 116.696,161.52 117.368,160.752 C119.192,158.448 122.168,155.28 124.28,152.784 C124.568,152.4 125.048,152.304 125.432,152.304 C125.912,152.304 126.488,152.496 126.872,152.784 C130.52,155.568 134.552,159.12 137.816,162.288 C138.2,162.768 138.488,163.344 138.488,163.824 Z" id="path-4"></path>
        <filter x="-39.2%" y="-18.8%" width="178.4%" height="137.6%" filterUnits="objectBoundingBox" id="filter-5">
            <feOffset dx="0" dy="0" in="SourceAlpha" result="shadowOffsetOuter1"></feOffset>
            <feGaussianBlur stdDeviation="10" in="shadowOffsetOuter1" result="shadowBlurOuter1"></feGaussianBlur>
            <feColorMatrix values="0 0 0 0 1   0 0 0 0 1   0 0 0 0 1  0 0 0 1 0" type="matrix" in="shadowBlurOuter1" result="shadowMatrixOuter1"></feColorMatrix>
            <feOffset dx="0" dy="0" in="SourceAlpha" result="shadowOffsetOuter2"></feOffset>
            <feGaussianBlur stdDeviation="2" in="shadowOffsetOuter2" result="shadowBlurOuter2"></feGaussianBlur>
            <feColorMatrix values="0 0 0 0 0   0 0 0 0 1   0 0 0 0 0.392156863  0 0 0 1 0" type="matrix" in="shadowBlurOuter2" result="shadowMatrixOuter2"></feColorMatrix>
            <feMerge>
                <feMergeNode in="shadowMatrixOuter1"></feMergeNode>
                <feMergeNode in="shadowMatrixOuter2"></feMergeNode>
            </feMerge>
        </filter>
    </defs>
    <g id="Symbols" stroke="none" stroke-width="1" fill="none" fill-rule="evenodd">
        <g id="koma-vecter" transform="translate(30.000000, 20.000000)">
            <g id="kaku" transform="translate(1.000000, 8.000000)">
                <mask id="mask-2" fill="white">
                    <use xlink:href="#path-1"></use>
                </mask>
                <g id="Polygon-Copy-25" transform="translate(95.000000, 124.000000) scale(-1, 1) translate(-95.000000, -124.000000) ">
                    <use fill="black" fill-opacity="1" filter="url(#filter-3)" xlink:href="#path-1"></use>
                    <use stroke="#00FF64" stroke-width="3" fill="#000000" fill-rule="evenodd" xlink:href="#path-1"></use>
                </g>
                <g id="kakukou" mask="url(#mask-2)">
                    <use fill="black" fill-opacity="1" filter="url(#filter-5)" xlink:href="#path-4"></use>
                    <use fill="#0A3208" fill-rule="evenodd" xlink:href="#path-4"></use>
                </g>
            </g>
        </g>
    </g>
</svg>