<?xml version="1.0" encoding="UTF-8"?>
<svg width="252px" height="308px" viewBox="0 0 252 308" version="1.1" xmlns="http://www.w3.org/2000/svg" xmlns:xlink="http://www.w3.org/1999/xlink">
    <!-- Generator: Sketch 47.1 (45422) - http://www.bohemiancoding.com/sketch -->
    <title>narikaku</title>
    <desc>Created with Sketch.</desc>
    <defs>
        <path d="M95,0 L152,18.0206931 L190,230.506224 L0,230.506224 L38,18.0206931 L95,0 Z M0,230.506224 L190,230.506224 L190,248 L0,248 L0,230.506224 Z" id="path-1"></path>
        <filter x="-37.6%" y="-28.0%" width="175.3%" height="157.7%" filterUnits="objectBoundingBox" id="filter-3">
            <feMorphology radius="1.5" operator="dilate" in="SourceAlpha" result="shadowSpreadOuter1"></feMorphology>
            <feOffset dx="0" dy="1" in="shadowSpreadOuter1" result="shadowOffsetOuter1"></feOffset>
            <feGaussianBlur stdDeviation="15.5" in="shadowOffsetOuter1" result="shadowBlurOuter1"></feGaussianBlur>
            <feComposite in="shadowBlurOuter1" in2="SourceAlpha" operator="out" result="shadowBlurOuter1"></feComposite>
            <feColorMatrix values="0 0 0 0 0   0 0 0 0 1   0 0 0 0 0  0 0 0 1 0" type="matrix" in="shadowBlurOuter1" result="shadowMatrixOuter1"></feColorMatrix>
            <feMorphology radius="1.5" operator="dilate" in="SourceAlpha" result="shadowSpreadOuter2"></feMorphology>
            <feOffset dx="0" dy="1" in="shadowSpreadOuter2" result="shadowOffsetOuter2"></feOffset>
            <feGaussianBlur stdDeviation="11.5" in="shadowOffsetOuter2" result="shadowBlurOuter2"></feGaussianBlur>
            <feComposite in="shadowBlurOuter2" in2="SourceAlpha" operator="out" result="shadowBlurOuter2"></feComposite>
            <feColorMatrix values="0 0 0 0 1   0 0 0 0 1   0 0 0 0 1  0 0 0 1 0" type="matrix" in="shadowBlurOuter2" result="shadowMatrixOuter2"></feColorMatrix>
            <feMerge>
                <feMergeNode in="shadowMatrixOuter1"></feMergeNode>
                <feMergeNode in="shadowMatrixOuter2"></feMergeNode>
            </feMerge>
        </filter>
        <path d="M95.768,47.568 C95.768,48.336 95.192,48.816 94.232,48.816 L65.24,48.816 C62.072,48.816 58.328,49.008 56.504,49.584 C55.736,49.776 54.968,49.488 54.584,48.72 C54.2,47.952 53.624,46.224 53.336,45.168 C53.24,44.88 53.24,44.784 53.24,44.592 C53.24,44.304 53.432,44.208 53.72,44.208 C53.912,44.208 54.2,44.208 54.584,44.304 C57.272,45.168 61.88,45.552 65.048,45.552 L65.048,44.112 C65.048,42.384 64.952,40.464 64.664,39.312 C64.376,38.16 64.184,37.488 64.184,37.008 C64.184,36.432 64.472,36.24 65.144,36.24 C65.432,36.24 65.72,36.336 66.104,36.336 C69.464,36.528 77.72,37.2 80.888,37.68 C82.232,37.872 82.808,38.64 82.808,39.408 C82.808,40.272 82.232,41.136 81.08,41.52 C79.448,42.096 78.872,42.576 78.872,44.016 L78.872,45.552 L80.792,45.552 C81.368,45.552 81.944,45.264 82.328,44.784 C83.576,42.96 84.92,41.424 86.456,39.408 C86.936,38.832 87.8,38.832 88.472,39.408 C90.872,41.424 92.984,43.728 95.288,46.416 C95.576,46.8 95.768,47.28 95.768,47.568 Z M138.488,111.696 C138.488,114.96 136.28,118.416 130.904,119.184 C127.16,119.76 121.976,119.952 116.984,119.952 C112.76,119.952 108.728,119.856 105.752,119.568 C99.512,119.088 96.152,116.496 96.152,109.104 L96.152,108.432 C96.248,101.712 96.344,94.608 96.344,87.792 C96.344,80.304 96.248,73.296 95.768,67.632 L64.376,67.632 C60.632,67.728 56.984,67.824 55.064,68.4 C54.296,68.592 53.528,68.304 53.144,67.536 C52.76,66.768 52.088,65.04 51.8,63.984 C51.704,63.696 51.704,63.6 51.704,63.408 C51.704,63.12 51.896,63.024 52.184,63.024 C52.376,63.024 52.664,63.024 53.048,63.12 C55.736,63.984 60.728,64.368 64.184,64.368 C62.936,63.792 61.784,62.736 61.208,61.008 C60.92,60.144 60.824,59.376 60.824,58.512 C60.824,57.648 60.92,56.784 60.92,55.92 C60.92,54.288 60.632,52.848 58.904,51.312 C58.616,51.024 58.424,50.736 58.424,50.448 C58.424,50.064 58.808,49.68 59.576,49.68 L59.864,49.68 C65.624,50.448 71.96,52.272 72.728,57.552 C72.824,57.936 72.824,58.32 72.824,58.704 C72.824,61.584 71,63.504 68.792,64.368 L73.496,64.368 C74.84,59.76 75.8,55.728 75.8,51.888 C75.8,51.408 75.704,50.832 75.704,50.352 L75.704,49.68 C75.704,49.2 75.8,49.008 76.28,49.008 L76.568,49.008 C80.792,49.584 86.264,50.544 90.392,51.6 C91.352,51.888 92.12,52.656 92.12,53.424 C92.12,54 91.544,54.576 90.2,54.672 C88.28,54.864 87.512,55.152 86.84,55.92 C84.248,58.896 80.984,61.872 77.528,64.368 L81.752,64.368 C82.616,64.368 83.192,64.08 83.672,63.504 C85.112,61.68 86.744,59.664 88.088,57.84 C88.376,57.456 88.664,57.264 89.144,57.264 C89.528,57.264 89.912,57.456 90.392,57.84 C92.504,59.856 97.4,64.752 97.88,66.384 C104.504,68.016 111.128,69.84 111.128,69.84 L119.288,69.84 C119.384,67.728 119.576,65.52 119.576,63.6 C119.576,62.544 119.48,61.584 119.384,60.816 L109.88,60.816 C109.688,62.832 107.576,63.408 102.872,63.792 C101.912,63.888 101.144,63.888 100.376,63.888 C97.112,63.888 95.576,63.12 95.768,60.624 C96.056,57.456 96.44,50.736 96.44,45.36 C96.44,42.672 96.344,40.368 96.056,38.928 C95.864,37.968 95.768,37.392 95.768,37.008 C95.768,36.336 95.96,36.24 96.44,36.24 C96.632,36.24 96.92,36.336 97.304,36.336 C102.104,36.624 106.616,37.104 111.704,37.68 C112.856,37.872 113.432,38.64 113.432,39.408 C113.432,40.176 112.856,40.944 111.608,41.232 C109.976,41.616 109.688,42.192 109.688,43.344 L109.688,46.416 L118.136,46.416 C119,46.416 119.384,46.416 119.96,45.744 C121.496,43.824 123.992,40.944 125.72,39.024 C126.008,38.64 126.392,38.448 126.68,38.448 C127.064,38.448 127.448,38.64 127.928,39.024 C131.096,41.424 134.168,44.4 136.952,47.376 C137.24,47.664 137.528,48.24 137.528,48.624 C137.528,49.296 137.144,49.776 136.088,49.776 L109.688,49.776 C109.688,52.368 109.688,55.056 109.784,57.456 L116.792,57.456 C117.848,57.456 118.52,57.168 119,56.688 C120.632,55.248 122.36,53.808 123.896,52.368 C124.184,52.08 124.568,51.984 125.048,51.984 C125.624,51.984 126.2,52.08 126.68,52.368 C129.176,53.712 132.056,55.728 134.744,57.744 C135.512,58.224 135.992,58.992 135.992,59.856 C135.992,60.432 135.608,61.2 134.648,61.776 C132.92,62.928 132.44,63.024 132.44,64.944 L132.44,66.192 C132.44,67.44 132.536,68.784 132.632,70.512 L132.632,70.992 C132.632,73.392 130.616,74.064 126.296,74.448 C128.312,75.792 130.712,77.808 133.304,80.304 C134.168,81.168 133.88,82.608 132.44,82.608 L109.88,82.608 L109.88,88.464 L117.944,88.464 C118.616,88.464 119.096,88.368 119.576,87.888 C120.92,86.448 122.264,85.008 123.992,83.472 C124.568,82.896 125.144,82.896 126.008,83.472 C128.024,84.816 130.616,86.928 133.304,89.52 C134.168,90.384 133.88,91.728 132.44,91.728 L109.88,91.728 C109.976,93.84 109.976,95.952 109.976,97.968 L117.464,97.968 C118.136,97.968 118.52,97.872 119,97.296 L123.416,92.88 C123.992,92.4 124.568,92.4 125.432,92.88 C127.256,94.128 129.464,95.856 131.864,98.16 C132.056,97.584 132.152,97.008 132.344,96.432 C132.536,95.76 133.016,95.376 133.592,95.376 C134.072,95.376 134.456,95.76 134.456,96.72 C134.456,98.736 134.36,100.272 134.36,101.52 C134.36,104.976 134.648,105.552 136.088,106.608 C137.528,107.76 138.488,109.68 138.488,111.696 Z M93.752,78 C92.12,78.96 91.352,79.536 91.352,80.784 C91.256,85.776 91.256,94.224 91.256,101.616 L91.256,110.448 C91.256,115.824 89.144,120.048 78.488,121.2 L78.008,121.2 C77.144,121.2 76.376,120.912 76.28,119.568 C75.896,112.848 74.84,111.696 69.56,109.392 C69.56,112.272 69.656,114.768 69.656,117.456 C69.656,120.144 67.16,120.912 62.552,121.104 L61.4,121.104 C58.04,121.104 56.024,120.336 56.024,118.128 L56.024,117.84 C56.408,112.944 56.6,103.056 56.6,93.552 C56.6,83.088 56.312,73.296 55.64,71.376 C55.352,70.608 55.256,70.128 55.256,69.744 C55.256,69.36 55.352,69.264 55.64,69.264 C55.832,69.264 56.12,69.36 56.504,69.456 C62.84,70.992 70.424,73.392 70.424,73.392 L76.184,73.392 C77.048,73.392 77.624,73.104 78.2,72.624 C79.64,71.664 81.272,69.936 82.712,68.88 C83.48,68.304 84.344,68.304 85.4,68.88 C87.8,70.128 90.872,72.048 93.464,73.776 C95.288,74.928 95.384,76.944 93.752,78 Z M123.608,74.64 C121.304,74.64 120.344,74.256 119.576,73.2 L110.072,73.2 C109.976,75.12 109.976,77.136 109.88,79.344 L117.944,79.344 C118.616,79.344 119.096,79.248 119.576,78.768 C120.824,77.424 122.072,76.08 123.608,74.64 Z M78.584,84.048 C78.584,81.456 78.584,78.96 78.488,76.752 L69.56,76.752 C69.56,79.056 69.464,81.552 69.464,84.048 L78.584,84.048 Z M78.584,95.376 L78.584,87.408 L69.464,87.408 L69.464,95.376 L78.584,95.376 Z M78.584,98.736 L69.464,98.736 C69.464,101.424 69.56,104.496 69.56,107.28 C71,107.472 73.304,107.568 75.224,107.568 L76.472,107.568 C78.008,107.568 78.392,107.088 78.392,105.648 C78.488,103.632 78.488,101.04 78.584,98.736 Z M130.904,101.136 L109.976,101.136 L109.976,104.4 C109.976,107.088 110.552,107.376 112.472,107.664 C115.64,108.048 121.592,108.048 124.472,107.664 C128.024,107.184 129.656,106.704 130.904,101.136 Z M138.2,183.408 C138.2,184.176 137.72,185.04 136.568,185.712 C135.32,186.384 134.648,186.576 134.456,189.264 C134.072,194.832 132.536,204.144 131,209.616 C129.272,215.952 122.744,216.912 113.24,217.2 L112.568,217.2 C111.608,217.2 111.128,217.008 111.032,215.856 C110.456,209.136 109.688,207.696 101.72,204.624 C100.664,204.144 100.76,202.608 102.008,202.608 L102.2,202.608 C106.136,202.896 109.4,203.184 112.568,203.184 C114.968,203.184 116.216,202.8 116.984,199.728 C117.848,195.6 118.712,189.648 119,183.696 L77.912,183.696 C77.528,186.48 74.36,187.824 68.792,188.112 C67.928,188.208 67.064,188.208 66.296,188.208 C63.128,188.208 61.208,187.632 61.208,184.848 L61.208,184.464 C61.688,176.496 61.88,164.496 61.88,154.224 C61.88,145.104 61.688,137.328 61.304,135.024 C61.208,134.256 61.112,133.776 61.112,133.488 C61.112,133.104 61.208,132.912 61.496,132.912 C61.784,132.912 62.264,133.008 62.84,133.2 C68.216,134.736 78.584,139.056 78.584,139.056 L111.8,139.056 C112.568,139.056 112.952,138.864 113.528,138.192 C115.256,136.464 117.848,134.064 119.672,132.624 C120.344,132.048 120.824,132.048 121.784,132.624 C124.28,134.256 128.12,137.328 131.192,140.112 C131.672,140.496 131.864,140.88 131.864,141.264 C131.864,141.936 131.288,142.416 130.424,142.416 L104.312,142.416 C104.312,145.68 104.216,148.944 104.216,152.304 L108.824,152.304 C109.592,152.304 109.976,152.208 110.552,151.44 C111.896,149.808 114.392,146.928 115.928,145.296 C116.504,144.624 117.176,144.624 118.04,145.296 C120.44,147.12 123.992,150.48 126.68,153.36 C127.064,153.744 127.256,154.224 127.256,154.608 C127.256,155.184 126.776,155.664 125.912,155.664 L104.12,155.664 L104.12,165.936 L109.016,165.936 C109.784,165.936 110.264,165.84 110.744,165.072 C112.184,163.152 114.488,160.464 116.216,158.64 C116.888,157.968 117.56,157.968 118.328,158.64 C120.92,160.752 124.376,163.92 127.256,166.992 C127.64,167.376 127.736,167.856 127.736,168.24 C127.736,168.816 127.352,169.296 126.488,169.296 L104.12,169.296 C104.12,172.848 104.12,176.592 104.216,180.432 L116.984,180.432 C118.04,180.432 118.328,180.336 118.808,179.952 C120.44,178.608 123.8,175.728 125.24,174.576 C125.72,174.192 126.008,174 126.488,174 C126.872,174 127.256,174.192 127.832,174.576 C130.616,176.304 134.072,178.896 137.048,181.2 C137.72,181.776 138.2,182.544 138.2,183.408 Z M115.448,194.544 C115.448,198 112.28,200.304 109.208,200.304 C107.288,200.304 105.464,199.344 104.504,197.232 C102.68,192.912 104.408,189.84 100.184,186.672 C99.896,186.48 99.704,186.192 99.704,185.904 C99.704,185.616 100.088,185.328 100.952,185.328 C107.288,185.52 113.72,187.728 115.16,192.72 C115.352,193.392 115.448,193.968 115.448,194.544 Z M101.432,199.536 C101.432,204.048 97.976,206.352 94.712,206.352 C92.696,206.352 90.68,205.392 89.624,203.376 C88.952,202.032 88.856,200.4 88.856,198.768 L88.856,197.232 C88.856,194.448 88.568,191.568 85.784,189.168 C85.496,188.88 85.4,188.688 85.4,188.4 C85.4,187.92 85.784,187.536 86.456,187.536 C86.648,187.536 86.744,187.632 86.936,187.632 C93.944,189.168 100.664,192.432 101.336,198.48 C101.336,198.864 101.432,199.248 101.432,199.536 Z M85.592,203.28 C85.592,208.272 81.848,210.864 78.296,210.864 C75.32,210.864 72.44,208.944 72.152,205.2 C72.152,204.816 72.056,204.528 72.056,204.144 C72.056,200.112 74.36,198.384 74.36,194.928 C74.36,193.776 74.072,192.432 73.4,190.704 C73.304,190.512 73.304,190.32 73.304,190.224 C73.304,189.648 73.688,189.264 74.168,189.264 C74.36,189.264 74.648,189.36 74.936,189.552 C80.408,192.72 85.496,196.848 85.592,203.088 L85.592,203.28 Z M68.024,202.512 C68.024,207.312 66.488,211.248 61.976,212.88 C60.824,213.264 59.768,213.456 58.808,213.456 C54.488,213.456 51.608,209.904 51.608,206.256 C51.608,204.144 52.664,201.84 55.064,200.304 C59.96,197.232 61.976,197.904 64.184,190.896 C64.376,190.224 64.664,189.936 65.048,189.936 C65.432,189.936 65.816,190.416 66.104,191.088 C67.16,195.024 68.024,198.96 68.024,202.512 Z M89.144,152.304 C89.048,149.04 88.952,145.68 88.856,142.416 L77.72,142.416 C77.72,144.624 77.624,148.176 77.624,152.304 L89.144,152.304 Z M89.144,155.664 L77.528,155.664 C77.624,157.296 77.624,159.024 77.624,160.752 L77.624,165.936 L89.048,165.936 C89.144,162.384 89.144,159.024 89.144,155.664 Z M89.048,169.296 L77.624,169.296 C77.624,173.328 77.72,177.168 77.816,180.432 L88.76,180.432 C88.856,176.592 88.952,172.848 89.048,169.296 Z" id="path-4"></path>
        <filter x="-154.8%" y="-74.3%" width="409.6%" height="248.7%" filterUnits="objectBoundingBox" id="filter-5">
            <feOffset dx="0" dy="0" in="SourceAlpha" result="shadowOffsetOuter1"></feOffset>
            <feGaussianBlur stdDeviation="10" in="shadowOffsetOuter1" result="shadowBlurOuter1"></feGaussianBlur>
            <feColorMatrix values="0 0 0 0 1   0 0 0 0 1   0 0 0 0 1  0 0 0 1 0" type="matrix" in="shadowBlurOuter1" result="shadowMatrixOuter1"></feColorMatrix>
            <feOffset dx="0" dy="0" in="SourceAlpha" result="shadowOffsetOuter2"></feOffset>
            <feGaussianBlur stdDeviation="3.5" in="shadowOffsetOuter2" result="shadowBlurOuter2"></feGaussianBlur>
            <feColorMatrix values="0 0 0 0 1   0 0 0 0 0   0 0 0 0 0  0 0 0 1 0" type="matrix" in="shadowBlurOuter2" result="shadowMatrixOuter2"></feColorMatrix>
            <feOffset dx="0" dy="0" in="SourceAlpha" result="shadowOffsetOuter3"></feOffset>
            <feGaussianBlur stdDeviation="20" in="shadowOffsetOuter3" result="shadowBlurOuter3"></feGaussianBlur>
            <feColorMatrix values="0 0 0 0 1   0 0 0 0 1   0 0 0 0 1  0 0 0 1 0" type="matrix" in="shadowBlurOuter3" result="shadowMatrixOuter3"></feColorMatrix>
            <feOffset dx="0" dy="0" in="SourceAlpha" result="shadowOffsetOuter4"></feOffset>
            <feGaussianBlur stdDeviation="22.5" in="shadowOffsetOuter4" result="shadowBlurOuter4"></feGaussianBlur>
            <feColorMatrix values="0 0 0 0 1   0 0 0 0 0.567964804   0 0 0 0 0.567964804  0 0 0 1 0" type="matrix" in="shadowBlurOuter4" result="shadowMatrixOuter4"></feColorMatrix>
            <feMerge>
                <feMergeNode in="shadowMatrixOuter1"></feMergeNode>
                <feMergeNode in="shadowMatrixOuter2"></feMergeNode>
                <feMergeNode in="shadowMatrixOuter3"></feMergeNode>
                <feMergeNode in="shadowMatrixOuter4"></feMergeNode>
            </feMerge>
        </filter>
    </defs>
    <g id="Symbols" stroke="none" stroke-width="1" fill="none" fill-rule="evenodd">
        <g id="koma-vecter" transform="translate(30.000000, 20.000000)">
            <g id="narikaku" transform="translate(1.000000, 8.000000)">
                <mask id="mask-2" fill="white">
                    <use xlink:href="#path-1"></use>
                </mask>
                <g id="Polygon" transform="translate(95.000000, 124.000000) scale(-1, 1) translate(-95.000000, -124.000000) ">
                    <use fill="black" fill-opacity="1" filter="url(#filter-3)" xlink:href="#path-1"></use>
                    <use stroke="#00FF64" stroke-width="3" fill="#000000" fill-rule="evenodd" xlink:href="#path-1"></use>
                </g>
                <g id="gin-nari" mask="url(#mask-2)">
                    <use fill="black" fill-opacity="1" filter="url(#filter-5)" xlink:href="#path-4"></use>
                    <use fill="#320D08" fill-rule="evenodd" xlink:href="#path-4"></use>
                </g>
            </g>
        </g>
    </g>
</svg>