<?xml version="1.0" encoding="UTF-8"?>
<svg width="228px" height="270px" viewBox="0 0 228 270" version="1.1" xmlns="http://www.w3.org/2000/svg" xmlns:xlink="http://www.w3.org/1999/xlink">
    <!-- Generator: Sketch 47.1 (45422) - http://www.bohemiancoding.com/sketch -->
    <title>hu</title>
    <desc>Created with Sketch.</desc>
    <defs>
        <path d="M84,0 L134.4,15.2594578 L168,195.186722 L0,195.186722 L33.6,15.2594578 L84,0 Z M0,195.186722 L168,195.186722 L168,210 L0,210 L0,195.186722 Z" id="path-1"></path>
        <filter x="-42.6%" y="-33.1%" width="185.1%" height="168.1%" filterUnits="objectBoundingBox" id="filter-3">
            <feMorphology radius="1.5" operator="dilate" in="SourceAlpha" result="shadowSpreadOuter1"></feMorphology>
            <feOffset dx="0" dy="1" in="shadowSpreadOuter1" result="shadowOffsetOuter1"></feOffset>
            <feGaussianBlur stdDeviation="15.5" in="shadowOffsetOuter1" result="shadowBlurOuter1"></feGaussianBlur>
            <feComposite in="shadowBlurOuter1" in2="SourceAlpha" operator="out" result="shadowBlurOuter1"></feComposite>
            <feColorMatrix values="0 0 0 0 0   0 0 0 0 1   0 0 0 0 0  0 0 0 1 0" type="matrix" in="shadowBlurOuter1" result="shadowMatrixOuter1"></feColorMatrix>
            <feMorphology radius="1.5" operator="dilate" in="SourceAlpha" result="shadowSpreadOuter2"></feMorphology>
            <feOffset dx="0" dy="1" in="shadowSpreadOuter2" result="shadowOffsetOuter2"></feOffset>
            <feGaussianBlur stdDeviation="11.5" in="shadowOffsetOuter2" result="shadowBlurOuter2"></feGaussianBlur>
            <feComposite in="shadowBlurOuter2" in2="SourceAlpha" operator="out" result="shadowBlurOuter2"></feComposite>
            <feColorMatrix values="0 0 0 0 1   0 0 0 0 1   0 0 0 0 1  0 0 0 1 0" type="matrix" in="shadowBlurOuter2" result="shadowMatrixOuter2"></feColorMatrix>
            <feMerge>
                <feMergeNode in="shadowMatrixOuter1"></feMergeNode>
                <feMergeNode in="shadowMatrixOuter2"></feMergeNode>
            </feMerge>
        </filter>
        <path d="M118.497,60.606 C118.497,61.159 118.181,61.633 117.312,61.633 L91.4,61.633 C91.321,63.845 91.321,65.899 91.321,67.874 C91.321,71.034 91.4,74.194 91.479,78.144 L91.479,78.302 C91.479,83.437 87.845,87.229 78.444,88.73 C78.128,88.809 77.891,88.809 77.654,88.809 C77.022,88.809 76.627,88.572 76.548,87.861 C76.469,87.782 76.469,87.624 76.469,87.545 C76.153,81.146 75.205,80.119 69.122,77.67 C68.727,77.512 68.569,77.196 68.569,76.88 C68.569,76.406 68.964,75.932 69.596,75.932 L69.675,75.932 C70.939,76.011 72.124,76.169 73.309,76.248 C74.494,76.327 75.6,76.327 76.706,76.406 L77.022,76.406 C78.365,76.406 78.76,75.932 78.839,74.273 C78.918,71.982 78.997,69.533 78.997,67.084 C78.997,65.346 78.918,63.529 78.918,61.633 L59.484,61.633 C56.403,61.633 53.164,61.791 51.584,62.265 C50.952,62.423 50.32,62.186 50.004,61.554 C49.688,60.922 49.135,59.342 48.898,58.473 C48.819,58.236 48.819,58.157 48.819,57.999 C48.819,57.762 48.977,57.683 49.214,57.683 C49.372,57.683 49.609,57.683 49.925,57.762 C52.295,58.473 56.719,58.789 59.642,58.789 C59.721,56.103 59.8,52.864 59.8,49.862 C59.8,46.465 59.721,43.305 59.405,41.409 C59.247,40.382 59.089,39.75 59.089,39.434 C59.089,39.118 59.247,39.039 59.721,39.039 L60.432,39.039 C64.382,39.355 69.201,39.908 73.704,40.619 C74.81,40.777 75.284,41.33 75.284,41.962 C75.284,42.673 74.731,43.384 73.862,43.7 C72.44,44.174 71.887,44.648 71.808,45.754 C71.65,47.887 71.571,50.81 71.571,53.733 C71.571,55.471 71.65,57.209 71.65,58.789 L78.681,58.789 C78.839,55.471 78.918,51.363 78.918,47.571 C78.918,43.463 78.839,39.671 78.523,37.617 C78.365,36.669 78.207,36.037 78.207,35.642 C78.207,35.168 78.365,35.01 78.839,35.01 C79.076,35.01 79.313,35.089 79.629,35.089 C83.421,35.405 89.03,36.037 93.296,36.669 C94.481,36.827 94.955,37.459 94.955,38.091 C94.955,38.802 94.402,39.592 93.533,39.829 C92.111,40.224 91.479,40.777 91.479,41.962 C91.4,42.989 91.4,44.411 91.4,46.07 L95.587,46.07 C96.377,46.07 96.93,45.833 97.404,45.359 C98.826,43.7 100.643,41.488 102.065,39.908 C102.302,39.592 102.697,39.434 103.013,39.434 C103.329,39.434 103.724,39.592 104.04,39.829 C106.41,41.567 109.175,44.016 111.861,46.702 C112.177,47.018 112.414,47.492 112.414,47.887 C112.414,48.44 112.098,48.835 111.15,48.835 L91.4,48.835 C91.4,52.153 91.4,55.945 91.479,58.789 L99.774,58.789 C100.564,58.789 100.959,58.631 101.433,58.078 C103.171,56.103 105.225,53.654 106.963,51.758 C107.437,51.205 108.306,51.205 108.938,51.758 C111.624,53.812 115.1,56.656 118.023,59.421 C118.339,59.737 118.497,60.211 118.497,60.606 Z M118.102,75.221 C118.102,78.697 115.021,80.988 111.861,80.988 C110.202,80.988 108.543,80.356 107.2,78.934 C102.618,73.957 105.304,70.639 94.797,65.899 C94.323,65.662 94.086,65.346 94.086,64.951 C94.086,64.477 94.481,64.082 95.192,64.082 L95.271,64.082 C106.173,64.635 113.599,66.215 116.68,71.034 C117.628,72.535 118.102,73.957 118.102,75.221 Z M76.785,67.163 C76.785,67.874 76.232,68.585 75.126,68.743 C73.783,68.901 73.23,69.138 72.756,69.928 C68.332,77.828 61.301,84.148 49.135,88.177 C48.977,88.256 48.898,88.256 48.74,88.256 C48.266,88.256 47.95,87.94 47.95,87.466 C47.95,87.15 48.029,86.913 48.266,86.597 C54.902,78.934 59.247,70.56 60.353,63.845 C60.432,63.055 60.59,62.897 60.985,62.897 C61.143,62.897 61.38,62.897 61.617,62.976 C66.12,63.766 71.571,64.872 75.6,65.82 C76.39,65.978 76.785,66.531 76.785,67.163 Z M111.387,83.99 C111.387,84.701 110.834,85.333 109.807,85.333 C109.649,85.333 109.412,85.254 109.254,85.254 C108.622,85.175 108.227,85.096 107.832,85.096 C107.121,85.096 106.805,85.333 106.331,85.965 C95.508,98.605 85.791,104.056 51.426,104.846 C50.715,104.846 50.32,104.372 50.32,103.977 C50.32,103.582 50.636,103.187 51.11,103.029 C78.444,95.682 90.294,88.888 96.93,75.616 C97.246,74.905 97.562,74.273 98.115,74.273 C98.273,74.273 98.589,74.352 98.905,74.589 C102.539,76.801 106.963,79.724 110.281,82.173 C111.071,82.726 111.387,83.437 111.387,83.99 Z M119.05,160.909 C119.05,161.462 118.655,161.778 117.786,161.778 L58.536,161.778 C55.455,161.778 52.216,161.936 50.636,162.41 C50.004,162.568 49.451,162.331 49.135,161.699 C48.819,161.067 48.266,159.724 48.029,158.855 C47.95,158.618 47.95,158.46 47.95,158.302 C47.95,158.065 48.029,157.907 48.345,157.907 C48.503,157.907 48.661,157.907 48.898,157.986 C51.268,158.697 55.06,159.013 57.983,159.013 L59.721,159.013 C59.879,154.668 60.037,148.427 60.037,142.265 C60.037,133.022 59.721,123.779 58.931,121.172 C58.773,120.619 58.615,120.145 58.615,119.829 C58.615,119.434 58.852,119.197 59.247,119.197 C59.484,119.197 59.721,119.276 59.958,119.355 C65.646,120.935 74.415,124.174 74.415,124.174 C83.5,122.199 91.479,117.854 94.165,115.563 C94.718,115.01 95.113,114.773 95.508,114.773 C95.903,114.773 96.298,115.01 97.009,115.484 C99.3,117.064 104.672,121.172 107.674,123.779 C108.227,124.253 108.543,124.885 108.543,125.438 C108.543,126.149 107.911,126.781 106.963,126.781 C106.647,126.781 106.252,126.702 105.857,126.544 C104.83,126.149 104.119,125.991 103.408,125.991 C103.013,125.991 102.539,126.07 101.986,126.228 C96.456,127.492 88.24,128.124 79.155,128.124 C77.338,128.124 75.442,128.124 73.546,128.045 C73.546,129.783 73.467,133.575 73.467,138.078 L94.481,138.078 C95.271,138.078 95.745,137.683 96.14,137.209 C97.641,135.55 100.485,132.311 101.907,130.968 C102.46,130.415 103.171,130.415 103.961,130.968 C105.936,132.311 110.992,136.498 113.204,138.631 C113.52,138.947 113.836,139.421 113.836,139.895 C113.836,140.369 113.441,140.843 112.493,140.843 L100.248,140.843 C100.248,144.003 100.169,148.901 100.169,153.246 C100.169,155.379 100.169,157.433 100.248,159.013 L100.959,159.013 C101.591,159.013 102.144,158.697 102.46,158.223 C103.803,156.406 106.647,153.009 107.911,151.508 C108.464,150.876 109.333,150.876 110.044,151.508 C112.177,153.325 116.601,157.591 118.497,159.803 C118.892,160.198 119.05,160.593 119.05,160.909 Z M85.001,171.021 C85.001,170.389 84.606,169.678 83.579,169.283 C79.392,167.545 73.23,165.096 68.885,163.595 C68.648,163.516 68.411,163.437 68.174,163.437 C67.7,163.437 67.384,163.753 67.068,164.464 C65.251,169.836 57.588,177.736 48.74,183.108 C48.266,183.424 48.029,183.819 48.029,184.135 C48.029,184.53 48.345,184.846 49.056,184.846 L49.293,184.846 C61.38,183.898 71.571,179.316 79.55,173.233 C80.182,172.68 81.13,172.522 82.315,172.522 L83.026,172.522 C84.369,172.522 85.001,171.811 85.001,171.021 Z M114.784,178.052 C114.784,176.63 114.31,175.05 113.362,173.47 C109.175,166.755 98.273,166.044 86.976,165.491 L86.818,165.491 C85.949,165.491 85.475,165.965 85.475,166.518 C85.475,166.834 85.712,167.229 86.186,167.387 C95.35,171.1 99.063,177.262 102.539,181.765 C104.277,184.056 106.331,185.004 108.306,185.004 C111.782,185.004 114.784,181.923 114.784,178.052 Z M87.134,151.271 C87.134,147.479 87.134,143.529 87.055,140.843 L73.467,140.843 C73.388,147.005 73.388,153.957 73.467,159.013 L87.055,159.013 C87.134,156.88 87.134,154.115 87.134,151.271 Z" id="path-4"></path>
        <filter x="-47.8%" y="-22.7%" width="195.6%" height="145.3%" filterUnits="objectBoundingBox" id="filter-5">
            <feOffset dx="0" dy="0" in="SourceAlpha" result="shadowOffsetOuter1"></feOffset>
            <feGaussianBlur stdDeviation="10" in="shadowOffsetOuter1" result="shadowBlurOuter1"></feGaussianBlur>
            <feColorMatrix values="0 0 0 0 1   0 0 0 0 1   0 0 0 0 1  0 0 0 1 0" type="matrix" in="shadowBlurOuter1" result="shadowMatrixOuter1"></feColorMatrix>
            <feOffset dx="0" dy="0" in="SourceAlpha" result="shadowOffsetOuter2"></feOffset>
            <feGaussianBlur stdDeviation="2" in="shadowOffsetOuter2" result="shadowBlurOuter2"></feGaussianBlur>
            <feColorMatrix values="0 0 0 0 0   0 0 0 0 1   0 0 0 0 0.392156863  0 0 0 1 0" type="matrix" in="shadowBlurOuter2" result="shadowMatrixOuter2"></feColorMatrix>
            <feMerge>
                <feMergeNode in="shadowMatrixOuter1"></feMergeNode>
                <feMergeNode in="shadowMatrixOuter2"></feMergeNode>
            </feMerge>
        </filter>
    </defs>
    <g id="Symbols" stroke="none" stroke-width="1" fill="none" fill-rule="evenodd">
        <g id="koma-vecter" transform="translate(29.000000, 20.000000)">
            <g id="hu" transform="translate(1.000000, 8.000000)">
                <mask id="mask-2" fill="white">
                    <use xlink:href="#path-1"></use>
                </mask>
                <g id="Polygon-Copy-21" transform="translate(84.000000, 105.000000) scale(-1, 1) translate(-84.000000, -105.000000) ">
                    <use fill="black" fill-opacity="1" filter="url(#filter-3)" xlink:href="#path-1"></use>
                    <use stroke="#00FF64" stroke-width="3" fill="#000000" fill-rule="evenodd" xlink:href="#path-1"></use>
                </g>
                <g id="歩-兵" mask="url(#mask-2)">
                    <use fill="black" fill-opacity="1" filter="url(#filter-5)" xlink:href="#path-4"></use>
                    <use fill="#0A3208" fill-rule="evenodd" xlink:href="#path-4"></use>
                </g>
            </g>
        </g>
    </g>
</svg>