<?xml version="1.0" encoding="UTF-8"?>
<svg width="258px" height="300px" viewBox="0 0 258 300" version="1.1" xmlns="http://www.w3.org/2000/svg" xmlns:xlink="http://www.w3.org/1999/xlink">
    <!-- Generator: Sketch 47.1 (45422) - http://www.bohemiancoding.com/sketch -->
    <title>gyoku-aite</title>
    <desc>Created with Sketch.</desc>
    <defs>
        <polygon id="path-1" points="100 0 160 18.7629048 200 240 0 240 40 18.7629048"></polygon>
        <filter x="-35.8%" y="-29.0%" width="171.5%" height="159.6%" filterUnits="objectBoundingBox" id="filter-3">
            <feMorphology radius="1.5" operator="dilate" in="SourceAlpha" result="shadowSpreadOuter1"></feMorphology>
            <feOffset dx="0" dy="1" in="shadowSpreadOuter1" result="shadowOffsetOuter1"></feOffset>
            <feGaussianBlur stdDeviation="15.5" in="shadowOffsetOuter1" result="shadowBlurOuter1"></feGaussianBlur>
            <feComposite in="shadowBlurOuter1" in2="SourceAlpha" operator="out" result="shadowBlurOuter1"></feComposite>
            <feColorMatrix values="0 0 0 0 0   0 0 0 0 1   0 0 0 0 0  0 0 0 1 0" type="matrix" in="shadowBlurOuter1" result="shadowMatrixOuter1"></feColorMatrix>
            <feMorphology radius="1.5" operator="dilate" in="SourceAlpha" result="shadowSpreadOuter2"></feMorphology>
            <feOffset dx="0" dy="1" in="shadowSpreadOuter2" result="shadowOffsetOuter2"></feOffset>
            <feGaussianBlur stdDeviation="11.5" in="shadowOffsetOuter2" result="shadowBlurOuter2"></feGaussianBlur>
            <feComposite in="shadowBlurOuter2" in2="SourceAlpha" operator="out" result="shadowBlurOuter2"></feComposite>
            <feColorMatrix values="0 0 0 0 1   0 0 0 0 1   0 0 0 0 1  0 0 0 1 0" type="matrix" in="shadowBlurOuter2" result="shadowMatrixOuter2"></feColorMatrix>
            <feMerge>
                <feMergeNode in="shadowMatrixOuter1"></feMergeNode>
                <feMergeNode in="shadowMatrixOuter2"></feMergeNode>
            </feMerge>
        </filter>
        <polygon id="path-4" points="100 -10 160 8.76290479 200 230 0 230 40 8.76290479"></polygon>
        <path d="M143.496,90.336 C143.496,91.008 143.112,91.584 142.056,91.584 L69.96,91.584 C66.216,91.584 62.472,91.776 60.552,92.352 C59.784,92.544 58.92,92.256 58.536,91.488 C58.152,90.72 57.384,88.704 57.096,87.648 C57,87.456 57,87.264 57,87.168 C57,86.784 57.192,86.688 57.576,86.688 C57.768,86.688 58.056,86.688 58.44,86.784 C61.32,87.648 66.312,88.032 69.864,88.032 L89.544,88.032 C89.64,77.376 89.832,64.704 89.832,52.8 L77.832,52.8 C74.088,52.8 70.344,52.992 68.424,53.568 C67.656,53.76 66.792,53.472 66.408,52.704 C66.024,51.936 65.352,50.016 65.064,48.96 C64.968,48.672 64.968,48.576 64.968,48.384 C64.968,48.096 65.16,48 65.448,48 C65.64,48 65.928,48 66.312,48.096 C69.192,48.96 74.184,49.344 77.736,49.344 L89.832,49.344 C89.832,39.744 89.832,30.816 89.64,24 L73.224,24 C69.48,24 65.736,24.192 63.816,24.768 C63.048,24.96 62.088,24.672 61.704,23.904 C61.32,23.136 60.744,21.12 60.456,20.064 C60.36,19.776 60.36,19.68 60.36,19.488 C60.36,19.2 60.552,19.104 60.84,19.104 C61.032,19.104 61.32,19.104 61.704,19.2 C64.584,20.064 69.576,20.448 73.128,20.448 L117.864,20.448 C118.632,20.448 119.4,20.16 119.88,19.584 C121.8,17.28 124.296,14.688 126.408,12.48 C126.696,12.192 127.08,12 127.464,12 C127.944,12 128.424,12.192 128.808,12.48 C132.168,14.88 136.2,17.952 139.848,21.408 C140.232,21.792 140.52,22.272 140.52,22.752 C140.52,23.424 140.04,24 138.984,24 L106.632,24 C106.536,31.008 106.44,39.936 106.44,49.344 L114.216,49.344 C115.08,49.344 115.752,49.056 116.232,48.384 C118.248,45.888 120.84,42.624 122.76,40.416 C123.048,40.128 123.432,39.936 123.816,39.936 C124.296,39.936 124.776,40.128 125.16,40.416 C128.232,42.816 132.648,46.656 135.912,50.112 C136.296,50.496 136.488,51.072 136.488,51.552 C136.488,52.224 136.104,52.8 135.048,52.8 L106.44,52.8 C106.44,64.704 106.44,77.184 106.632,88.032 L119.592,88.032 C120.456,88.032 121.224,87.744 121.608,87.168 C123.816,84.576 126.504,81.504 128.712,78.912 C129,78.624 129.384,78.432 129.864,78.432 C130.344,78.432 130.824,78.624 131.208,78.912 C134.568,81.408 139.176,85.344 142.92,88.896 C143.304,89.28 143.496,89.856 143.496,90.336 Z M132.264,70.944 C132.264,75.744 128.328,78.816 124.392,78.816 C121.896,78.816 119.4,77.664 117.864,74.88 C114.984,69.888 118.824,65.568 110.28,59.136 C109.896,58.752 109.608,58.368 109.608,57.984 C109.608,57.504 110.088,57.024 111.048,57.024 L111.432,57.024 C120.072,57.984 129.096,60.864 131.496,67.2 C131.976,68.544 132.264,69.792 132.264,70.944 Z M141,119.616 C141,120.48 140.328,121.056 139.176,121.056 C138.888,121.056 138.408,120.96 138.024,120.864 C136.776,120.48 136.104,120.288 135.24,120.288 C134.76,120.288 134.28,120.384 133.608,120.48 C126.216,121.536 114.12,122.88 101.16,122.88 C97.8,122.88 94.44,122.784 91.08,122.592 C89.928,122.496 89.448,122.016 89.448,121.44 C89.448,120.96 89.928,120.384 90.984,120.192 C107.112,116.928 119.496,111.744 124.2,108.192 C124.872,107.712 125.256,107.328 125.832,107.328 C126.12,107.328 126.504,107.424 127.08,107.808 C130.824,110.208 136.392,114.624 139.752,117.504 C140.616,118.176 141,118.944 141,119.616 Z M121.8,134.88 C121.8,139.488 118.248,142.08 114.792,142.08 C112.296,142.08 109.896,140.736 109.032,137.664 C108.84,136.896 108.744,136.128 108.744,135.36 C108.744,133.536 109.32,131.808 109.32,129.984 C109.32,128.352 108.84,126.72 107.4,124.704 C107.304,124.512 107.208,124.32 107.208,124.128 C107.208,123.648 107.496,123.264 108.168,123.264 C108.264,123.264 108.456,123.36 108.648,123.36 C114.024,124.32 120.84,128.352 121.704,133.248 C121.8,133.824 121.8,134.4 121.8,134.88 Z M106.632,138.24 C106.632,142.656 103.176,145.056 99.816,145.056 C97.032,145.056 94.344,143.424 93.576,140.256 C93.384,139.2 93.288,138.336 93.288,137.472 C93.288,136.032 93.48,134.784 93.48,133.536 C93.48,131.52 93,129.408 90.792,126.72 C90.6,126.432 90.408,126.048 90.408,125.856 C90.408,125.28 90.792,124.992 91.464,124.992 C91.56,124.992 91.752,125.088 91.944,125.088 C99.624,127.008 105.672,130.656 106.536,136.992 C106.632,137.376 106.632,137.856 106.632,138.24 Z M92.712,111.744 C92.712,112.512 92.136,113.376 90.888,113.664 C89.256,114.048 88.68,115.008 88.584,116.16 C88.392,118.56 88.296,128.352 88.296,141.216 C88.296,155.232 88.392,172.896 88.776,188.352 C88.776,190.656 87.048,192 83.016,192.48 C82.44,192.576 81.864,192.672 81.192,192.672 L79.848,192.672 C75.72,192.672 74.184,191.52 74.184,189.312 C74.376,179.616 74.568,167.712 74.664,156.192 C72.072,161.952 67.848,168.192 65.16,171.936 C64.488,172.8 64.584,173.376 64.392,175.008 C64.296,176.256 63.528,176.928 62.76,176.928 C62.088,176.928 61.416,176.352 61.128,175.296 C59.784,169.824 58.152,162.432 57.192,157.056 C57.096,156.576 57.096,156.288 57.096,156 C57.096,155.328 57.48,155.328 59.208,155.136 C62.184,154.752 69.288,153.216 74.664,150.336 L74.664,138.624 C74.28,142.272 71.4,144 68.424,144 C65.64,144 62.76,142.464 61.608,139.488 C61.224,138.624 61.128,137.76 61.128,136.896 C61.128,134.688 61.992,132.672 61.992,130.08 C61.992,127.776 61.416,125.184 59.016,121.824 C58.92,121.632 58.824,121.44 58.824,121.152 C58.824,120.672 59.208,120.192 59.88,120.192 C59.976,120.192 60.168,120.192 60.36,120.288 C67.56,123.36 72.84,127.296 74.664,132.768 C74.664,121.92 74.568,112.992 74.376,111.552 C74.088,109.824 73.992,108.864 73.992,108.384 C73.992,107.808 74.088,107.712 74.472,107.712 C74.664,107.712 74.856,107.808 75.24,107.808 C80.424,108.288 86.184,109.152 90.984,110.016 C92.136,110.208 92.712,110.976 92.712,111.744 Z M143.592,155.616 C143.592,156.288 143.304,156.768 142.152,156.768 L131.688,156.768 C131.688,165.024 131.784,175.68 131.976,181.92 L131.976,182.208 C131.976,188.448 128.616,191.52 116.136,192.576 L115.464,192.576 C114.408,192.576 113.928,192.384 113.832,191.424 C113.064,183.36 111.624,182.496 104.328,179.328 C103.656,179.04 103.368,178.56 103.368,178.08 C103.368,177.504 103.848,177.024 104.808,177.024 L105,177.024 C108.264,177.216 111.528,177.408 115.08,177.504 L115.272,177.504 C116.904,177.504 117.192,176.448 117.288,175.104 C117.384,172.704 117.48,168.768 117.48,164.544 C117.48,161.952 117.48,159.264 117.384,156.768 L102.024,156.768 C98.28,156.768 94.44,156.96 92.52,157.536 C91.752,157.728 90.888,157.44 90.504,156.672 C90.12,155.904 89.544,153.984 89.256,152.928 C89.16,152.64 89.16,152.544 89.16,152.352 C89.16,152.064 89.352,151.968 89.64,151.968 C89.832,151.968 90.12,151.968 90.504,152.064 C93.384,152.928 98.376,153.312 101.928,153.312 L117.288,153.312 C117.192,150.336 117,147.936 116.808,146.592 C116.52,145.152 116.328,144.192 116.328,143.616 C116.328,142.944 116.616,142.752 117.288,142.752 C117.48,142.752 117.768,142.848 118.056,142.848 C119.016,142.944 119.976,143.136 121.32,143.328 C123.336,137.28 125.448,128.064 125.544,123.36 C125.544,122.4 125.64,122.112 126.216,122.112 C126.504,122.112 126.792,122.208 127.272,122.304 C131.4,123.36 137.64,125.184 141.48,126.528 C142.344,126.816 142.824,127.584 142.824,128.256 C142.824,129.12 142.152,129.888 140.904,129.984 C139.944,129.984 138.888,130.368 138.312,131.04 C134.76,135.936 130.344,140.448 125.352,143.808 C127.656,144.096 131.208,144.48 133.224,144.768 C134.376,144.96 135.048,145.632 135.048,146.4 C135.048,147.072 134.472,147.84 133.32,148.32 C132.072,148.8 131.784,149.472 131.784,150.336 L131.784,153.312 C132.168,153.312 132.36,153.024 132.744,152.448 C133.608,150.912 134.856,148.896 136.104,147.072 C136.392,146.688 136.68,146.496 137.064,146.496 C137.352,146.496 137.736,146.688 138.024,147.072 C139.752,149.28 141.864,152.16 143.208,154.368 C143.4,154.752 143.592,155.232 143.592,155.616 Z M110.76,169.728 C110.76,173.856 107.016,176.544 103.368,176.544 C101.064,176.544 98.76,175.392 97.512,172.992 C96.84,171.744 96.744,170.784 96.744,169.824 C96.744,168.576 97.032,167.424 97.032,166.176 C97.032,164.544 96.456,162.72 93.864,160.032 C93.576,159.744 93.48,159.36 93.48,159.072 C93.48,158.688 93.768,158.304 94.44,158.304 L94.824,158.304 C102.216,159.648 108.552,161.568 110.376,167.232 C110.664,168.096 110.76,168.96 110.76,169.728 Z" id="path-6"></path>
        <filter x="-39.3%" y="-18.8%" width="178.5%" height="137.6%" filterUnits="objectBoundingBox" id="filter-7">
            <feOffset dx="0" dy="0" in="SourceAlpha" result="shadowOffsetOuter1"></feOffset>
            <feGaussianBlur stdDeviation="10" in="shadowOffsetOuter1" result="shadowBlurOuter1"></feGaussianBlur>
            <feColorMatrix values="0 0 0 0 1   0 0 0 0 1   0 0 0 0 1  0 0 0 1 0" type="matrix" in="shadowBlurOuter1" result="shadowMatrixOuter1"></feColorMatrix>
            <feOffset dx="0" dy="0" in="SourceAlpha" result="shadowOffsetOuter2"></feOffset>
            <feGaussianBlur stdDeviation="2" in="shadowOffsetOuter2" result="shadowBlurOuter2"></feGaussianBlur>
            <feColorMatrix values="0 0 0 0 0   0 0 0 0 1   0 0 0 0 0.392156863  0 0 0 1 0" type="matrix" in="shadowBlurOuter2" result="shadowMatrixOuter2"></feColorMatrix>
            <feMerge>
                <feMergeNode in="shadowMatrixOuter1"></feMergeNode>
                <feMergeNode in="shadowMatrixOuter2"></feMergeNode>
            </feMerge>
        </filter>
    </defs>
    <g id="Symbols" stroke="none" stroke-width="1" fill="none" fill-rule="evenodd">
        <g id="koma-vecter" transform="translate(28.000000, 24.000000)">
            <g id="gyoku-aite" transform="translate(1.000000, 8.000000)">
                <mask id="mask-2" fill="white">
                    <use xlink:href="#path-1"></use>
                </mask>
                <g id="Polygon-Copy-20" transform="translate(100.000000, 120.000000) scale(-1, -1) translate(-100.000000, -120.000000) ">
                    <use fill="black" fill-opacity="1" filter="url(#filter-3)" xlink:href="#path-1"></use>
                    <use stroke="#00FF64" stroke-width="3" fill="#000000" fill-rule="evenodd" xlink:href="#path-1"></use>
                </g>
                <mask id="mask-5" fill="white">
                    <use xlink:href="#path-4"></use>
                </mask>
                <use id="Polygon-Copy-19" stroke="#00FF64" stroke-width="3" fill="#000000" transform="translate(100.000000, 110.000000) scale(-1, -1) translate(-100.000000, -110.000000) " xlink:href="#path-4"></use>
                <g id="gyoku-copy" mask="url(#mask-5)" transform="translate(100.296000, 102.336000) scale(-1, -1) translate(-100.296000, -102.336000) ">
                    <use fill="black" fill-opacity="1" filter="url(#filter-7)" xlink:href="#path-6"></use>
                    <use fill="#0A3208" fill-rule="evenodd" xlink:href="#path-6"></use>
                </g>
            </g>
        </g>
    </g>
</svg>