<?xml version="1.0" encoding="UTF-8"?>
<svg width="258px" height="300px" viewBox="0 0 258 300" version="1.1" xmlns="http://www.w3.org/2000/svg" xmlns:xlink="http://www.w3.org/1999/xlink">
    <!-- Generator: Sketch 47.1 (45422) - http://www.bohemiancoding.com/sketch -->
    <title>ou-aite</title>
    <desc>Created with Sketch.</desc>
    <defs>
        <polygon id="path-1" points="100 0 160 18.7629048 200 240 0 240 40 18.7629048"></polygon>
        <filter x="-35.8%" y="-29.0%" width="171.5%" height="159.6%" filterUnits="objectBoundingBox" id="filter-3">
            <feMorphology radius="1.5" operator="dilate" in="SourceAlpha" result="shadowSpreadOuter1"></feMorphology>
            <feOffset dx="0" dy="1" in="shadowSpreadOuter1" result="shadowOffsetOuter1"></feOffset>
            <feGaussianBlur stdDeviation="15.5" in="shadowOffsetOuter1" result="shadowBlurOuter1"></feGaussianBlur>
            <feComposite in="shadowBlurOuter1" in2="SourceAlpha" operator="out" result="shadowBlurOuter1"></feComposite>
            <feColorMatrix values="0 0 0 0 0   0 0 0 0 1   0 0 0 0 0  0 0 0 1 0" type="matrix" in="shadowBlurOuter1" result="shadowMatrixOuter1"></feColorMatrix>
            <feMorphology radius="1.5" operator="dilate" in="SourceAlpha" result="shadowSpreadOuter2"></feMorphology>
            <feOffset dx="0" dy="1" in="shadowSpreadOuter2" result="shadowOffsetOuter2"></feOffset>
            <feGaussianBlur stdDeviation="11.5" in="shadowOffsetOuter2" result="shadowBlurOuter2"></feGaussianBlur>
            <feComposite in="shadowBlurOuter2" in2="SourceAlpha" operator="out" result="shadowBlurOuter2"></feComposite>
            <feColorMatrix values="0 0 0 0 1   0 0 0 0 1   0 0 0 0 1  0 0 0 1 0" type="matrix" in="shadowBlurOuter2" result="shadowMatrixOuter2"></feColorMatrix>
            <feMerge>
                <feMergeNode in="shadowMatrixOuter1"></feMergeNode>
                <feMergeNode in="shadowMatrixOuter2"></feMergeNode>
            </feMerge>
        </filter>
        <polygon id="path-4" points="100 -10 160 8.76290479 200 230 0 230 40 8.76290479"></polygon>
        <path d="M143.496,95.4 C143.496,94.92 143.304,94.344 142.92,93.96 C139.272,90.216 134.664,85.896 131.016,82.92 C130.632,82.632 130.152,82.44 129.672,82.44 C129.192,82.44 128.808,82.632 128.52,82.92 C125.736,86.088 122.76,89.64 120.648,92.232 C120.264,92.808 119.496,93.096 118.632,93.096 L107.4,93.096 C107.304,82.728 107.208,71.112 107.208,60.072 L135.336,60.072 C136.392,60.072 136.776,59.496 136.776,58.824 C136.776,58.344 136.584,57.768 136.2,57.384 C133.512,54.6 129.096,50.472 125.832,47.688 C125.064,47.016 123.912,47.016 123.336,47.688 C120.936,50.376 118.632,53.064 116.424,55.752 C115.944,56.328 115.176,56.616 114.312,56.616 L107.208,56.616 C107.208,47.112 107.304,38.088 107.4,30.888 L139.272,30.888 C140.328,30.888 140.808,30.312 140.808,29.544 C140.808,29.064 140.52,28.584 140.136,28.2 C136.68,24.936 132.36,21.192 128.904,18.504 C128.136,17.832 127.08,17.832 126.408,18.504 C124.008,21 121.032,24.264 119.208,26.472 C118.728,27.048 117.96,27.336 117.192,27.336 L72.84,27.336 C69.288,27.336 64.296,26.952 61.416,26.088 C61.032,25.992 60.744,25.992 60.552,25.992 C60.264,25.992 60.072,26.088 60.072,26.376 C60.072,26.568 60.072,26.664 60.168,26.952 C60.456,28.008 61.032,30.024 61.416,30.792 C61.8,31.56 62.76,31.848 63.528,31.656 C65.448,31.08 69.192,30.888 72.936,30.888 L90.504,30.888 C90.792,37.896 90.888,47.016 90.792,56.616 L77.448,56.616 C73.896,56.616 68.904,56.232 66.024,55.368 C65.64,55.272 65.352,55.272 65.16,55.272 C64.872,55.272 64.68,55.368 64.68,55.656 C64.68,55.848 64.68,55.944 64.776,56.232 C65.064,57.288 65.736,59.208 66.12,59.976 C66.504,60.744 67.368,61.032 68.136,60.84 C70.056,60.264 73.8,60.072 77.544,60.072 L90.792,60.072 C90.792,71.208 90.6,82.824 90.408,93.096 L69.864,93.096 C66.312,93.096 61.32,92.712 58.44,91.848 C58.056,91.752 57.768,91.752 57.576,91.752 C57.192,91.752 57,91.848 57,92.232 C57,92.328 57,92.52 57.096,92.712 C57.384,93.768 58.152,95.784 58.536,96.552 C58.92,97.32 59.784,97.608 60.552,97.416 C62.472,96.84 66.216,96.648 69.96,96.648 L142.056,96.648 C143.112,96.648 143.496,96.072 143.496,95.4 Z M141,124.68 C141,125.544 140.328,126.12 139.176,126.12 C138.888,126.12 138.408,126.024 138.024,125.928 C136.776,125.544 136.104,125.352 135.24,125.352 C134.76,125.352 134.28,125.448 133.608,125.544 C126.216,126.6 114.12,127.944 101.16,127.944 C97.8,127.944 94.44,127.848 91.08,127.656 C89.928,127.56 89.448,127.08 89.448,126.504 C89.448,126.024 89.928,125.448 90.984,125.256 C107.112,121.992 119.496,116.808 124.2,113.256 C124.872,112.776 125.256,112.392 125.832,112.392 C126.12,112.392 126.504,112.488 127.08,112.872 C130.824,115.272 136.392,119.688 139.752,122.568 C140.616,123.24 141,124.008 141,124.68 Z M121.8,139.944 C121.8,144.552 118.248,147.144 114.792,147.144 C112.296,147.144 109.896,145.8 109.032,142.728 C108.84,141.96 108.744,141.192 108.744,140.424 C108.744,138.6 109.32,136.872 109.32,135.048 C109.32,133.416 108.84,131.784 107.4,129.768 C107.304,129.576 107.208,129.384 107.208,129.192 C107.208,128.712 107.496,128.328 108.168,128.328 C108.264,128.328 108.456,128.424 108.648,128.424 C114.024,129.384 120.84,133.416 121.704,138.312 C121.8,138.888 121.8,139.464 121.8,139.944 Z M106.632,143.304 C106.632,147.72 103.176,150.12 99.816,150.12 C97.032,150.12 94.344,148.488 93.576,145.32 C93.384,144.264 93.288,143.4 93.288,142.536 C93.288,141.096 93.48,139.848 93.48,138.6 C93.48,136.584 93,134.472 90.792,131.784 C90.6,131.496 90.408,131.112 90.408,130.92 C90.408,130.344 90.792,130.056 91.464,130.056 C91.56,130.056 91.752,130.152 91.944,130.152 C99.624,132.072 105.672,135.72 106.536,142.056 C106.632,142.44 106.632,142.92 106.632,143.304 Z M92.712,116.808 C92.712,117.576 92.136,118.44 90.888,118.728 C89.256,119.112 88.68,120.072 88.584,121.224 C88.392,123.624 88.296,133.416 88.296,146.28 C88.296,160.296 88.392,177.96 88.776,193.416 C88.776,195.72 87.048,197.064 83.016,197.544 C82.44,197.64 81.864,197.736 81.192,197.736 L79.848,197.736 C75.72,197.736 74.184,196.584 74.184,194.376 C74.376,184.68 74.568,172.776 74.664,161.256 C72.072,167.016 67.848,173.256 65.16,177 C64.488,177.864 64.584,178.44 64.392,180.072 C64.296,181.32 63.528,181.992 62.76,181.992 C62.088,181.992 61.416,181.416 61.128,180.36 C59.784,174.888 58.152,167.496 57.192,162.12 C57.096,161.64 57.096,161.352 57.096,161.064 C57.096,160.392 57.48,160.392 59.208,160.2 C62.184,159.816 69.288,158.28 74.664,155.4 L74.664,143.688 C74.28,147.336 71.4,149.064 68.424,149.064 C65.64,149.064 62.76,147.528 61.608,144.552 C61.224,143.688 61.128,142.824 61.128,141.96 C61.128,139.752 61.992,137.736 61.992,135.144 C61.992,132.84 61.416,130.248 59.016,126.888 C58.92,126.696 58.824,126.504 58.824,126.216 C58.824,125.736 59.208,125.256 59.88,125.256 C59.976,125.256 60.168,125.256 60.36,125.352 C67.56,128.424 72.84,132.36 74.664,137.832 C74.664,126.984 74.568,118.056 74.376,116.616 C74.088,114.888 73.992,113.928 73.992,113.448 C73.992,112.872 74.088,112.776 74.472,112.776 C74.664,112.776 74.856,112.872 75.24,112.872 C80.424,113.352 86.184,114.216 90.984,115.08 C92.136,115.272 92.712,116.04 92.712,116.808 Z M143.592,160.68 C143.592,161.352 143.304,161.832 142.152,161.832 L131.688,161.832 C131.688,170.088 131.784,180.744 131.976,186.984 L131.976,187.272 C131.976,193.512 128.616,196.584 116.136,197.64 L115.464,197.64 C114.408,197.64 113.928,197.448 113.832,196.488 C113.064,188.424 111.624,187.56 104.328,184.392 C103.656,184.104 103.368,183.624 103.368,183.144 C103.368,182.568 103.848,182.088 104.808,182.088 L105,182.088 C108.264,182.28 111.528,182.472 115.08,182.568 L115.272,182.568 C116.904,182.568 117.192,181.512 117.288,180.168 C117.384,177.768 117.48,173.832 117.48,169.608 C117.48,167.016 117.48,164.328 117.384,161.832 L102.024,161.832 C98.28,161.832 94.44,162.024 92.52,162.6 C91.752,162.792 90.888,162.504 90.504,161.736 C90.12,160.968 89.544,159.048 89.256,157.992 C89.16,157.704 89.16,157.608 89.16,157.416 C89.16,157.128 89.352,157.032 89.64,157.032 C89.832,157.032 90.12,157.032 90.504,157.128 C93.384,157.992 98.376,158.376 101.928,158.376 L117.288,158.376 C117.192,155.4 117,153 116.808,151.656 C116.52,150.216 116.328,149.256 116.328,148.68 C116.328,148.008 116.616,147.816 117.288,147.816 C117.48,147.816 117.768,147.912 118.056,147.912 C119.016,148.008 119.976,148.2 121.32,148.392 C123.336,142.344 125.448,133.128 125.544,128.424 C125.544,127.464 125.64,127.176 126.216,127.176 C126.504,127.176 126.792,127.272 127.272,127.368 C131.4,128.424 137.64,130.248 141.48,131.592 C142.344,131.88 142.824,132.648 142.824,133.32 C142.824,134.184 142.152,134.952 140.904,135.048 C139.944,135.048 138.888,135.432 138.312,136.104 C134.76,141 130.344,145.512 125.352,148.872 C127.656,149.16 131.208,149.544 133.224,149.832 C134.376,150.024 135.048,150.696 135.048,151.464 C135.048,152.136 134.472,152.904 133.32,153.384 C132.072,153.864 131.784,154.536 131.784,155.4 L131.784,158.376 C132.168,158.376 132.36,158.088 132.744,157.512 C133.608,155.976 134.856,153.96 136.104,152.136 C136.392,151.752 136.68,151.56 137.064,151.56 C137.352,151.56 137.736,151.752 138.024,152.136 C139.752,154.344 141.864,157.224 143.208,159.432 C143.4,159.816 143.592,160.296 143.592,160.68 Z M110.76,174.792 C110.76,178.92 107.016,181.608 103.368,181.608 C101.064,181.608 98.76,180.456 97.512,178.056 C96.84,176.808 96.744,175.848 96.744,174.888 C96.744,173.64 97.032,172.488 97.032,171.24 C97.032,169.608 96.456,167.784 93.864,165.096 C93.576,164.808 93.48,164.424 93.48,164.136 C93.48,163.752 93.768,163.368 94.44,163.368 L94.824,163.368 C102.216,164.712 108.552,166.632 110.376,172.296 C110.664,173.16 110.76,174.024 110.76,174.792 Z" id="path-6"></path>
        <filter x="-39.3%" y="-18.9%" width="178.5%" height="137.8%" filterUnits="objectBoundingBox" id="filter-7">
            <feOffset dx="0" dy="0" in="SourceAlpha" result="shadowOffsetOuter1"></feOffset>
            <feGaussianBlur stdDeviation="10" in="shadowOffsetOuter1" result="shadowBlurOuter1"></feGaussianBlur>
            <feColorMatrix values="0 0 0 0 1   0 0 0 0 1   0 0 0 0 1  0 0 0 1 0" type="matrix" in="shadowBlurOuter1" result="shadowMatrixOuter1"></feColorMatrix>
            <feOffset dx="0" dy="0" in="SourceAlpha" result="shadowOffsetOuter2"></feOffset>
            <feGaussianBlur stdDeviation="2" in="shadowOffsetOuter2" result="shadowBlurOuter2"></feGaussianBlur>
            <feColorMatrix values="0 0 0 0 0   0 0 0 0 1   0 0 0 0 0.392156863  0 0 0 1 0" type="matrix" in="shadowBlurOuter2" result="shadowMatrixOuter2"></feColorMatrix>
            <feMerge>
                <feMergeNode in="shadowMatrixOuter1"></feMergeNode>
                <feMergeNode in="shadowMatrixOuter2"></feMergeNode>
            </feMerge>
        </filter>
    </defs>
    <g id="Symbols" stroke="none" stroke-width="1" fill="none" fill-rule="evenodd">
        <g id="koma-vecter" transform="translate(28.000000, 24.000000)">
            <g id="ou-aite" transform="translate(1.000000, 8.000000)">
                <mask id="mask-2" fill="white">
                    <use xlink:href="#path-1"></use>
                </mask>
                <g id="Polygon" transform="translate(100.000000, 120.000000) scale(-1, -1) translate(-100.000000, -120.000000) ">
                    <use fill="black" fill-opacity="1" filter="url(#filter-3)" xlink:href="#path-1"></use>
                    <use stroke="#00FF64" stroke-width="3" fill="#000000" fill-rule="evenodd" xlink:href="#path-1"></use>
                </g>
                <mask id="mask-5" fill="white">
                    <use xlink:href="#path-4"></use>
                </mask>
                <use id="Polygon-Copy" stroke="#00FF64" stroke-width="3" fill="#000000" transform="translate(100.000000, 110.000000) scale(-1, -1) translate(-100.000000, -110.000000) " xlink:href="#path-4"></use>
                <g id="ou-copy" mask="url(#mask-5)" transform="translate(100.296000, 107.868000) scale(-1, -1) translate(-100.296000, -107.868000) ">
                    <use fill="black" fill-opacity="1" filter="url(#filter-7)" xlink:href="#path-6"></use>
                    <use fill="#0A3208" fill-rule="evenodd" xlink:href="#path-6"></use>
                </g>
            </g>
        </g>
    </g>
</svg>