<?xml version="1.0" encoding="UTF-8"?>
<svg width="248px" height="280px" viewBox="0 0 248 280" version="1.1" xmlns="http://www.w3.org/2000/svg" xmlns:xlink="http://www.w3.org/1999/xlink">
    <!-- Generator: Sketch 47.1 (45422) - http://www.bohemiancoding.com/sketch -->
    <title>kin aite</title>
    <desc>Created with Sketch.</desc>
    <defs>
        <polygon id="path-1" points="95 0 152 17.2213881 190 220.282158 0 220.282158 38 17.2213881"></polygon>
        <filter x="-37.6%" y="-31.6%" width="175.3%" height="164.9%" filterUnits="objectBoundingBox" id="filter-3">
            <feMorphology radius="1.5" operator="dilate" in="SourceAlpha" result="shadowSpreadOuter1"></feMorphology>
            <feOffset dx="0" dy="1" in="shadowSpreadOuter1" result="shadowOffsetOuter1"></feOffset>
            <feGaussianBlur stdDeviation="15.5" in="shadowOffsetOuter1" result="shadowBlurOuter1"></feGaussianBlur>
            <feComposite in="shadowBlurOuter1" in2="SourceAlpha" operator="out" result="shadowBlurOuter1"></feComposite>
            <feColorMatrix values="0 0 0 0 0   0 0 0 0 1   0 0 0 0 0  0 0 0 1 0" type="matrix" in="shadowBlurOuter1" result="shadowMatrixOuter1"></feColorMatrix>
            <feMorphology radius="1.5" operator="dilate" in="SourceAlpha" result="shadowSpreadOuter2"></feMorphology>
            <feOffset dx="0" dy="1" in="shadowSpreadOuter2" result="shadowOffsetOuter2"></feOffset>
            <feGaussianBlur stdDeviation="11.5" in="shadowOffsetOuter2" result="shadowBlurOuter2"></feGaussianBlur>
            <feComposite in="shadowBlurOuter2" in2="SourceAlpha" operator="out" result="shadowBlurOuter2"></feComposite>
            <feColorMatrix values="0 0 0 0 1   0 0 0 0 1   0 0 0 0 1  0 0 0 1 0" type="matrix" in="shadowBlurOuter2" result="shadowMatrixOuter2"></feColorMatrix>
            <feMerge>
                <feMergeNode in="shadowMatrixOuter1"></feMergeNode>
                <feMergeNode in="shadowMatrixOuter2"></feMergeNode>
            </feMerge>
        </filter>
        <polygon id="path-4" points="95 -10 152 7.22138813 190 210.282158 0 210.282158 38 7.22138813"></polygon>
        <path d="M134.288,90.656 C134.288,91.272 133.936,91.712 132.88,91.712 L66.792,91.712 C63.36,91.712 59.928,91.888 58.168,92.416 C57.464,92.592 56.672,92.328 56.32,91.624 C55.968,90.92 55.352,89.248 55.088,88.28 C55,88.104 55,87.928 55,87.84 C55,87.488 55.176,87.312 55.44,87.312 C55.704,87.312 55.968,87.4 56.32,87.488 C58.96,88.28 63.536,88.632 66.792,88.632 L85.272,88.632 C85.36,82.824 85.36,76.4 85.36,70.064 L85.36,62.232 L70.048,62.232 C66.616,62.232 63.184,62.408 61.424,62.936 C60.72,63.112 59.928,62.848 59.576,62.144 C59.224,61.44 58.608,59.68 58.344,58.712 C58.256,58.536 58.256,58.36 58.256,58.272 C58.256,57.92 58.432,57.832 58.784,57.832 C58.96,57.832 59.224,57.832 59.576,57.92 C62.216,58.712 66.792,59.064 70.048,59.064 L85.36,59.064 C85.36,55.192 85.36,51.496 85.272,48.152 L84.128,48.152 C81.136,48.152 77.88,48.328 76.12,48.856 C75.416,49.032 74.624,48.768 74.272,48.064 C74.184,47.888 74.096,47.624 73.92,47.272 C68.728,49.824 62.92,51.584 56.408,52.816 L56.056,52.816 C55.44,52.816 55.088,52.464 55.088,52.024 C55.088,51.672 55.352,51.232 55.792,50.968 C70.224,41.376 79.376,27.912 82.456,18.408 C82.808,17.44 82.632,17 83.424,17 C83.6,17 83.952,17 84.304,17.088 C89.408,17.704 96.096,18.408 101.2,19.376 C102.168,19.552 102.784,20.256 102.784,21.048 C102.784,21.664 102.256,22.456 100.936,22.72 C100.32,22.896 99.792,22.984 99.44,23.072 C107.712,30.552 117.568,34.16 132.968,35.128 C133.848,35.216 134.288,35.744 134.288,36.272 C134.288,36.888 133.936,37.504 133.232,37.856 C129.976,39.792 129.184,41.64 128.744,50.528 C128.656,51.408 128.128,51.672 127.6,51.672 C127.336,51.672 127.072,51.672 126.808,51.584 C112.64,47.8 103.136,39.264 96.976,25.448 C92.224,33.808 86.152,40.056 78.584,44.72 C80.696,44.984 82.896,45.072 84.744,45.072 L92.488,45.072 C93.368,45.072 93.896,44.896 94.512,44.28 C96.272,42.432 98.56,40.232 100.408,38.208 C100.76,37.856 101.024,37.68 101.376,37.68 C101.728,37.68 102.168,37.856 102.52,38.12 C105.248,40.232 108.328,42.696 111.496,45.776 C111.936,46.128 112.2,46.656 112.2,47.096 C112.2,47.712 111.76,48.152 110.704,48.152 L99.704,48.152 C99.616,51.408 99.616,55.104 99.616,59.064 L108.328,59.064 C109.208,59.064 109.824,58.976 110.352,58.272 C112.2,56.248 114.488,53.696 116.424,51.672 C116.688,51.408 117.04,51.232 117.48,51.232 C117.832,51.232 118.272,51.408 118.624,51.672 C121.352,53.696 125.048,56.952 128.304,59.768 C128.656,60.12 128.92,60.56 128.92,61.088 C128.92,61.704 128.48,62.232 127.512,62.232 L99.616,62.232 C99.616,70.944 99.616,80.36 99.704,88.632 L112.728,88.632 C113.696,88.632 114.224,88.368 114.752,87.84 C116.776,85.376 119.328,82.384 121.352,79.92 C121.616,79.656 121.968,79.48 122.32,79.48 C122.672,79.48 123.112,79.656 123.464,79.92 C126.984,82.56 130.328,85.64 133.672,89.248 C134.024,89.6 134.288,90.216 134.288,90.656 Z M82.016,78.16 C82.016,83.352 78.496,86.256 74.976,86.256 C72.424,86.256 69.872,84.672 68.904,81.328 C67.408,76.488 69.432,71.384 64.416,66.544 C63.624,65.752 63.8,64.608 64.944,64.608 C65.032,64.608 65.208,64.696 65.384,64.696 C73.92,66.016 81.488,69.712 82.016,77.28 L82.016,78.16 Z M125.312,69.976 C125.312,70.768 124.608,71.56 123.288,71.824 C121.616,72.088 120.912,72.176 120.296,73.056 C116.952,77.808 110,84.144 102.608,87.048 C102.432,87.136 102.256,87.136 102.08,87.136 C101.464,87.136 101.024,86.872 101.024,86.344 C101.024,86.168 101.112,85.992 101.2,85.816 C104.544,79.656 106.92,71.648 107.536,65.664 C107.712,64.608 107.8,64.168 108.416,64.168 C108.592,64.168 108.768,64.168 109.032,64.256 C113.96,65.4 118.976,66.632 123.64,68.216 C124.784,68.568 125.312,69.272 125.312,69.976 Z M132,117.824 C132,118.616 131.384,119.144 130.328,119.144 C130.064,119.144 129.624,119.056 129.272,118.968 C128.128,118.616 127.512,118.44 126.72,118.44 C126.28,118.44 125.84,118.528 125.224,118.616 C118.448,119.584 107.36,120.816 95.48,120.816 C92.4,120.816 89.32,120.728 86.24,120.552 C85.184,120.464 84.744,120.024 84.744,119.496 C84.744,119.056 85.184,118.528 86.152,118.352 C100.936,115.36 112.288,110.608 116.6,107.352 C117.216,106.912 117.568,106.56 118.096,106.56 C118.36,106.56 118.712,106.648 119.24,107 C122.672,109.2 127.776,113.248 130.856,115.888 C131.648,116.504 132,117.208 132,117.824 Z M114.4,131.816 C114.4,136.04 111.144,138.416 107.976,138.416 C105.688,138.416 103.488,137.184 102.696,134.368 C102.52,133.664 102.432,132.96 102.432,132.256 C102.432,130.584 102.96,129 102.96,127.328 C102.96,125.832 102.52,124.336 101.2,122.488 C101.112,122.312 101.024,122.136 101.024,121.96 C101.024,121.52 101.288,121.168 101.904,121.168 C101.992,121.168 102.168,121.256 102.344,121.256 C107.272,122.136 113.52,125.832 114.312,130.32 C114.4,130.848 114.4,131.376 114.4,131.816 Z M100.496,134.896 C100.496,138.944 97.328,141.144 94.248,141.144 C91.696,141.144 89.232,139.648 88.528,136.744 C88.352,135.776 88.264,134.984 88.264,134.192 C88.264,132.872 88.44,131.728 88.44,130.584 C88.44,128.736 88,126.8 85.976,124.336 C85.8,124.072 85.624,123.72 85.624,123.544 C85.624,123.016 85.976,122.752 86.592,122.752 C86.68,122.752 86.856,122.84 87.032,122.84 C94.072,124.6 99.616,127.944 100.408,133.752 C100.496,134.104 100.496,134.544 100.496,134.896 Z M87.736,110.608 C87.736,111.312 87.208,112.104 86.064,112.368 C84.568,112.72 84.04,113.6 83.952,114.656 C83.776,116.856 83.688,125.832 83.688,137.624 C83.688,150.472 83.776,166.664 84.128,180.832 C84.128,182.944 82.544,184.176 78.848,184.616 C78.32,184.704 77.792,184.792 77.176,184.792 L75.944,184.792 C72.16,184.792 70.752,183.736 70.752,181.712 C70.928,172.824 71.104,161.912 71.192,151.352 C68.816,156.632 64.944,162.352 62.48,165.784 C61.864,166.576 61.952,167.104 61.776,168.6 C61.688,169.744 60.984,170.36 60.28,170.36 C59.664,170.36 59.048,169.832 58.784,168.864 C57.552,163.848 56.056,157.072 55.176,152.144 C55.088,151.704 55.088,151.44 55.088,151.176 C55.088,150.56 55.44,150.56 57.024,150.384 C59.752,150.032 66.264,148.624 71.192,145.984 L71.192,135.248 C70.84,138.592 68.2,140.176 65.472,140.176 C62.92,140.176 60.28,138.768 59.224,136.04 C58.872,135.248 58.784,134.456 58.784,133.664 C58.784,131.64 59.576,129.792 59.576,127.416 C59.576,125.304 59.048,122.928 56.848,119.848 C56.76,119.672 56.672,119.496 56.672,119.232 C56.672,118.792 57.024,118.352 57.64,118.352 C57.728,118.352 57.904,118.352 58.08,118.44 C64.68,121.256 69.52,124.864 71.192,129.88 C71.192,119.936 71.104,111.752 70.928,110.432 C70.664,108.848 70.576,107.968 70.576,107.528 C70.576,107 70.664,106.912 71.016,106.912 C71.192,106.912 71.368,107 71.72,107 C76.472,107.44 81.752,108.232 86.152,109.024 C87.208,109.2 87.736,109.904 87.736,110.608 Z M134.376,150.824 C134.376,151.44 134.112,151.88 133.056,151.88 L123.464,151.88 C123.464,159.448 123.552,169.216 123.728,174.936 L123.728,175.2 C123.728,180.92 120.648,183.736 109.208,184.704 L108.592,184.704 C107.624,184.704 107.184,184.528 107.096,183.648 C106.392,176.256 105.072,175.464 98.384,172.56 C97.768,172.296 97.504,171.856 97.504,171.416 C97.504,170.888 97.944,170.448 98.824,170.448 L99,170.448 C101.992,170.624 104.984,170.8 108.24,170.888 L108.416,170.888 C109.912,170.888 110.176,169.92 110.264,168.688 C110.352,166.488 110.44,162.88 110.44,159.008 C110.44,156.632 110.44,154.168 110.352,151.88 L96.272,151.88 C92.84,151.88 89.32,152.056 87.56,152.584 C86.856,152.76 86.064,152.496 85.712,151.792 C85.36,151.088 84.832,149.328 84.568,148.36 C84.48,148.096 84.48,148.008 84.48,147.832 C84.48,147.568 84.656,147.48 84.92,147.48 C85.096,147.48 85.36,147.48 85.712,147.568 C88.352,148.36 92.928,148.712 96.184,148.712 L110.264,148.712 C110.176,145.984 110,143.784 109.824,142.552 C109.56,141.232 109.384,140.352 109.384,139.824 C109.384,139.208 109.648,139.032 110.264,139.032 C110.44,139.032 110.704,139.12 110.968,139.12 C111.848,139.208 112.728,139.384 113.96,139.56 C115.808,134.016 117.744,125.568 117.832,121.256 C117.832,120.376 117.92,120.112 118.448,120.112 C118.712,120.112 118.976,120.2 119.416,120.288 C123.2,121.256 128.92,122.928 132.44,124.16 C133.232,124.424 133.672,125.128 133.672,125.744 C133.672,126.536 133.056,127.24 131.912,127.328 C131.032,127.328 130.064,127.68 129.536,128.296 C126.28,132.784 122.232,136.92 117.656,140 C119.768,140.264 123.024,140.616 124.872,140.88 C125.928,141.056 126.544,141.672 126.544,142.376 C126.544,142.992 126.016,143.696 124.96,144.136 C123.816,144.576 123.552,145.192 123.552,145.984 L123.552,148.712 C123.904,148.712 124.08,148.448 124.432,147.92 C125.224,146.512 126.368,144.664 127.512,142.992 C127.776,142.64 128.04,142.464 128.392,142.464 C128.656,142.464 129.008,142.64 129.272,142.992 C130.856,145.016 132.792,147.656 134.024,149.68 C134.2,150.032 134.376,150.472 134.376,150.824 Z M104.28,163.76 C104.28,167.544 100.848,170.008 97.504,170.008 C95.392,170.008 93.28,168.952 92.136,166.752 C91.52,165.608 91.432,164.728 91.432,163.848 C91.432,162.704 91.696,161.648 91.696,160.504 C91.696,159.008 91.168,157.336 88.792,154.872 C88.528,154.608 88.44,154.256 88.44,153.992 C88.44,153.64 88.704,153.288 89.32,153.288 L89.672,153.288 C96.448,154.52 102.256,156.28 103.928,161.472 C104.192,162.264 104.28,163.056 104.28,163.76 Z" id="path-6"></path>
        <filter x="-42.8%" y="-20.3%" width="185.7%" height="140.5%" filterUnits="objectBoundingBox" id="filter-7">
            <feOffset dx="0" dy="0" in="SourceAlpha" result="shadowOffsetOuter1"></feOffset>
            <feGaussianBlur stdDeviation="10" in="shadowOffsetOuter1" result="shadowBlurOuter1"></feGaussianBlur>
            <feColorMatrix values="0 0 0 0 1   0 0 0 0 1   0 0 0 0 1  0 0 0 1 0" type="matrix" in="shadowBlurOuter1" result="shadowMatrixOuter1"></feColorMatrix>
            <feOffset dx="0" dy="0" in="SourceAlpha" result="shadowOffsetOuter2"></feOffset>
            <feGaussianBlur stdDeviation="2" in="shadowOffsetOuter2" result="shadowBlurOuter2"></feGaussianBlur>
            <feColorMatrix values="0 0 0 0 0   0 0 0 0 1   0 0 0 0 0.392156863  0 0 0 1 0" type="matrix" in="shadowBlurOuter2" result="shadowMatrixOuter2"></feColorMatrix>
            <feMerge>
                <feMergeNode in="shadowMatrixOuter1"></feMergeNode>
                <feMergeNode in="shadowMatrixOuter2"></feMergeNode>
            </feMerge>
        </filter>
    </defs>
    <g id="Symbols" stroke="none" stroke-width="1" fill="none" fill-rule="evenodd">
        <g id="koma-vecter" transform="translate(28.000000, 24.000000)">
            <g id="kin-aite" transform="translate(1.000000, 8.000000)">
                <mask id="mask-2" fill="white">
                    <use xlink:href="#path-1"></use>
                </mask>
                <g id="Polygon" transform="translate(95.000000, 110.141079) scale(-1, -1) translate(-95.000000, -110.141079) ">
                    <use fill="black" fill-opacity="1" filter="url(#filter-3)" xlink:href="#path-1"></use>
                    <use stroke="#00FF64" stroke-width="3" fill="#000000" fill-rule="evenodd" xlink:href="#path-1"></use>
                </g>
                <mask id="mask-5" fill="white">
                    <use xlink:href="#path-4"></use>
                </mask>
                <use id="Polygon-Copy-4" stroke="#00FF64" stroke-width="3" fill="#000000" transform="translate(95.000000, 100.141079) scale(-1, -1) translate(-95.000000, -100.141079) " xlink:href="#path-4"></use>
                <g id="kin" mask="url(#mask-5)" transform="translate(94.688000, 100.896000) scale(-1, -1) translate(-94.688000, -100.896000) ">
                    <use fill="black" fill-opacity="1" filter="url(#filter-7)" xlink:href="#path-6"></use>
                    <use fill="#0A3208" fill-rule="evenodd" xlink:href="#path-6"></use>
                </g>
            </g>
        </g>
    </g>
</svg>