<?xml version="1.0" encoding="UTF-8"?>
<svg width="242px" height="275px" viewBox="0 0 242 275" version="1.1" xmlns="http://www.w3.org/2000/svg" xmlns:xlink="http://www.w3.org/1999/xlink">
    <!-- Generator: Sketch 47.1 (45422) - http://www.bohemiancoding.com/sketch -->
    <title>narigin-aite</title>
    <desc>Created with Sketch.</desc>
    <defs>
        <polygon id="path-1" points="92 0 147.2 16.7854036 184 214.705394 0 214.705394 36.8 16.7854036"></polygon>
        <filter x="-38.9%" y="-32.4%" width="177.7%" height="166.6%" filterUnits="objectBoundingBox" id="filter-3">
            <feMorphology radius="1.5" operator="dilate" in="SourceAlpha" result="shadowSpreadOuter1"></feMorphology>
            <feOffset dx="0" dy="1" in="shadowSpreadOuter1" result="shadowOffsetOuter1"></feOffset>
            <feGaussianBlur stdDeviation="15.5" in="shadowOffsetOuter1" result="shadowBlurOuter1"></feGaussianBlur>
            <feComposite in="shadowBlurOuter1" in2="SourceAlpha" operator="out" result="shadowBlurOuter1"></feComposite>
            <feColorMatrix values="0 0 0 0 0   0 0 0 0 1   0 0 0 0 0  0 0 0 1 0" type="matrix" in="shadowBlurOuter1" result="shadowMatrixOuter1"></feColorMatrix>
            <feMorphology radius="1.5" operator="dilate" in="SourceAlpha" result="shadowSpreadOuter2"></feMorphology>
            <feOffset dx="0" dy="1" in="shadowSpreadOuter2" result="shadowOffsetOuter2"></feOffset>
            <feGaussianBlur stdDeviation="11.5" in="shadowOffsetOuter2" result="shadowBlurOuter2"></feGaussianBlur>
            <feComposite in="shadowBlurOuter2" in2="SourceAlpha" operator="out" result="shadowBlurOuter2"></feComposite>
            <feColorMatrix values="0 0 0 0 1   0 0 0 0 1   0 0 0 0 1  0 0 0 1 0" type="matrix" in="shadowBlurOuter2" result="shadowMatrixOuter2"></feColorMatrix>
            <feMerge>
                <feMergeNode in="shadowMatrixOuter1"></feMergeNode>
                <feMergeNode in="shadowMatrixOuter2"></feMergeNode>
            </feMerge>
        </filter>
        <polygon id="path-4" points="92 -8 147.2 8.78540362 184 206.705394 0 206.705394 36.8 8.78540362"></polygon>
        <path d="M130.265,87.85 C130.265,91.42 127.63,94.225 123.55,94.225 C122.02,94.225 120.32,93.885 118.45,92.95 C112.16,89.805 107.4,85.64 103.83,80.37 C96.69,86.15 87.51,90.4 75.44,92.525 L75.1,92.525 C73.91,92.525 73.825,91.335 74.845,90.91 C84.365,86.065 92.695,79.35 99.24,71.36 C97.115,65.75 95.67,59.375 94.65,52.065 C94.48,52.405 94.14,52.745 93.715,53 C92.355,53.935 92.015,54.105 91.93,56.4 C91.76,60.14 91.675,68.3 90.23,74.25 C89.125,78.925 84.62,80.88 78.585,81.73 C78.33,81.73 78.075,81.815 77.905,81.815 C76.97,81.815 76.715,81.39 76.545,80.455 C76.035,75.27 75.95,72.975 71.7,70.765 C68.725,82.58 61.67,89.38 54.615,93.8 C54.19,94.055 53.85,94.14 53.595,94.14 C53.255,94.14 53,93.885 53,93.46 C53,93.12 53.17,92.78 53.34,92.27 C56.57,84.875 58.695,78.585 59.97,67.025 C60.565,61.67 60.82,54.445 60.82,47.815 C60.82,40.165 60.48,33.28 59.97,31.24 C59.715,30.22 59.63,29.455 59.63,29.03 C59.63,28.35 59.8,28.18 60.14,28.18 C60.48,28.18 60.735,28.265 61.16,28.435 C65.24,29.795 70.51,31.58 74.93,33.45 L93.035,33.45 C92.865,29.625 92.695,25.63 92.525,21.465 C92.44,20.7 92.185,20.02 92.185,19.51 C92.185,19.17 92.355,19 92.95,19 L93.29,19 C97.2,19.34 102.215,19.85 105.785,20.53 C105.615,20.36 105.615,20.105 105.615,19.935 C105.615,19.51 105.955,19.255 106.72,19.255 L106.89,19.255 C112.16,19.51 117.43,20.36 118.96,24.78 C119.215,25.545 119.3,26.225 119.3,26.82 C119.3,27.84 119.045,28.775 118.62,29.54 C119.13,28.945 119.64,28.435 120.235,27.84 C120.83,27.245 121.425,27.245 122.19,27.84 C124.57,29.71 126.95,31.665 129.245,34.3 C129.5,34.555 129.755,35.15 129.755,35.575 C129.755,36 129.5,36.425 128.48,36.425 L105.445,36.425 C105.87,44.925 106.635,52.575 107.995,58.44 C110.29,53.935 112.33,48.58 113.605,43.48 C113.775,42.545 113.69,41.695 114.37,41.695 C114.54,41.695 114.795,41.78 115.05,41.865 C119.13,43.48 123.55,45.435 127.29,47.39 C128.14,47.9 128.565,48.495 128.565,49.09 C128.565,49.94 127.8,50.62 126.525,50.62 C124.825,50.62 124.4,50.79 123.89,51.895 C120.83,58.78 117.515,65.07 113.265,70.68 C114.88,73.06 116.835,75.1 119.13,76.97 C119.81,77.565 120.405,77.82 120.915,77.82 C121.51,77.82 122.105,77.395 122.445,76.63 C124.06,73.57 125.505,70.51 126.78,67.28 C127.12,66.345 127.545,65.92 127.97,65.92 C128.395,65.92 128.735,66.43 128.735,67.45 L128.735,67.96 C127.97,72.465 127.375,75.695 127.375,78.16 C127.375,80.03 127.715,81.56 128.65,82.92 C129.755,84.62 130.265,86.32 130.265,87.85 Z M116.665,31.58 C115.73,32.175 114.625,32.43 113.52,32.43 C111.82,32.43 110.205,31.75 109.1,29.965 C107.74,27.84 108.845,25.545 107.825,23.165 C107.57,23.42 107.23,23.675 106.72,23.845 C105.53,24.355 105.19,24.525 105.19,26.225 C105.19,28.775 105.275,31.155 105.36,33.45 L113.52,33.45 C114.795,33.45 115.475,32.77 116.665,31.58 Z M94.31,49.43 C93.885,45.35 93.545,41.015 93.205,36.425 L73.74,36.425 L73.74,48.495 L77.82,48.495 C78.755,48.495 79.265,48.24 79.69,47.815 C80.71,46.88 82.835,45.095 84.365,43.735 C84.62,43.48 85.045,43.31 85.47,43.31 C85.895,43.31 86.235,43.395 86.745,43.735 C89.38,45.435 92.695,47.815 94.31,49.43 Z M80.115,53.85 L80.115,51.47 L73.655,51.47 C73.485,57.59 73.06,63.71 72.21,68.64 C73.485,68.81 75.1,68.98 76.46,68.98 C78.755,68.98 79.01,68.81 79.435,66.005 C79.945,62.35 80.115,58.1 80.115,53.85 Z M129.585,165.88 C126.44,167.325 125.335,169.79 124.57,177.78 C124.485,178.63 123.975,179.14 123.38,179.14 C123.21,179.14 122.955,179.14 122.785,178.97 C117.26,175.825 113.01,170.555 110.035,162.905 C103.235,168.94 96.945,172.595 90.57,175.74 C89.89,176.08 89.21,176.165 89.125,177.355 C89.04,178.63 88.36,179.225 87.68,179.225 C87.085,179.225 86.405,178.715 86.15,177.78 C84.875,173.53 83.6,170.13 82.41,165.965 C82.325,165.625 82.24,165.285 82.24,165.115 C82.24,164.605 82.495,164.52 82.835,164.52 C83.09,164.52 83.345,164.605 83.6,164.605 C85.13,164.52 87.425,164.35 89.635,164.095 C89.805,159.165 89.72,153.64 89.805,148.115 C88.615,148.115 88.275,148.455 87.765,149.135 C85.3,152.365 82.155,156.53 77.565,159.675 C77.31,159.845 77.055,159.93 76.885,159.93 L76.885,160.61 C80.455,159.93 84.195,159.165 88.105,158.23 L88.36,158.23 C88.87,158.23 89.125,158.655 89.125,159.165 C89.125,159.42 88.955,159.76 88.7,160.015 C79.265,167.24 69.915,172.425 61.16,175.4 C60.395,175.655 60.14,175.995 59.885,177.27 C59.63,178.545 59.035,179.225 58.44,179.225 C57.845,179.225 57.25,178.63 56.995,177.61 C55.72,173.19 54.445,168.94 53.595,164.86 C53.425,164.35 53.34,164.01 53.34,163.755 C53.34,163.245 53.765,163.245 55.295,163.245 C57.76,163.16 61.245,162.905 65.325,162.395 C65.325,160.78 65.41,159.08 65.41,157.465 C64.475,159.165 62.605,160.1 60.905,160.1 C58.95,160.1 57.08,158.995 56.655,156.445 C56.57,155.85 56.485,155.255 56.485,154.745 C56.485,152.79 57.08,151.175 57.08,149.305 C57.08,147.775 56.655,146.075 55.38,143.865 C55.295,143.61 55.21,143.44 55.21,143.27 C55.21,142.93 55.55,142.675 55.975,142.675 C56.23,142.675 56.4,142.76 56.655,142.845 C61.67,145.31 64.39,148.455 65.495,151.855 C65.495,148.115 65.58,143.61 65.58,140.125 L64.9,140.125 C61.755,140.125 58.525,140.21 56.825,140.805 C56.145,140.975 55.465,140.72 55.125,140.04 C54.785,139.36 54.275,137.915 54.02,136.81 L54.02,136.385 C54.02,136.045 54.105,135.96 54.36,135.96 C54.615,135.96 54.785,135.96 55.125,136.045 C57.675,136.81 61.925,137.15 64.9,137.15 L65.58,137.15 C65.58,134.175 65.495,131.455 65.41,128.905 L61.585,128.905 C59.545,130.52 57.25,132.05 54.785,133.58 C54.53,133.75 54.275,133.835 54.105,133.835 C53.68,133.835 53.425,133.495 53.425,133.155 C53.425,132.9 53.425,132.73 53.595,132.475 C58.95,122.445 62.605,111.65 63.37,105.615 C63.54,104.425 63.455,104 64.135,104 C64.305,104 64.475,104.085 64.645,104.085 C69.065,104.51 74.93,105.275 79.18,105.955 C80.2,106.125 80.71,106.72 80.71,107.315 C80.71,107.995 80.2,108.59 79.18,108.845 C78.16,109.1 77.735,109.1 77.395,109.44 C83.94,110.885 88.02,112.67 89.125,117.6 C89.21,118.11 89.295,118.535 89.295,118.96 C89.295,122.275 86.405,124.655 83.6,124.655 C83.345,124.655 83.09,124.57 82.835,124.57 C83.6,125.335 84.45,126.1 85.13,126.865 C85.385,127.205 85.555,127.63 85.555,127.97 C85.555,128.48 85.215,128.905 84.535,128.905 L76.885,128.905 L76.885,137.15 C77.225,137.065 77.565,136.895 77.82,136.555 C78.84,135.195 80.455,133.41 81.815,131.795 C82.325,131.2 83.005,131.2 83.685,131.795 C85.64,133.495 87.595,135.535 89.805,138.17 L89.805,132.815 C89.805,120.235 89.55,109.695 88.87,107.485 C88.615,106.72 88.53,106.125 88.53,105.785 C88.53,105.105 88.785,104.85 89.295,104.85 C89.465,104.85 89.805,104.935 90.145,105.02 C95.84,106.72 103.065,109.61 103.065,109.61 L109.78,109.61 C110.545,109.61 111.055,109.44 111.48,109.015 C112.925,107.825 114.71,106.295 116.07,105.19 C116.58,104.765 117.515,104.765 118.365,105.19 C120.745,106.38 123.72,108.845 125.845,110.375 C126.61,110.885 126.95,111.565 126.95,112.245 C126.95,112.925 126.525,113.69 125.76,114.2 C124.06,115.305 123.635,115.645 123.635,117.09 C123.635,118.62 123.55,120.745 123.55,123.125 C123.55,127.97 123.635,134.005 123.89,138.68 L123.89,139.02 C123.89,141.4 122.02,142.59 118.45,142.845 C122.105,144.8 126.61,147.435 128.565,148.88 C129.16,149.305 129.5,149.9 129.5,150.41 C129.5,151.175 128.99,151.77 127.97,151.77 L127.545,151.77 C127.035,151.685 126.695,151.6 126.355,151.6 C125.845,151.6 125.42,151.855 124.74,152.365 C122.785,153.81 120.15,155.255 117.175,156.615 C120.405,159.76 124.4,162.055 129.33,163.67 C130.435,164.01 130.52,165.455 129.585,165.88 Z M111.65,122.53 C111.735,118.705 111.735,115.135 111.65,112.67 L101.96,112.67 C101.875,114.71 101.79,118.195 101.79,122.53 L111.65,122.53 Z M78.925,120.83 C77.82,117.345 79.435,115.39 75.95,111.82 C72.805,117.43 69.405,122.02 65.155,125.93 L71.445,125.93 C72.21,125.93 72.72,125.76 73.06,125.335 C74.165,123.975 75.695,122.105 77.055,120.66 C77.31,120.405 77.565,120.235 77.905,120.235 C78.245,120.235 78.585,120.405 78.925,120.83 Z M111.65,125.59 L101.705,125.59 L101.705,136.555 L111.48,136.555 C111.565,133.07 111.65,129.245 111.65,125.59 Z M116.24,142.93 C113.265,142.93 111.395,142.505 111.395,140.125 L111.395,139.615 L108.25,139.615 C109.525,144.97 111.395,149.22 113.86,152.79 C115.05,149.305 115.985,145.395 116.24,142.93 Z M89.805,145.48 L89.805,140.125 L76.885,140.125 C76.8,145.65 76.8,151.515 76.885,157.38 C78.415,152.195 79.265,147.265 79.35,143.44 L79.35,142.675 C79.35,142.25 79.435,141.995 79.86,141.995 C80.115,141.995 80.37,142.08 80.71,142.165 C83.515,143.1 86.745,144.205 89.805,145.48 Z M109.27,160.61 C107.4,154.915 106.21,147.945 105.53,139.615 L101.705,139.615 C101.705,147.01 101.79,154.915 101.79,162.225 C104.34,161.715 106.89,161.205 109.27,160.61 Z" id="path-6"></path>
        <filter x="-174.1%" y="-83.9%" width="448.2%" height="267.9%" filterUnits="objectBoundingBox" id="filter-7">
            <feOffset dx="0" dy="0" in="SourceAlpha" result="shadowOffsetOuter1"></feOffset>
            <feGaussianBlur stdDeviation="10" in="shadowOffsetOuter1" result="shadowBlurOuter1"></feGaussianBlur>
            <feColorMatrix values="0 0 0 0 1   0 0 0 0 1   0 0 0 0 1  0 0 0 1 0" type="matrix" in="shadowBlurOuter1" result="shadowMatrixOuter1"></feColorMatrix>
            <feOffset dx="0" dy="0" in="SourceAlpha" result="shadowOffsetOuter2"></feOffset>
            <feGaussianBlur stdDeviation="3.5" in="shadowOffsetOuter2" result="shadowBlurOuter2"></feGaussianBlur>
            <feColorMatrix values="0 0 0 0 1   0 0 0 0 0   0 0 0 0 0  0 0 0 1 0" type="matrix" in="shadowBlurOuter2" result="shadowMatrixOuter2"></feColorMatrix>
            <feOffset dx="0" dy="0" in="SourceAlpha" result="shadowOffsetOuter3"></feOffset>
            <feGaussianBlur stdDeviation="20" in="shadowOffsetOuter3" result="shadowBlurOuter3"></feGaussianBlur>
            <feColorMatrix values="0 0 0 0 1   0 0 0 0 1   0 0 0 0 1  0 0 0 1 0" type="matrix" in="shadowBlurOuter3" result="shadowMatrixOuter3"></feColorMatrix>
            <feOffset dx="0" dy="0" in="SourceAlpha" result="shadowOffsetOuter4"></feOffset>
            <feGaussianBlur stdDeviation="22.5" in="shadowOffsetOuter4" result="shadowBlurOuter4"></feGaussianBlur>
            <feColorMatrix values="0 0 0 0 1   0 0 0 0 0   0 0 0 0 0  0 0 0 1 0" type="matrix" in="shadowBlurOuter4" result="shadowMatrixOuter4"></feColorMatrix>
            <feMerge>
                <feMergeNode in="shadowMatrixOuter1"></feMergeNode>
                <feMergeNode in="shadowMatrixOuter2"></feMergeNode>
                <feMergeNode in="shadowMatrixOuter3"></feMergeNode>
                <feMergeNode in="shadowMatrixOuter4"></feMergeNode>
            </feMerge>
        </filter>
    </defs>
    <g id="Symbols" stroke="none" stroke-width="1" fill="none" fill-rule="evenodd">
        <g id="koma-vecter" transform="translate(28.000000, 24.000000)">
            <g id="narigin-aite" transform="translate(1.000000, 8.000000)">
                <mask id="mask-2" fill="white">
                    <use xlink:href="#path-1"></use>
                </mask>
                <g id="Polygon-Copy-14" transform="translate(92.000000, 107.352697) scale(-1, -1) translate(-92.000000, -107.352697) ">
                    <use fill="black" fill-opacity="1" filter="url(#filter-3)" xlink:href="#path-1"></use>
                    <use stroke="#00FF64" stroke-width="3" fill="#000000" fill-rule="evenodd" xlink:href="#path-1"></use>
                </g>
                <mask id="mask-5" fill="white">
                    <use xlink:href="#path-4"></use>
                </mask>
                <use id="Polygon-Copy-13" stroke="#00FF64" stroke-width="3" fill="#000000" transform="translate(92.000000, 99.352697) scale(-1, -1) translate(-92.000000, -99.352697) " xlink:href="#path-4"></use>
                <g id="kakukou-nari" mask="url(#mask-5)" transform="translate(91.632500, 99.112500) scale(-1, -1) translate(-91.632500, -99.112500) ">
                    <use fill="black" fill-opacity="1" filter="url(#filter-7)" xlink:href="#path-6"></use>
                    <use fill="#320D08" fill-rule="evenodd" xlink:href="#path-6"></use>
                </g>
            </g>
        </g>
    </g>
</svg>