<?xml version="1.0" encoding="UTF-8"?>
<svg width="262px" height="318px" viewBox="0 0 262 318" version="1.1" xmlns="http://www.w3.org/2000/svg" xmlns:xlink="http://www.w3.org/1999/xlink">
    <!-- Generator: Sketch 47.1 (45422) - http://www.bohemiancoding.com/sketch -->
    <title>gyoku</title>
    <desc>Created with Sketch.</desc>
    <defs>
        <path d="M100,0 L160,18.7629048 L200,240 L0,240 L40,18.7629048 L100,0 Z M0,240 L200,240 L200,258 L0,258 L0,240 Z" id="path-1"></path>
        <filter x="-35.8%" y="-26.9%" width="171.5%" height="155.4%" filterUnits="objectBoundingBox" id="filter-3">
            <feMorphology radius="1.5" operator="dilate" in="SourceAlpha" result="shadowSpreadOuter1"></feMorphology>
            <feOffset dx="0" dy="1" in="shadowSpreadOuter1" result="shadowOffsetOuter1"></feOffset>
            <feGaussianBlur stdDeviation="15.5" in="shadowOffsetOuter1" result="shadowBlurOuter1"></feGaussianBlur>
            <feComposite in="shadowBlurOuter1" in2="SourceAlpha" operator="out" result="shadowBlurOuter1"></feComposite>
            <feColorMatrix values="0 0 0 0 0   0 0 0 0 1   0 0 0 0 0  0 0 0 1 0" type="matrix" in="shadowBlurOuter1" result="shadowMatrixOuter1"></feColorMatrix>
            <feMorphology radius="1.5" operator="dilate" in="SourceAlpha" result="shadowSpreadOuter2"></feMorphology>
            <feOffset dx="0" dy="1" in="shadowSpreadOuter2" result="shadowOffsetOuter2"></feOffset>
            <feGaussianBlur stdDeviation="11.5" in="shadowOffsetOuter2" result="shadowBlurOuter2"></feGaussianBlur>
            <feComposite in="shadowBlurOuter2" in2="SourceAlpha" operator="out" result="shadowBlurOuter2"></feComposite>
            <feColorMatrix values="0 0 0 0 1   0 0 0 0 1   0 0 0 0 1  0 0 0 1 0" type="matrix" in="shadowBlurOuter2" result="shadowMatrixOuter2"></feColorMatrix>
            <feMerge>
                <feMergeNode in="shadowMatrixOuter1"></feMergeNode>
                <feMergeNode in="shadowMatrixOuter2"></feMergeNode>
            </feMerge>
        </filter>
        <path d="M143.2,118.864 C143.2,119.536 142.816,120.112 141.76,120.112 L69.664,120.112 C65.92,120.112 62.176,120.304 60.256,120.88 C59.488,121.072 58.624,120.784 58.24,120.016 C57.856,119.248 57.088,117.232 56.8,116.176 C56.704,115.984 56.704,115.792 56.704,115.696 C56.704,115.312 56.896,115.216 57.28,115.216 C57.472,115.216 57.76,115.216 58.144,115.312 C61.024,116.176 66.016,116.56 69.568,116.56 L89.248,116.56 C89.344,105.904 89.536,93.232 89.536,81.328 L77.536,81.328 C73.792,81.328 70.048,81.52 68.128,82.096 C67.36,82.288 66.496,82 66.112,81.232 C65.728,80.464 65.056,78.544 64.768,77.488 C64.672,77.2 64.672,77.104 64.672,76.912 C64.672,76.624 64.864,76.528 65.152,76.528 C65.344,76.528 65.632,76.528 66.016,76.624 C68.896,77.488 73.888,77.872 77.44,77.872 L89.536,77.872 C89.536,68.272 89.536,59.344 89.344,52.528 L72.928,52.528 C69.184,52.528 65.44,52.72 63.52,53.296 C62.752,53.488 61.792,53.2 61.408,52.432 C61.024,51.664 60.448,49.648 60.16,48.592 C60.064,48.304 60.064,48.208 60.064,48.016 C60.064,47.728 60.256,47.632 60.544,47.632 C60.736,47.632 61.024,47.632 61.408,47.728 C64.288,48.592 69.28,48.976 72.832,48.976 L117.568,48.976 C118.336,48.976 119.104,48.688 119.584,48.112 C121.504,45.808 124,43.216 126.112,41.008 C126.4,40.72 126.784,40.528 127.168,40.528 C127.648,40.528 128.128,40.72 128.512,41.008 C131.872,43.408 135.904,46.48 139.552,49.936 C139.936,50.32 140.224,50.8 140.224,51.28 C140.224,51.952 139.744,52.528 138.688,52.528 L106.336,52.528 C106.24,59.536 106.144,68.464 106.144,77.872 L113.92,77.872 C114.784,77.872 115.456,77.584 115.936,76.912 C117.952,74.416 120.544,71.152 122.464,68.944 C122.752,68.656 123.136,68.464 123.52,68.464 C124,68.464 124.48,68.656 124.864,68.944 C127.936,71.344 132.352,75.184 135.616,78.64 C136,79.024 136.192,79.6 136.192,80.08 C136.192,80.752 135.808,81.328 134.752,81.328 L106.144,81.328 C106.144,93.232 106.144,105.712 106.336,116.56 L119.296,116.56 C120.16,116.56 120.928,116.272 121.312,115.696 C123.52,113.104 126.208,110.032 128.416,107.44 C128.704,107.152 129.088,106.96 129.568,106.96 C130.048,106.96 130.528,107.152 130.912,107.44 C134.272,109.936 138.88,113.872 142.624,117.424 C143.008,117.808 143.2,118.384 143.2,118.864 Z M131.968,99.472 C131.968,104.272 128.032,107.344 124.096,107.344 C121.6,107.344 119.104,106.192 117.568,103.408 C114.688,98.416 118.528,94.096 109.984,87.664 C109.6,87.28 109.312,86.896 109.312,86.512 C109.312,86.032 109.792,85.552 110.752,85.552 L111.136,85.552 C119.776,86.512 128.8,89.392 131.2,95.728 C131.68,97.072 131.968,98.32 131.968,99.472 Z M140.704,148.144 C140.704,149.008 140.032,149.584 138.88,149.584 C138.592,149.584 138.112,149.488 137.728,149.392 C136.48,149.008 135.808,148.816 134.944,148.816 C134.464,148.816 133.984,148.912 133.312,149.008 C125.92,150.064 113.824,151.408 100.864,151.408 C97.504,151.408 94.144,151.312 90.784,151.12 C89.632,151.024 89.152,150.544 89.152,149.968 C89.152,149.488 89.632,148.912 90.688,148.72 C106.816,145.456 119.2,140.272 123.904,136.72 C124.576,136.24 124.96,135.856 125.536,135.856 C125.824,135.856 126.208,135.952 126.784,136.336 C130.528,138.736 136.096,143.152 139.456,146.032 C140.32,146.704 140.704,147.472 140.704,148.144 Z M121.504,163.408 C121.504,168.016 117.952,170.608 114.496,170.608 C112,170.608 109.6,169.264 108.736,166.192 C108.544,165.424 108.448,164.656 108.448,163.888 C108.448,162.064 109.024,160.336 109.024,158.512 C109.024,156.88 108.544,155.248 107.104,153.232 C107.008,153.04 106.912,152.848 106.912,152.656 C106.912,152.176 107.2,151.792 107.872,151.792 C107.968,151.792 108.16,151.888 108.352,151.888 C113.728,152.848 120.544,156.88 121.408,161.776 C121.504,162.352 121.504,162.928 121.504,163.408 Z M106.336,166.768 C106.336,171.184 102.88,173.584 99.52,173.584 C96.736,173.584 94.048,171.952 93.28,168.784 C93.088,167.728 92.992,166.864 92.992,166 C92.992,164.56 93.184,163.312 93.184,162.064 C93.184,160.048 92.704,157.936 90.496,155.248 C90.304,154.96 90.112,154.576 90.112,154.384 C90.112,153.808 90.496,153.52 91.168,153.52 C91.264,153.52 91.456,153.616 91.648,153.616 C99.328,155.536 105.376,159.184 106.24,165.52 C106.336,165.904 106.336,166.384 106.336,166.768 Z M92.416,140.272 C92.416,141.04 91.84,141.904 90.592,142.192 C88.96,142.576 88.384,143.536 88.288,144.688 C88.096,147.088 88,156.88 88,169.744 C88,183.76 88.096,201.424 88.48,216.88 C88.48,219.184 86.752,220.528 82.72,221.008 C82.144,221.104 81.568,221.2 80.896,221.2 L79.552,221.2 C75.424,221.2 73.888,220.048 73.888,217.84 C74.08,208.144 74.272,196.24 74.368,184.72 C71.776,190.48 67.552,196.72 64.864,200.464 C64.192,201.328 64.288,201.904 64.096,203.536 C64,204.784 63.232,205.456 62.464,205.456 C61.792,205.456 61.12,204.88 60.832,203.824 C59.488,198.352 57.856,190.96 56.896,185.584 C56.8,185.104 56.8,184.816 56.8,184.528 C56.8,183.856 57.184,183.856 58.912,183.664 C61.888,183.28 68.992,181.744 74.368,178.864 L74.368,167.152 C73.984,170.8 71.104,172.528 68.128,172.528 C65.344,172.528 62.464,170.992 61.312,168.016 C60.928,167.152 60.832,166.288 60.832,165.424 C60.832,163.216 61.696,161.2 61.696,158.608 C61.696,156.304 61.12,153.712 58.72,150.352 C58.624,150.16 58.528,149.968 58.528,149.68 C58.528,149.2 58.912,148.72 59.584,148.72 C59.68,148.72 59.872,148.72 60.064,148.816 C67.264,151.888 72.544,155.824 74.368,161.296 C74.368,150.448 74.272,141.52 74.08,140.08 C73.792,138.352 73.696,137.392 73.696,136.912 C73.696,136.336 73.792,136.24 74.176,136.24 C74.368,136.24 74.56,136.336 74.944,136.336 C80.128,136.816 85.888,137.68 90.688,138.544 C91.84,138.736 92.416,139.504 92.416,140.272 Z M143.296,184.144 C143.296,184.816 143.008,185.296 141.856,185.296 L131.392,185.296 C131.392,193.552 131.488,204.208 131.68,210.448 L131.68,210.736 C131.68,216.976 128.32,220.048 115.84,221.104 L115.168,221.104 C114.112,221.104 113.632,220.912 113.536,219.952 C112.768,211.888 111.328,211.024 104.032,207.856 C103.36,207.568 103.072,207.088 103.072,206.608 C103.072,206.032 103.552,205.552 104.512,205.552 L104.704,205.552 C107.968,205.744 111.232,205.936 114.784,206.032 L114.976,206.032 C116.608,206.032 116.896,204.976 116.992,203.632 C117.088,201.232 117.184,197.296 117.184,193.072 C117.184,190.48 117.184,187.792 117.088,185.296 L101.728,185.296 C97.984,185.296 94.144,185.488 92.224,186.064 C91.456,186.256 90.592,185.968 90.208,185.2 C89.824,184.432 89.248,182.512 88.96,181.456 C88.864,181.168 88.864,181.072 88.864,180.88 C88.864,180.592 89.056,180.496 89.344,180.496 C89.536,180.496 89.824,180.496 90.208,180.592 C93.088,181.456 98.08,181.84 101.632,181.84 L116.992,181.84 C116.896,178.864 116.704,176.464 116.512,175.12 C116.224,173.68 116.032,172.72 116.032,172.144 C116.032,171.472 116.32,171.28 116.992,171.28 C117.184,171.28 117.472,171.376 117.76,171.376 C118.72,171.472 119.68,171.664 121.024,171.856 C123.04,165.808 125.152,156.592 125.248,151.888 C125.248,150.928 125.344,150.64 125.92,150.64 C126.208,150.64 126.496,150.736 126.976,150.832 C131.104,151.888 137.344,153.712 141.184,155.056 C142.048,155.344 142.528,156.112 142.528,156.784 C142.528,157.648 141.856,158.416 140.608,158.512 C139.648,158.512 138.592,158.896 138.016,159.568 C134.464,164.464 130.048,168.976 125.056,172.336 C127.36,172.624 130.912,173.008 132.928,173.296 C134.08,173.488 134.752,174.16 134.752,174.928 C134.752,175.6 134.176,176.368 133.024,176.848 C131.776,177.328 131.488,178 131.488,178.864 L131.488,181.84 C131.872,181.84 132.064,181.552 132.448,180.976 C133.312,179.44 134.56,177.424 135.808,175.6 C136.096,175.216 136.384,175.024 136.768,175.024 C137.056,175.024 137.44,175.216 137.728,175.6 C139.456,177.808 141.568,180.688 142.912,182.896 C143.104,183.28 143.296,183.76 143.296,184.144 Z M110.464,198.256 C110.464,202.384 106.72,205.072 103.072,205.072 C100.768,205.072 98.464,203.92 97.216,201.52 C96.544,200.272 96.448,199.312 96.448,198.352 C96.448,197.104 96.736,195.952 96.736,194.704 C96.736,193.072 96.16,191.248 93.568,188.56 C93.28,188.272 93.184,187.888 93.184,187.6 C93.184,187.216 93.472,186.832 94.144,186.832 L94.528,186.832 C101.92,188.176 108.256,190.096 110.08,195.76 C110.368,196.624 110.464,197.488 110.464,198.256 Z" id="path-4"></path>
        <filter x="-39.3%" y="-18.8%" width="178.5%" height="137.6%" filterUnits="objectBoundingBox" id="filter-5">
            <feOffset dx="0" dy="0" in="SourceAlpha" result="shadowOffsetOuter1"></feOffset>
            <feGaussianBlur stdDeviation="10" in="shadowOffsetOuter1" result="shadowBlurOuter1"></feGaussianBlur>
            <feColorMatrix values="0 0 0 0 1   0 0 0 0 1   0 0 0 0 1  0 0 0 1 0" type="matrix" in="shadowBlurOuter1" result="shadowMatrixOuter1"></feColorMatrix>
            <feOffset dx="0" dy="0" in="SourceAlpha" result="shadowOffsetOuter2"></feOffset>
            <feGaussianBlur stdDeviation="2" in="shadowOffsetOuter2" result="shadowBlurOuter2"></feGaussianBlur>
            <feColorMatrix values="0 0 0 0 0   0 0 0 0 1   0 0 0 0 0.392156863  0 0 0 1 0" type="matrix" in="shadowBlurOuter2" result="shadowMatrixOuter2"></feColorMatrix>
            <feMerge>
                <feMergeNode in="shadowMatrixOuter1"></feMergeNode>
                <feMergeNode in="shadowMatrixOuter2"></feMergeNode>
            </feMerge>
        </filter>
    </defs>
    <g id="Symbols" stroke="none" stroke-width="1" fill="none" fill-rule="evenodd">
        <g id="koma-vecter" transform="translate(30.000000, 20.000000)">
            <g id="gyoku" transform="translate(1.000000, 8.000000)">
                <mask id="mask-2" fill="white">
                    <use xlink:href="#path-1"></use>
                </mask>
                <g id="Polygon" transform="translate(100.000000, 129.000000) scale(-1, 1) translate(-100.000000, -129.000000) ">
                    <use fill="black" fill-opacity="1" filter="url(#filter-3)" xlink:href="#path-1"></use>
                    <use stroke="#00FF64" stroke-width="3" fill="#000000" fill-rule="evenodd" xlink:href="#path-1"></use>
                </g>
                <g mask="url(#mask-2)">
                    <use fill="black" fill-opacity="1" filter="url(#filter-5)" xlink:href="#path-4"></use>
                    <use fill="#0A3208" fill-rule="evenodd" xlink:href="#path-4"></use>
                </g>
            </g>
        </g>
    </g>
</svg>