<?xml version="1.0" encoding="UTF-8"?>
<svg width="242px" height="265px" viewBox="0 0 242 265" version="1.1" xmlns="http://www.w3.org/2000/svg" xmlns:xlink="http://www.w3.org/1999/xlink">
    <!-- Generator: Sketch 47.1 (45422) - http://www.bohemiancoding.com/sketch -->
    <title>keima-aite</title>
    <desc>Created with Sketch.</desc>
    <defs>
        <polygon id="path-1" points="92 0 147.2 15.9860987 184 204.481328 0 204.481328 36.8 15.9860987"></polygon>
        <filter x="-38.9%" y="-34.0%" width="177.7%" height="169.9%" filterUnits="objectBoundingBox" id="filter-3">
            <feMorphology radius="1.5" operator="dilate" in="SourceAlpha" result="shadowSpreadOuter1"></feMorphology>
            <feOffset dx="0" dy="1" in="shadowSpreadOuter1" result="shadowOffsetOuter1"></feOffset>
            <feGaussianBlur stdDeviation="15.5" in="shadowOffsetOuter1" result="shadowBlurOuter1"></feGaussianBlur>
            <feComposite in="shadowBlurOuter1" in2="SourceAlpha" operator="out" result="shadowBlurOuter1"></feComposite>
            <feColorMatrix values="0 0 0 0 0   0 0 0 0 1   0 0 0 0 0  0 0 0 1 0" type="matrix" in="shadowBlurOuter1" result="shadowMatrixOuter1"></feColorMatrix>
            <feMorphology radius="1.5" operator="dilate" in="SourceAlpha" result="shadowSpreadOuter2"></feMorphology>
            <feOffset dx="0" dy="1" in="shadowSpreadOuter2" result="shadowOffsetOuter2"></feOffset>
            <feGaussianBlur stdDeviation="11.5" in="shadowOffsetOuter2" result="shadowBlurOuter2"></feGaussianBlur>
            <feComposite in="shadowBlurOuter2" in2="SourceAlpha" operator="out" result="shadowBlurOuter2"></feComposite>
            <feColorMatrix values="0 0 0 0 1   0 0 0 0 1   0 0 0 0 1  0 0 0 1 0" type="matrix" in="shadowBlurOuter2" result="shadowMatrixOuter2"></feColorMatrix>
            <feMerge>
                <feMergeNode in="shadowMatrixOuter1"></feMergeNode>
                <feMergeNode in="shadowMatrixOuter2"></feMergeNode>
            </feMerge>
        </filter>
        <polygon id="path-4" points="92 -8 147.2 7.98609869 184 196.481328 0 196.481328 36.8 7.98609869"></polygon>
        <path d="M126.073,49.336 C126.073,49.889 125.678,50.363 124.651,50.363 L93.446,50.363 C90.444,50.363 87.363,50.521 85.783,50.995 C86.178,52.101 86.336,53.286 86.257,54.629 C86.02,57.552 83.808,59.053 81.675,59.053 C79.937,59.053 78.199,58.026 77.962,55.735 C77.883,55.103 77.883,54.55 77.883,53.997 C77.883,52.812 77.962,51.706 77.962,50.6 C77.962,49.02 77.725,47.361 76.461,45.465 C76.461,58.342 76.54,74.3 76.856,85.834 L76.856,85.913 C76.856,87.651 74.723,88.52 71.089,88.757 C70.536,88.757 69.983,88.836 69.509,88.836 C66.428,88.836 64.453,88.125 64.453,86.15 L64.453,86.071 C64.611,79.988 64.769,72.088 64.848,63.951 C62.478,67.19 59.871,69.797 57.264,71.93 C57.027,72.088 56.79,72.167 56.632,72.167 C56.316,72.167 56,71.93 56,71.535 C56,71.377 56.079,71.219 56.158,71.061 C60.187,61.818 63.031,52.259 64.611,39.145 C62.715,39.145 60.503,39.382 59.318,39.698 C59.16,39.698 59.002,39.777 58.844,39.777 C58.37,39.777 57.975,39.54 57.738,39.066 C57.422,38.434 56.869,36.854 56.632,35.985 C56.553,35.748 56.553,35.669 56.553,35.511 C56.553,35.274 56.711,35.195 56.948,35.195 C57.106,35.195 57.343,35.195 57.659,35.274 C59.239,35.748 61.53,36.064 63.663,36.143 C64.137,36.222 64.532,36.222 64.927,36.222 C64.927,28.401 64.769,22.634 64.532,21.133 C64.374,20.422 64.295,19.869 64.295,19.553 C64.295,19.079 64.532,19 65.006,19 L65.48,19 C69.114,19.316 74.565,20.027 78.357,20.738 C79.305,20.975 79.779,21.528 79.779,22.16 C79.779,22.792 79.305,23.424 78.278,23.661 C77.014,24.056 76.698,24.451 76.698,25.399 C76.619,27.532 76.619,31.403 76.54,36.143 C76.856,36.064 77.33,35.827 77.488,35.59 C78.357,34.01 79.384,31.798 80.411,30.139 C80.569,29.902 80.885,29.744 81.122,29.744 C81.438,29.744 81.675,29.902 81.912,30.139 C83.413,31.956 85.546,34.879 86.968,37.249 C87.126,37.644 87.284,37.96 87.284,38.276 C87.284,38.75 86.968,39.066 86.336,39.066 L76.54,39.066 C76.461,40.172 76.461,41.436 76.461,42.621 C78.831,43.885 81.359,45.228 82.939,46.808 C82.939,46.492 83.097,46.413 83.413,46.413 C83.571,46.413 83.808,46.413 84.124,46.492 C86.494,47.203 90.523,47.519 93.446,47.519 L95.579,47.519 C95.658,43.569 95.737,38.908 95.737,34.642 L95.5,34.642 C92.893,34.642 89.812,34.8 88.232,35.274 C87.6,35.432 86.889,35.195 86.573,34.563 C86.257,33.931 85.783,32.509 85.546,31.64 C85.467,31.482 85.467,31.324 85.467,31.245 C85.467,30.929 85.625,30.85 85.941,30.85 C86.099,30.85 86.336,30.85 86.652,30.929 C89.022,31.64 93.288,31.956 95.5,31.956 L95.737,31.956 C95.737,26.663 95.579,22.397 95.342,21.37 C95.026,20.422 94.868,19.79 94.868,19.474 C94.868,19.079 95.105,19 95.658,19 L96.369,19 C100.556,19.316 105.691,19.79 109.878,20.422 C111.063,20.659 111.616,21.291 111.616,22.081 C111.616,22.713 111.142,23.424 110.036,23.74 C108.614,24.135 108.14,24.451 108.14,25.557 C108.14,27.295 108.061,29.507 108.061,31.956 L108.851,31.956 C109.404,31.956 109.878,31.877 110.273,31.324 C111.537,29.744 113.275,27.532 114.776,25.794 C115.013,25.557 115.329,25.399 115.645,25.399 C115.882,25.399 116.198,25.557 116.514,25.794 C118.647,27.611 121.096,30.06 123.545,32.667 C123.782,32.904 123.94,33.299 123.94,33.615 C123.94,34.168 123.545,34.642 122.834,34.642 L108.061,34.642 C108.061,38.987 108.061,43.648 108.14,47.519 L109.799,47.519 C110.431,47.519 110.826,47.44 111.379,46.808 C112.801,45.07 114.618,42.779 116.119,41.041 C116.356,40.725 116.672,40.567 116.988,40.567 C117.304,40.567 117.699,40.725 118.094,41.041 C120.543,43.095 123.15,45.623 125.599,48.23 C125.836,48.467 126.073,48.941 126.073,49.336 Z M127.495,84.649 C127.495,85.123 127.179,85.597 126.231,85.597 L89.575,85.597 C86.494,85.597 83.413,85.755 81.833,86.229 C81.201,86.387 80.49,86.15 80.174,85.518 C79.858,84.886 79.384,83.385 79.147,82.516 C79.068,82.358 79.068,82.2 79.068,82.121 C79.068,81.805 79.226,81.726 79.542,81.726 C79.7,81.726 79.937,81.726 80.253,81.805 C82.623,82.516 86.336,82.832 89.575,82.832 L95.5,82.832 C95.658,77.934 95.737,72.088 95.737,66.953 L93.051,66.953 C89.97,66.953 86.968,67.111 85.388,67.585 C84.756,67.743 83.966,67.506 83.65,66.874 C83.334,66.242 82.86,64.899 82.623,64.03 C82.465,63.398 82.623,63.24 83.097,63.24 C83.255,63.24 83.492,63.24 83.808,63.319 C86.178,64.03 90.128,64.346 93.051,64.346 L95.737,64.346 C95.658,59.29 95.5,55.34 95.263,54.392 C95.026,53.365 94.789,52.733 94.789,52.417 C94.789,52.022 95.026,51.864 95.5,51.864 C95.737,51.864 96.053,51.943 96.369,51.943 C100.556,52.259 105.691,52.733 109.878,53.365 C111.063,53.602 111.616,54.234 111.616,54.945 C111.616,55.656 111.063,56.367 110.036,56.604 C108.614,56.999 108.14,57.315 108.14,58.421 C108.14,59.922 108.061,62.055 108.061,64.346 L109.167,64.346 C109.799,64.346 110.194,64.267 110.589,63.714 C111.853,61.976 113.512,59.843 115.013,57.947 C115.25,57.71 115.566,57.631 115.882,57.631 C116.198,57.631 116.514,57.71 116.83,57.947 C118.884,59.685 121.491,62.371 123.94,65.057 C124.177,65.294 124.335,65.61 124.335,65.926 C124.335,66.479 123.94,66.953 123.229,66.953 L108.061,66.953 C108.061,72.246 108.061,78.408 108.14,82.832 L110.747,82.832 C111.379,82.832 111.853,82.753 112.327,82.121 C113.749,79.988 115.645,77.381 117.146,75.485 C117.383,75.169 117.699,75.09 118.015,75.09 C118.41,75.09 118.884,75.248 119.2,75.485 C121.254,77.223 124.493,80.541 126.942,83.306 C127.258,83.622 127.495,84.175 127.495,84.649 Z M127.337,141.028 C127.337,141.66 126.942,142.371 125.994,142.924 C124.967,143.477 124.414,143.635 124.256,145.847 C123.94,150.429 122.676,158.092 121.412,162.595 C119.99,167.809 114.618,168.599 106.797,168.836 L106.244,168.836 C105.454,168.836 105.059,168.678 104.98,167.73 C104.506,162.2 103.874,161.015 97.317,158.487 C96.448,158.092 96.527,156.828 97.554,156.828 L97.712,156.828 C100.951,157.065 103.637,157.302 106.244,157.302 C108.219,157.302 109.246,156.986 109.878,154.458 C110.589,151.061 111.3,146.163 111.537,141.265 L77.725,141.265 C77.409,143.556 74.802,144.662 70.22,144.899 C69.509,144.978 68.798,144.978 68.166,144.978 C65.559,144.978 63.979,144.504 63.979,142.213 L63.979,141.897 C64.374,135.34 64.532,125.465 64.532,117.012 C64.532,109.507 64.374,103.108 64.058,101.212 C63.979,100.58 63.9,100.185 63.9,99.948 C63.9,99.632 63.979,99.474 64.216,99.474 C64.453,99.474 64.848,99.553 65.322,99.711 C69.746,100.975 78.278,104.53 78.278,104.53 L105.612,104.53 C106.244,104.53 106.56,104.372 107.034,103.819 C108.456,102.397 110.589,100.422 112.09,99.237 C112.643,98.763 113.038,98.763 113.828,99.237 C115.882,100.58 119.042,103.108 121.57,105.399 C121.965,105.715 122.123,106.031 122.123,106.347 C122.123,106.9 121.649,107.295 120.938,107.295 L99.45,107.295 C99.45,109.981 99.371,112.667 99.371,115.432 L103.163,115.432 C103.795,115.432 104.111,115.353 104.585,114.721 C105.691,113.378 107.745,111.008 109.009,109.665 C109.483,109.112 110.036,109.112 110.747,109.665 C112.722,111.166 115.645,113.931 117.857,116.301 C118.173,116.617 118.331,117.012 118.331,117.328 C118.331,117.802 117.936,118.197 117.225,118.197 L99.292,118.197 L99.292,126.65 L103.321,126.65 C103.953,126.65 104.348,126.571 104.743,125.939 C105.928,124.359 107.824,122.147 109.246,120.646 C109.799,120.093 110.352,120.093 110.984,120.646 C113.117,122.384 115.961,124.991 118.331,127.519 C118.647,127.835 118.726,128.23 118.726,128.546 C118.726,129.02 118.41,129.415 117.699,129.415 L99.292,129.415 C99.292,132.338 99.292,135.419 99.371,138.579 L109.878,138.579 C110.747,138.579 110.984,138.5 111.379,138.184 C112.722,137.078 115.487,134.708 116.672,133.76 C117.067,133.444 117.304,133.286 117.699,133.286 C118.015,133.286 118.331,133.444 118.805,133.76 C121.096,135.182 123.94,137.315 126.389,139.211 C126.942,139.685 127.337,140.317 127.337,141.028 Z M108.614,150.192 C108.614,153.036 106.007,154.932 103.479,154.932 C101.899,154.932 100.398,154.142 99.608,152.404 C98.107,148.849 99.529,146.321 96.053,143.714 C95.816,143.556 95.658,143.319 95.658,143.082 C95.658,142.845 95.974,142.608 96.685,142.608 C101.899,142.766 107.192,144.583 108.377,148.691 C108.535,149.244 108.614,149.718 108.614,150.192 Z M97.08,154.3 C97.08,158.013 94.236,159.909 91.55,159.909 C89.891,159.909 88.232,159.119 87.363,157.46 C86.81,156.354 86.731,155.011 86.731,153.668 L86.731,152.404 C86.731,150.113 86.494,147.743 84.203,145.768 C83.966,145.531 83.887,145.373 83.887,145.136 C83.887,144.741 84.203,144.425 84.756,144.425 C84.914,144.425 84.993,144.504 85.151,144.504 C90.918,145.768 96.448,148.454 97.001,153.431 C97.001,153.747 97.08,154.063 97.08,154.3 Z M84.045,157.381 C84.045,161.489 80.964,163.622 78.041,163.622 C75.592,163.622 73.222,162.042 72.985,158.961 C72.985,158.645 72.906,158.408 72.906,158.092 C72.906,154.774 74.802,153.352 74.802,150.508 C74.802,149.56 74.565,148.454 74.012,147.032 C73.933,146.874 73.933,146.716 73.933,146.637 C73.933,146.163 74.249,145.847 74.644,145.847 C74.802,145.847 75.039,145.926 75.276,146.084 C79.779,148.691 83.966,152.088 84.045,157.223 L84.045,157.381 Z M69.588,156.749 C69.588,160.699 68.324,163.938 64.611,165.281 C63.663,165.597 62.794,165.755 62.004,165.755 C58.449,165.755 56.079,162.832 56.079,159.83 C56.079,158.092 56.948,156.196 58.923,154.932 C62.952,152.404 64.611,152.957 66.428,147.19 C66.586,146.637 66.823,146.4 67.139,146.4 C67.455,146.4 67.771,146.795 68.008,147.348 C68.877,150.587 69.588,153.826 69.588,156.749 Z M86.968,115.432 C86.889,112.746 86.81,109.981 86.731,107.295 L77.567,107.295 C77.567,109.112 77.488,112.035 77.488,115.432 L86.968,115.432 Z M86.968,118.197 L77.409,118.197 C77.488,119.54 77.488,120.962 77.488,122.384 L77.488,126.65 L86.889,126.65 C86.968,123.727 86.968,120.962 86.968,118.197 Z M86.889,129.415 L77.488,129.415 C77.488,132.733 77.567,135.893 77.646,138.579 L86.652,138.579 C86.731,135.419 86.81,132.338 86.889,129.415 Z" id="path-6"></path>
        <filter x="-47.6%" y="-22.7%" width="195.1%" height="145.4%" filterUnits="objectBoundingBox" id="filter-7">
            <feOffset dx="0" dy="0" in="SourceAlpha" result="shadowOffsetOuter1"></feOffset>
            <feGaussianBlur stdDeviation="10" in="shadowOffsetOuter1" result="shadowBlurOuter1"></feGaussianBlur>
            <feColorMatrix values="0 0 0 0 1   0 0 0 0 1   0 0 0 0 1  0 0 0 1 0" type="matrix" in="shadowBlurOuter1" result="shadowMatrixOuter1"></feColorMatrix>
            <feOffset dx="0" dy="0" in="SourceAlpha" result="shadowOffsetOuter2"></feOffset>
            <feGaussianBlur stdDeviation="2" in="shadowOffsetOuter2" result="shadowBlurOuter2"></feGaussianBlur>
            <feColorMatrix values="0 0 0 0 0   0 0 0 0 1   0 0 0 0 0.392156863  0 0 0 1 0" type="matrix" in="shadowBlurOuter2" result="shadowMatrixOuter2"></feColorMatrix>
            <feMerge>
                <feMergeNode in="shadowMatrixOuter1"></feMergeNode>
                <feMergeNode in="shadowMatrixOuter2"></feMergeNode>
            </feMerge>
        </filter>
    </defs>
    <g id="Symbols" stroke="none" stroke-width="1" fill="none" fill-rule="evenodd">
        <g id="koma-vecter" transform="translate(28.000000, 24.000000)">
            <g id="keima-aite" transform="translate(1.000000, 8.000000)">
                <mask id="mask-2" fill="white">
                    <use xlink:href="#path-1"></use>
                </mask>
                <g id="Polygon" transform="translate(92.000000, 102.240664) scale(-1, -1) translate(-92.000000, -102.240664) ">
                    <use fill="black" fill-opacity="1" filter="url(#filter-3)" xlink:href="#path-1"></use>
                    <use stroke="#00FF64" stroke-width="3" fill="#000000" fill-rule="evenodd" xlink:href="#path-1"></use>
                </g>
                <mask id="mask-5" fill="white">
                    <use xlink:href="#path-4"></use>
                </mask>
                <use id="Polygon-Copy-6" stroke="#00FF64" stroke-width="3" fill="#000000" transform="translate(92.000000, 94.240664) scale(-1, -1) translate(-92.000000, -94.240664) " xlink:href="#path-4"></use>
                <g id="keima" mask="url(#mask-5)" transform="translate(91.747500, 93.918000) scale(-1, -1) translate(-91.747500, -93.918000) ">
                    <use fill="black" fill-opacity="1" filter="url(#filter-7)" xlink:href="#path-6"></use>
                    <use fill="#0A3208" fill-rule="evenodd" xlink:href="#path-6"></use>
                </g>
            </g>
        </g>
    </g>
</svg>