<?xml version="1.0" encoding="UTF-8"?>
<svg width="242px" height="265px" viewBox="0 0 242 265" version="1.1" xmlns="http://www.w3.org/2000/svg" xmlns:xlink="http://www.w3.org/1999/xlink">
    <!-- Generator: Sketch 47.1 (45422) - http://www.bohemiancoding.com/sketch -->
    <title>narikei-aite</title>
    <desc>Created with Sketch.</desc>
    <defs>
        <polygon id="path-1" points="92 0 147.2 15.9860987 184 204.481328 0 204.481328 36.8 15.9860987"></polygon>
        <filter x="-38.9%" y="-34.0%" width="177.7%" height="169.9%" filterUnits="objectBoundingBox" id="filter-3">
            <feMorphology radius="1.5" operator="dilate" in="SourceAlpha" result="shadowSpreadOuter1"></feMorphology>
            <feOffset dx="0" dy="1" in="shadowSpreadOuter1" result="shadowOffsetOuter1"></feOffset>
            <feGaussianBlur stdDeviation="15.5" in="shadowOffsetOuter1" result="shadowBlurOuter1"></feGaussianBlur>
            <feComposite in="shadowBlurOuter1" in2="SourceAlpha" operator="out" result="shadowBlurOuter1"></feComposite>
            <feColorMatrix values="0 0 0 0 0   0 0 0 0 1   0 0 0 0 0  0 0 0 1 0" type="matrix" in="shadowBlurOuter1" result="shadowMatrixOuter1"></feColorMatrix>
            <feMorphology radius="1.5" operator="dilate" in="SourceAlpha" result="shadowSpreadOuter2"></feMorphology>
            <feOffset dx="0" dy="1" in="shadowSpreadOuter2" result="shadowOffsetOuter2"></feOffset>
            <feGaussianBlur stdDeviation="11.5" in="shadowOffsetOuter2" result="shadowBlurOuter2"></feGaussianBlur>
            <feComposite in="shadowBlurOuter2" in2="SourceAlpha" operator="out" result="shadowBlurOuter2"></feComposite>
            <feColorMatrix values="0 0 0 0 1   0 0 0 0 1   0 0 0 0 1  0 0 0 1 0" type="matrix" in="shadowBlurOuter2" result="shadowMatrixOuter2"></feColorMatrix>
            <feMerge>
                <feMergeNode in="shadowMatrixOuter1"></feMergeNode>
                <feMergeNode in="shadowMatrixOuter2"></feMergeNode>
            </feMerge>
        </filter>
        <polygon id="path-4" points="92 -8 147.2 7.98609869 184 196.481328 0 196.481328 36.8 7.98609869"></polygon>
        <path d="M128.287,81 C128.287,84.318 125.838,86.925 122.046,86.925 C120.624,86.925 119.044,86.609 117.306,85.74 C111.46,82.817 107.036,78.946 103.718,74.048 C97.082,79.42 88.55,83.37 77.332,85.345 L77.016,85.345 C75.91,85.345 75.831,84.239 76.779,83.844 C85.627,79.341 93.369,73.1 99.452,65.674 C97.477,60.46 96.134,54.535 95.186,47.741 C95.028,48.057 94.712,48.373 94.317,48.61 C93.053,49.479 92.737,49.637 92.658,51.77 C92.5,55.246 92.421,62.83 91.078,68.36 C90.051,72.705 85.864,74.522 80.255,75.312 C80.018,75.312 79.781,75.391 79.623,75.391 C78.754,75.391 78.517,74.996 78.359,74.127 C77.885,69.308 77.806,67.175 73.856,65.121 C71.091,76.102 64.534,82.422 57.977,86.53 C57.582,86.767 57.266,86.846 57.029,86.846 C56.713,86.846 56.476,86.609 56.476,86.214 C56.476,85.898 56.634,85.582 56.792,85.108 C59.794,78.235 61.769,72.389 62.954,61.645 C63.507,56.668 63.744,49.953 63.744,43.791 C63.744,36.681 63.428,30.282 62.954,28.386 C62.717,27.438 62.638,26.727 62.638,26.332 C62.638,25.7 62.796,25.542 63.112,25.542 C63.428,25.542 63.665,25.621 64.06,25.779 C67.852,27.043 72.75,28.702 76.858,30.44 L93.685,30.44 C93.527,26.885 93.369,23.172 93.211,19.301 C93.132,18.59 92.895,17.958 92.895,17.484 C92.895,17.168 93.053,17.01 93.606,17.01 L93.922,17.01 C97.556,17.326 102.217,17.8 105.535,18.432 C105.377,18.274 105.377,18.037 105.377,17.879 C105.377,17.484 105.693,17.247 106.404,17.247 L106.562,17.247 C111.46,17.484 116.358,18.274 117.78,22.382 C118.017,23.093 118.096,23.725 118.096,24.278 C118.096,25.226 117.859,26.095 117.464,26.806 C117.938,26.253 118.412,25.779 118.965,25.226 C119.518,24.673 120.071,24.673 120.782,25.226 C122.994,26.964 125.206,28.781 127.339,31.23 C127.576,31.467 127.813,32.02 127.813,32.415 C127.813,32.81 127.576,33.205 126.628,33.205 L105.219,33.205 C105.614,41.105 106.325,48.215 107.589,53.666 C109.722,49.479 111.618,44.502 112.803,39.762 C112.961,38.893 112.882,38.103 113.514,38.103 C113.672,38.103 113.909,38.182 114.146,38.261 C117.938,39.762 122.046,41.579 125.522,43.396 C126.312,43.87 126.707,44.423 126.707,44.976 C126.707,45.766 125.996,46.398 124.811,46.398 C123.231,46.398 122.836,46.556 122.362,47.583 C119.518,53.982 116.437,59.828 112.487,65.042 C113.988,67.254 115.805,69.15 117.938,70.888 C118.57,71.441 119.123,71.678 119.597,71.678 C120.15,71.678 120.703,71.283 121.019,70.572 C122.52,67.728 123.863,64.884 125.048,61.882 C125.364,61.013 125.759,60.618 126.154,60.618 C126.549,60.618 126.865,61.092 126.865,62.04 L126.865,62.514 C126.154,66.701 125.601,69.703 125.601,71.994 C125.601,73.732 125.917,75.154 126.786,76.418 C127.813,77.998 128.287,79.578 128.287,81 Z M115.647,28.702 C114.778,29.255 113.751,29.492 112.724,29.492 C111.144,29.492 109.643,28.86 108.616,27.201 C107.352,25.226 108.379,23.093 107.431,20.881 C107.194,21.118 106.878,21.355 106.404,21.513 C105.298,21.987 104.982,22.145 104.982,23.725 C104.982,26.095 105.061,28.307 105.14,30.44 L112.724,30.44 C113.909,30.44 114.541,29.808 115.647,28.702 Z M94.87,45.292 C94.475,41.5 94.159,37.471 93.843,33.205 L75.752,33.205 L75.752,44.423 L79.544,44.423 C80.413,44.423 80.887,44.186 81.282,43.791 C82.23,42.922 84.205,41.263 85.627,39.999 C85.864,39.762 86.259,39.604 86.654,39.604 C87.049,39.604 87.365,39.683 87.839,39.999 C90.288,41.579 93.369,43.791 94.87,45.292 Z M81.677,49.4 L81.677,47.188 L75.673,47.188 C75.515,52.876 75.12,58.564 74.33,63.146 C75.515,63.304 77.016,63.462 78.28,63.462 C80.413,63.462 80.65,63.304 81.045,60.697 C81.519,57.3 81.677,53.35 81.677,49.4 Z M126.786,127.425 C126.786,127.978 126.391,128.452 125.364,128.452 L94.159,128.452 C91.157,128.452 88.076,128.61 86.496,129.084 C86.891,130.19 87.049,131.375 86.97,132.718 C86.733,135.641 84.521,137.142 82.388,137.142 C80.65,137.142 78.912,136.115 78.675,133.824 C78.596,133.192 78.596,132.639 78.596,132.086 C78.596,130.901 78.675,129.795 78.675,128.689 C78.675,127.109 78.438,125.45 77.174,123.554 C77.174,136.431 77.253,152.389 77.569,163.923 L77.569,164.002 C77.569,165.74 75.436,166.609 71.802,166.846 C71.249,166.846 70.696,166.925 70.222,166.925 C67.141,166.925 65.166,166.214 65.166,164.239 L65.166,164.16 C65.324,158.077 65.482,150.177 65.561,142.04 C63.191,145.279 60.584,147.886 57.977,150.019 C57.74,150.177 57.503,150.256 57.345,150.256 C57.029,150.256 56.713,150.019 56.713,149.624 C56.713,149.466 56.792,149.308 56.871,149.15 C60.9,139.907 63.744,130.348 65.324,117.234 C63.428,117.234 61.216,117.471 60.031,117.787 C59.873,117.787 59.715,117.866 59.557,117.866 C59.083,117.866 58.688,117.629 58.451,117.155 C58.135,116.523 57.582,114.943 57.345,114.074 C57.266,113.837 57.266,113.758 57.266,113.6 C57.266,113.363 57.424,113.284 57.661,113.284 C57.819,113.284 58.056,113.284 58.372,113.363 C59.952,113.837 62.243,114.153 64.376,114.232 C64.85,114.311 65.245,114.311 65.64,114.311 C65.64,106.49 65.482,100.723 65.245,99.222 C65.087,98.511 65.008,97.958 65.008,97.642 C65.008,97.168 65.245,97.089 65.719,97.089 L66.193,97.089 C69.827,97.405 75.278,98.116 79.07,98.827 C80.018,99.064 80.492,99.617 80.492,100.249 C80.492,100.881 80.018,101.513 78.991,101.75 C77.727,102.145 77.411,102.54 77.411,103.488 C77.332,105.621 77.332,109.492 77.253,114.232 C77.569,114.153 78.043,113.916 78.201,113.679 C79.07,112.099 80.097,109.887 81.124,108.228 C81.282,107.991 81.598,107.833 81.835,107.833 C82.151,107.833 82.388,107.991 82.625,108.228 C84.126,110.045 86.259,112.968 87.681,115.338 C87.839,115.733 87.997,116.049 87.997,116.365 C87.997,116.839 87.681,117.155 87.049,117.155 L77.253,117.155 C77.174,118.261 77.174,119.525 77.174,120.71 C79.544,121.974 82.072,123.317 83.652,124.897 C83.652,124.581 83.81,124.502 84.126,124.502 C84.284,124.502 84.521,124.502 84.837,124.581 C87.207,125.292 91.236,125.608 94.159,125.608 L96.292,125.608 C96.371,121.658 96.45,116.997 96.45,112.731 L96.213,112.731 C93.606,112.731 90.525,112.889 88.945,113.363 C88.313,113.521 87.602,113.284 87.286,112.652 C86.97,112.02 86.496,110.598 86.259,109.729 C86.18,109.571 86.18,109.413 86.18,109.334 C86.18,109.018 86.338,108.939 86.654,108.939 C86.812,108.939 87.049,108.939 87.365,109.018 C89.735,109.729 94.001,110.045 96.213,110.045 L96.45,110.045 C96.45,104.752 96.292,100.486 96.055,99.459 C95.739,98.511 95.581,97.879 95.581,97.563 C95.581,97.168 95.818,97.089 96.371,97.089 L97.082,97.089 C101.269,97.405 106.404,97.879 110.591,98.511 C111.776,98.748 112.329,99.38 112.329,100.17 C112.329,100.802 111.855,101.513 110.749,101.829 C109.327,102.224 108.853,102.54 108.853,103.646 C108.853,105.384 108.774,107.596 108.774,110.045 L109.564,110.045 C110.117,110.045 110.591,109.966 110.986,109.413 C112.25,107.833 113.988,105.621 115.489,103.883 C115.726,103.646 116.042,103.488 116.358,103.488 C116.595,103.488 116.911,103.646 117.227,103.883 C119.36,105.7 121.809,108.149 124.258,110.756 C124.495,110.993 124.653,111.388 124.653,111.704 C124.653,112.257 124.258,112.731 123.547,112.731 L108.774,112.731 C108.774,117.076 108.774,121.737 108.853,125.608 L110.512,125.608 C111.144,125.608 111.539,125.529 112.092,124.897 C113.514,123.159 115.331,120.868 116.832,119.13 C117.069,118.814 117.385,118.656 117.701,118.656 C118.017,118.656 118.412,118.814 118.807,119.13 C121.256,121.184 123.863,123.712 126.312,126.319 C126.549,126.556 126.786,127.03 126.786,127.425 Z M128.208,162.738 C128.208,163.212 127.892,163.686 126.944,163.686 L90.288,163.686 C87.207,163.686 84.126,163.844 82.546,164.318 C81.914,164.476 81.203,164.239 80.887,163.607 C80.571,162.975 80.097,161.474 79.86,160.605 C79.781,160.447 79.781,160.289 79.781,160.21 C79.781,159.894 79.939,159.815 80.255,159.815 C80.413,159.815 80.65,159.815 80.966,159.894 C83.336,160.605 87.049,160.921 90.288,160.921 L96.213,160.921 C96.371,156.023 96.45,150.177 96.45,145.042 L93.764,145.042 C90.683,145.042 87.681,145.2 86.101,145.674 C85.469,145.832 84.679,145.595 84.363,144.963 C84.047,144.331 83.573,142.988 83.336,142.119 C83.178,141.487 83.336,141.329 83.81,141.329 C83.968,141.329 84.205,141.329 84.521,141.408 C86.891,142.119 90.841,142.435 93.764,142.435 L96.45,142.435 C96.371,137.379 96.213,133.429 95.976,132.481 C95.739,131.454 95.502,130.822 95.502,130.506 C95.502,130.111 95.739,129.953 96.213,129.953 C96.45,129.953 96.766,130.032 97.082,130.032 C101.269,130.348 106.404,130.822 110.591,131.454 C111.776,131.691 112.329,132.323 112.329,133.034 C112.329,133.745 111.776,134.456 110.749,134.693 C109.327,135.088 108.853,135.404 108.853,136.51 C108.853,138.011 108.774,140.144 108.774,142.435 L109.88,142.435 C110.512,142.435 110.907,142.356 111.302,141.803 C112.566,140.065 114.225,137.932 115.726,136.036 C115.963,135.799 116.279,135.72 116.595,135.72 C116.911,135.72 117.227,135.799 117.543,136.036 C119.597,137.774 122.204,140.46 124.653,143.146 C124.89,143.383 125.048,143.699 125.048,144.015 C125.048,144.568 124.653,145.042 123.942,145.042 L108.774,145.042 C108.774,150.335 108.774,156.497 108.853,160.921 L111.46,160.921 C112.092,160.921 112.566,160.842 113.04,160.21 C114.462,158.077 116.358,155.47 117.859,153.574 C118.096,153.258 118.412,153.179 118.728,153.179 C119.123,153.179 119.597,153.337 119.913,153.574 C121.967,155.312 125.206,158.63 127.655,161.395 C127.971,161.711 128.208,162.264 128.208,162.738 Z" id="path-6"></path>
        <filter x="-187.3%" y="-89.7%" width="474.6%" height="279.4%" filterUnits="objectBoundingBox" id="filter-7">
            <feOffset dx="0" dy="0" in="SourceAlpha" result="shadowOffsetOuter1"></feOffset>
            <feGaussianBlur stdDeviation="10" in="shadowOffsetOuter1" result="shadowBlurOuter1"></feGaussianBlur>
            <feColorMatrix values="0 0 0 0 1   0 0 0 0 1   0 0 0 0 1  0 0 0 1 0" type="matrix" in="shadowBlurOuter1" result="shadowMatrixOuter1"></feColorMatrix>
            <feOffset dx="0" dy="0" in="SourceAlpha" result="shadowOffsetOuter2"></feOffset>
            <feGaussianBlur stdDeviation="3.5" in="shadowOffsetOuter2" result="shadowBlurOuter2"></feGaussianBlur>
            <feColorMatrix values="0 0 0 0 1   0 0 0 0 0   0 0 0 0 0  0 0 0 1 0" type="matrix" in="shadowBlurOuter2" result="shadowMatrixOuter2"></feColorMatrix>
            <feOffset dx="0" dy="0" in="SourceAlpha" result="shadowOffsetOuter3"></feOffset>
            <feGaussianBlur stdDeviation="20" in="shadowOffsetOuter3" result="shadowBlurOuter3"></feGaussianBlur>
            <feColorMatrix values="0 0 0 0 1   0 0 0 0 1   0 0 0 0 1  0 0 0 1 0" type="matrix" in="shadowBlurOuter3" result="shadowMatrixOuter3"></feColorMatrix>
            <feOffset dx="0" dy="0" in="SourceAlpha" result="shadowOffsetOuter4"></feOffset>
            <feGaussianBlur stdDeviation="22.5" in="shadowOffsetOuter4" result="shadowBlurOuter4"></feGaussianBlur>
            <feColorMatrix values="0 0 0 0 1   0 0 0 0 0   0 0 0 0 0  0 0 0 1 0" type="matrix" in="shadowBlurOuter4" result="shadowMatrixOuter4"></feColorMatrix>
            <feMerge>
                <feMergeNode in="shadowMatrixOuter1"></feMergeNode>
                <feMergeNode in="shadowMatrixOuter2"></feMergeNode>
                <feMergeNode in="shadowMatrixOuter3"></feMergeNode>
                <feMergeNode in="shadowMatrixOuter4"></feMergeNode>
            </feMerge>
        </filter>
    </defs>
    <g id="Symbols" stroke="none" stroke-width="1" fill="none" fill-rule="evenodd">
        <g id="koma-vecter" transform="translate(28.000000, 24.000000)">
            <g id="narikei-aite" transform="translate(1.000000, 8.000000)">
                <mask id="mask-2" fill="white">
                    <use xlink:href="#path-1"></use>
                </mask>
                <g id="Polygon-Copy-12" transform="translate(92.000000, 102.240664) scale(-1, -1) translate(-92.000000, -102.240664) ">
                    <use fill="black" fill-opacity="1" filter="url(#filter-3)" xlink:href="#path-1"></use>
                    <use stroke="#00FF64" stroke-width="3" fill="#000000" fill-rule="evenodd" xlink:href="#path-1"></use>
                </g>
                <mask id="mask-5" fill="white">
                    <use xlink:href="#path-4"></use>
                </mask>
                <use id="Polygon-Copy-11" stroke="#00FF64" stroke-width="3" fill="#000000" transform="translate(92.000000, 94.240664) scale(-1, -1) translate(-92.000000, -94.240664) " xlink:href="#path-4"></use>
                <g id="keima-nari-copy" mask="url(#mask-5)" transform="translate(92.381500, 91.967500) scale(-1, -1) translate(-92.381500, -91.967500) ">
                    <use fill="black" fill-opacity="1" filter="url(#filter-7)" xlink:href="#path-6"></use>
                    <use fill="#320D08" fill-rule="evenodd" xlink:href="#path-6"></use>
                </g>
            </g>
        </g>
    </g>
</svg>