<?xml version="1.0" encoding="UTF-8"?>
<svg width="232px" height="265px" viewBox="0 0 232 265" version="1.1" xmlns="http://www.w3.org/2000/svg" xmlns:xlink="http://www.w3.org/1999/xlink">
    <!-- Generator: Sketch 47.1 (45422) - http://www.bohemiancoding.com/sketch -->
    <title>kyousha-aite</title>
    <desc>Created with Sketch.</desc>
    <defs>
        <polygon id="path-1" points="87 0 139.2 15.9860987 174 204.481328 0 204.481328 34.8 15.9860987"></polygon>
        <filter x="-41.1%" y="-34.0%" width="182.2%" height="169.9%" filterUnits="objectBoundingBox" id="filter-3">
            <feMorphology radius="1.5" operator="dilate" in="SourceAlpha" result="shadowSpreadOuter1"></feMorphology>
            <feOffset dx="0" dy="1" in="shadowSpreadOuter1" result="shadowOffsetOuter1"></feOffset>
            <feGaussianBlur stdDeviation="15.5" in="shadowOffsetOuter1" result="shadowBlurOuter1"></feGaussianBlur>
            <feComposite in="shadowBlurOuter1" in2="SourceAlpha" operator="out" result="shadowBlurOuter1"></feComposite>
            <feColorMatrix values="0 0 0 0 0   0 0 0 0 1   0 0 0 0 0  0 0 0 1 0" type="matrix" in="shadowBlurOuter1" result="shadowMatrixOuter1"></feColorMatrix>
            <feMorphology radius="1.5" operator="dilate" in="SourceAlpha" result="shadowSpreadOuter2"></feMorphology>
            <feOffset dx="0" dy="1" in="shadowSpreadOuter2" result="shadowOffsetOuter2"></feOffset>
            <feGaussianBlur stdDeviation="11.5" in="shadowOffsetOuter2" result="shadowBlurOuter2"></feGaussianBlur>
            <feComposite in="shadowBlurOuter2" in2="SourceAlpha" operator="out" result="shadowBlurOuter2"></feComposite>
            <feColorMatrix values="0 0 0 0 1   0 0 0 0 1   0 0 0 0 1  0 0 0 1 0" type="matrix" in="shadowBlurOuter2" result="shadowMatrixOuter2"></feColorMatrix>
            <feMerge>
                <feMergeNode in="shadowMatrixOuter1"></feMergeNode>
                <feMergeNode in="shadowMatrixOuter2"></feMergeNode>
            </feMerge>
        </filter>
        <polygon id="path-4" points="87 -8 139.2 7.98609869 174 196.481328 0 196.481328 34.8 7.98609869"></polygon>
        <path d="M123.05,42.317 C123.05,42.712 122.813,43.107 122.339,43.344 C118.863,44.924 118.547,47.373 117.757,53.298 C117.678,53.851 117.441,54.641 116.572,54.641 C116.414,54.641 116.256,54.641 116.019,54.562 C106.065,51.797 97.928,47.057 93.109,35.523 L92.793,35.523 C92.872,40.263 92.872,45.082 93.109,49.19 L93.109,49.348 C93.109,51.955 91.529,53.061 86.473,53.298 L85.604,53.298 C81.97,53.298 80.627,52.35 80.627,50.296 L80.627,49.743 C80.785,47.057 80.864,43.66 80.943,40.5 C76.835,44.924 71.779,48.637 66.091,51.165 C71.305,52.903 76.519,54.72 76.519,54.72 L97.217,54.72 C98.007,54.72 98.481,54.483 99.034,54.088 C100.298,53.219 101.878,51.955 103.537,51.007 C103.853,50.77 104.169,50.691 104.485,50.691 C104.722,50.691 105.038,50.77 105.512,51.007 C107.803,52.192 111.279,54.246 113.333,55.668 C114.123,56.221 114.755,57.011 114.755,57.88 C114.755,58.512 114.36,59.144 113.491,59.618 C111.516,60.724 111.516,61.198 111.437,62.936 C111.358,64.595 111.358,66.728 111.358,69.098 C111.358,72.89 111.437,77.472 111.674,82.212 L111.674,82.449 C111.674,84.977 108.751,85.53 105.038,85.767 C104.169,85.846 103.379,85.846 102.668,85.846 C100.14,85.846 98.797,85.372 98.797,83.239 L98.797,82.844 C98.797,82.212 98.876,81.501 98.876,80.869 L75.571,80.869 L75.571,82.291 C75.571,84.898 73.201,85.609 68.935,85.846 C68.303,85.846 67.671,85.925 67.118,85.925 C64.432,85.925 62.536,85.451 62.536,83.081 L62.536,82.844 C62.931,76.998 63.247,69.493 63.247,63.173 C63.247,58.67 63.089,54.799 62.615,52.666 C59.692,53.614 56.453,54.404 53.214,55.036 L52.898,55.036 C52.345,55.036 52.108,54.72 52.108,54.404 C52.108,54.088 52.266,53.693 52.74,53.456 C60.956,48.163 67.355,42.001 71.226,35.523 L64.59,35.523 C61.509,35.523 58.27,35.681 56.69,36.155 C56.058,36.313 55.426,36.076 55.11,35.444 C54.794,34.812 54.32,33.232 54.083,32.363 C54.004,32.126 54.004,31.968 54.004,31.889 C54.004,31.573 54.162,31.494 54.399,31.494 C54.557,31.494 54.794,31.573 55.11,31.652 C57.48,32.442 61.667,32.679 64.59,32.679 L81.022,32.679 L81.022,27.228 C78.257,27.228 75.413,27.307 72.569,27.307 C68.461,27.307 64.353,27.228 60.166,27.149 C58.823,27.149 58.112,26.675 58.112,26.122 C58.112,25.648 58.744,25.095 60.166,24.937 C77.862,22.251 94.215,18.775 99.587,16.563 C100.614,16.168 100.851,15.773 101.167,15.773 C101.404,15.773 101.562,15.852 101.878,16.089 C105.512,18.143 109.857,20.75 113.412,23.357 C114.202,23.989 114.597,24.7 114.597,25.253 C114.597,25.885 114.123,26.359 113.096,26.359 C112.78,26.359 112.464,26.28 112.069,26.201 C110.173,25.727 110.41,25.569 108.909,25.727 C103.695,26.201 98.165,26.596 92.793,26.833 L92.793,32.679 L103.774,32.679 C104.564,32.679 104.88,32.521 105.433,31.968 C106.855,30.546 109.146,28.571 111.042,26.991 C111.516,26.596 112.306,26.596 113.017,26.991 C115.94,28.65 118.626,30.625 121.47,33.39 C121.786,33.706 122.023,34.101 122.023,34.496 C122.023,35.049 121.628,35.523 120.759,35.523 L96.506,35.523 C102.747,40.184 110.805,41.211 122.023,41.369 C122.655,41.369 123.05,41.843 123.05,42.317 Z M99.113,65.859 C99.113,63.015 99.034,60.25 98.955,57.485 L75.413,57.485 C75.413,60.329 75.413,63.094 75.334,65.859 L99.113,65.859 Z M99.113,68.624 L75.413,68.624 C75.413,71.705 75.413,74.865 75.492,78.025 L98.955,78.025 C99.034,75.023 99.113,71.863 99.113,68.624 Z M123.208,150.678 C123.208,151.231 122.892,151.705 121.944,151.705 L93.188,151.705 C93.267,155.339 93.267,158.894 93.346,162.37 L93.346,162.449 C93.346,165.214 90.581,165.767 85.92,165.846 L85.288,165.846 C81.101,165.846 79.679,165.056 79.679,162.844 L79.679,162.449 C79.837,159.131 79.916,155.497 79.995,151.705 L63.8,151.705 C60.719,151.705 56.137,151.863 54.557,152.337 C53.925,152.495 53.214,152.258 52.898,151.626 C52.582,150.994 52.108,149.335 51.871,148.387 L51.871,148.15 C51.871,147.676 52.187,147.597 52.503,147.597 L52.819,147.597 C52.898,147.676 52.977,147.676 52.977,147.676 C55.9,148.387 60.877,148.782 63.8,148.782 L80.153,148.782 C80.232,146.491 80.232,144.042 80.311,141.672 L72.885,141.672 C72.885,144.279 70.673,145.306 66.328,145.543 C65.775,145.543 65.222,145.622 64.669,145.622 C61.904,145.622 60.087,144.99 60.087,142.699 L60.087,142.383 C60.324,136.537 60.561,128.716 60.561,122.317 C60.561,117.656 60.482,113.785 60.008,112.047 C59.771,111.099 59.692,110.467 59.692,109.993 C59.692,109.282 59.929,109.045 60.324,109.045 C60.561,109.045 60.798,109.124 61.193,109.282 C66.644,111.257 73.754,114.022 73.754,114.022 L80.469,114.022 C80.469,111.81 80.39,109.598 80.311,107.781 L64.353,107.781 C61.272,107.781 58.033,107.939 56.453,108.413 C55.821,108.571 55.189,108.334 54.873,107.702 C54.557,107.07 54.083,105.332 53.846,104.463 C53.767,104.226 53.767,104.147 53.767,103.989 C53.767,103.752 53.925,103.673 54.162,103.673 C54.32,103.673 54.557,103.673 54.873,103.752 C57.243,104.463 61.43,104.779 64.353,104.779 L80.311,104.779 C80.153,101.698 79.995,99.486 79.837,98.38 C79.679,97.432 79.521,96.879 79.521,96.484 C79.521,96.168 79.679,96.01 80.153,96.01 C80.39,96.01 80.627,96.089 80.943,96.089 C84.34,96.405 91.292,96.958 95.163,97.669 C96.19,97.827 96.822,98.459 96.822,99.17 C96.822,99.802 96.269,100.513 95.163,100.829 C93.82,101.224 93.188,101.54 93.188,102.567 C93.188,103.278 93.188,103.989 93.109,104.779 L101.72,104.779 C102.51,104.779 103.379,104.621 103.932,104.068 C105.196,102.725 107.408,100.75 109.383,98.933 C109.699,98.696 110.094,98.538 110.568,98.538 C110.963,98.538 111.358,98.617 111.674,98.854 C114.439,100.671 117.678,103.278 120.364,105.569 C120.68,105.806 120.917,106.28 120.917,106.675 C120.917,107.228 120.522,107.781 119.653,107.781 L93.109,107.781 L93.109,114.022 L98.876,114.022 C99.745,114.022 100.14,113.785 100.614,113.39 C101.957,112.126 103.774,110.941 105.196,109.756 C105.433,109.519 105.828,109.361 106.223,109.361 C106.618,109.361 107.092,109.519 107.566,109.756 C110.015,111.02 113.491,112.916 115.624,114.654 C116.335,115.207 116.809,115.997 116.809,116.708 C116.809,117.34 116.493,117.972 115.703,118.446 C114.044,119.473 113.491,119.473 113.412,121.448 C113.412,123.028 113.333,124.924 113.333,126.899 C113.333,130.928 113.412,135.431 113.649,139.776 L113.649,139.934 C113.649,142.541 111.042,143.173 107.013,143.41 C106.223,143.489 105.512,143.489 104.88,143.489 C102.826,143.489 101.325,143.094 100.93,141.672 L93.109,141.672 C93.188,143.963 93.188,146.412 93.188,148.782 L104.09,148.782 C104.88,148.782 105.433,148.466 105.907,147.992 C107.645,146.254 110.173,144.121 111.753,142.936 C111.99,142.699 112.464,142.541 112.859,142.541 C113.254,142.541 113.57,142.62 113.886,142.857 C116.651,144.674 120.285,147.36 122.655,149.414 C122.971,149.73 123.208,150.204 123.208,150.678 Z M101.167,125.714 C101.167,122.396 101.167,119.394 101.088,117.024 L93.109,117.024 C93.109,119.789 93.03,122.633 93.03,125.714 L101.167,125.714 Z M80.469,125.714 L80.469,117.024 L72.727,117.024 C72.648,119.473 72.648,122.475 72.648,125.714 L80.469,125.714 Z M101.088,128.716 L93.03,128.716 C93.03,132.034 93.03,135.194 93.109,138.749 L100.93,138.749 C101.009,135.51 101.088,132.192 101.088,128.716 Z M80.39,128.716 L72.648,128.716 C72.727,132.192 72.727,135.431 72.806,138.749 L80.311,138.749 C80.39,135.273 80.39,132.113 80.39,128.716 Z" id="path-6"></path>
        <filter x="-47.7%" y="-22.7%" width="195.3%" height="145.3%" filterUnits="objectBoundingBox" id="filter-7">
            <feOffset dx="0" dy="0" in="SourceAlpha" result="shadowOffsetOuter1"></feOffset>
            <feGaussianBlur stdDeviation="10" in="shadowOffsetOuter1" result="shadowBlurOuter1"></feGaussianBlur>
            <feColorMatrix values="0 0 0 0 1   0 0 0 0 1   0 0 0 0 1  0 0 0 1 0" type="matrix" in="shadowBlurOuter1" result="shadowMatrixOuter1"></feColorMatrix>
            <feOffset dx="0" dy="0" in="SourceAlpha" result="shadowOffsetOuter2"></feOffset>
            <feGaussianBlur stdDeviation="2" in="shadowOffsetOuter2" result="shadowBlurOuter2"></feGaussianBlur>
            <feColorMatrix values="0 0 0 0 0   0 0 0 0 1   0 0 0 0 0.392156863  0 0 0 1 0" type="matrix" in="shadowBlurOuter2" result="shadowMatrixOuter2"></feColorMatrix>
            <feMerge>
                <feMergeNode in="shadowMatrixOuter1"></feMergeNode>
                <feMergeNode in="shadowMatrixOuter2"></feMergeNode>
            </feMerge>
        </filter>
    </defs>
    <g id="Symbols" stroke="none" stroke-width="1" fill="none" fill-rule="evenodd">
        <g id="koma-vecter" transform="translate(26.000000, 24.000000)">
            <g id="kyousha-aite" transform="translate(3.000000, 8.000000)">
                <mask id="mask-2" fill="white">
                    <use xlink:href="#path-1"></use>
                </mask>
                <g id="Polygon" transform="translate(87.000000, 102.240664) scale(-1, -1) translate(-87.000000, -102.240664) ">
                    <use fill="black" fill-opacity="1" filter="url(#filter-3)" xlink:href="#path-1"></use>
                    <use stroke="#00FF64" stroke-width="3" fill="#000000" fill-rule="evenodd" xlink:href="#path-1"></use>
                </g>
                <mask id="mask-5" fill="white">
                    <use xlink:href="#path-4"></use>
                </mask>
                <use id="Polygon-Copy-7" stroke="#00FF64" stroke-width="3" fill="#000000" transform="translate(87.000000, 94.240664) scale(-1, -1) translate(-87.000000, -94.240664) " xlink:href="#path-4"></use>
                <g id="kyousha" mask="url(#mask-5)" transform="translate(87.539500, 90.809500) scale(-1, -1) translate(-87.539500, -90.809500) ">
                    <use fill="black" fill-opacity="1" filter="url(#filter-7)" xlink:href="#path-6"></use>
                    <use fill="#0A3208" fill-rule="evenodd" xlink:href="#path-6"></use>
                </g>
            </g>
        </g>
    </g>
</svg>