<?xml version="1.0" encoding="UTF-8"?>
<svg width="248px" height="291px" viewBox="0 0 248 291" version="1.1" xmlns="http://www.w3.org/2000/svg" xmlns:xlink="http://www.w3.org/1999/xlink">
    <!-- Generator: Sketch 47.1 (45422) - http://www.bohemiancoding.com/sketch -->
    <title>hisha-aite</title>
    <desc>Created with Sketch.</desc>
    <defs>
        <polygon id="path-1" points="95 0 152 18.0206931 190 230.506224 0 230.506224 38 18.0206931"></polygon>
        <filter x="-37.6%" y="-30.2%" width="175.3%" height="162.0%" filterUnits="objectBoundingBox" id="filter-3">
            <feMorphology radius="1.5" operator="dilate" in="SourceAlpha" result="shadowSpreadOuter1"></feMorphology>
            <feOffset dx="0" dy="1" in="shadowSpreadOuter1" result="shadowOffsetOuter1"></feOffset>
            <feGaussianBlur stdDeviation="15.5" in="shadowOffsetOuter1" result="shadowBlurOuter1"></feGaussianBlur>
            <feComposite in="shadowBlurOuter1" in2="SourceAlpha" operator="out" result="shadowBlurOuter1"></feComposite>
            <feColorMatrix values="0 0 0 0 0   0 0 0 0 1   0 0 0 0 0  0 0 0 1 0" type="matrix" in="shadowBlurOuter1" result="shadowMatrixOuter1"></feColorMatrix>
            <feMorphology radius="1.5" operator="dilate" in="SourceAlpha" result="shadowSpreadOuter2"></feMorphology>
            <feOffset dx="0" dy="1" in="shadowSpreadOuter2" result="shadowOffsetOuter2"></feOffset>
            <feGaussianBlur stdDeviation="11.5" in="shadowOffsetOuter2" result="shadowBlurOuter2"></feGaussianBlur>
            <feComposite in="shadowBlurOuter2" in2="SourceAlpha" operator="out" result="shadowBlurOuter2"></feComposite>
            <feColorMatrix values="0 0 0 0 1   0 0 0 0 1   0 0 0 0 1  0 0 0 1 0" type="matrix" in="shadowBlurOuter2" result="shadowMatrixOuter2"></feColorMatrix>
            <feMerge>
                <feMergeNode in="shadowMatrixOuter1"></feMergeNode>
                <feMergeNode in="shadowMatrixOuter2"></feMergeNode>
            </feMerge>
        </filter>
        <polygon id="path-4" points="95 -10 152 8.02069307 190 220.506224 0 220.506224 38 8.02069307"></polygon>
        <path d="M138.688,87.336 C138.688,91.368 134.656,94.248 129.088,94.248 C124.768,94.248 119.488,92.52 114.4,88.104 C105.184,80.136 102.016,65.352 101.824,51.336 L98.56,51.336 C98.56,57.288 98.464,63.816 98.464,70.344 C98.464,76.776 98.56,83.304 98.752,89.256 L98.752,89.448 C98.752,92.616 96.832,93.672 90.88,94.056 L89.536,94.056 C85.024,94.056 83.776,92.808 83.776,90.408 L83.776,89.832 C84.256,78.984 84.544,64.296 84.544,51.336 L78.112,51.336 C77.728,60.84 77.056,68.808 74.56,75.048 C70.528,85.128 63.232,90.216 53.632,93.384 C53.344,93.48 53.152,93.576 52.864,93.576 C52.384,93.576 52.192,93.384 52.192,93 C52.192,92.712 52.288,92.328 52.576,91.944 C52.768,91.752 52.96,91.464 53.152,91.272 C57.376,85.704 60.544,80.232 62.656,71.592 C64.192,65.256 64.48,58.344 64.672,51.336 C61.216,51.336 57.28,51.528 55.456,52.104 C54.688,52.296 53.824,52.008 53.44,51.24 C53.056,50.472 52.384,48.552 52.096,47.4 C52,47.112 52,47.016 52,46.824 C52,46.536 52.192,46.44 52.48,46.44 C52.672,46.44 52.96,46.44 53.344,46.536 C56.128,47.4 61.312,47.784 64.768,47.784 L64.768,35.4 C61.504,35.784 57.76,35.976 54.208,36.072 C53.152,36.072 52.768,35.688 52.768,35.208 C52.768,34.728 53.152,34.248 53.728,33.96 C62.848,29.64 69.28,24.552 72.64,20.424 C72.736,20.328 73.216,19.752 73.792,19.752 C73.984,19.752 74.272,19.848 74.56,20.04 C77.44,21.96 81.088,24.456 84.256,26.856 C84.16,25.32 84.064,24.168 83.968,23.4 C83.776,21.864 83.584,21 83.584,20.52 C83.584,20.04 83.68,19.944 84.16,19.944 C84.352,19.944 84.64,20.04 85.024,20.04 C90.496,20.424 95.872,21.192 100.96,22.248 C102.208,22.536 102.88,23.304 102.88,24.168 C102.88,24.936 102.304,25.704 100.96,25.992 C99.04,26.568 98.56,27.24 98.464,28.488 L98.464,31.08 C98.464,35.016 98.56,40.68 98.56,47.784 C100,47.784 100.672,47.784 101.152,47.304 C102.688,45.96 104.704,44.328 106.336,42.984 C106.72,42.696 107.104,42.504 107.584,42.504 C107.968,42.504 108.448,42.6 108.928,42.984 C111.424,44.712 114.112,47.016 117.184,49.704 C117.952,50.28 118.336,51.048 118.336,51.816 C118.336,52.584 117.952,53.352 116.896,54.024 C115.168,55.176 115.168,55.176 115.168,57.192 C115.168,58.248 115.264,59.304 115.36,60.36 L120.256,60.36 C121.888,56.808 122.464,54.504 122.752,51.336 C121.024,50.568 119.104,49.608 117.184,48.264 C107.68,41.736 105.952,29.736 105.184,18.6 L68.416,18.6 C64.672,18.6 60.928,18.792 59.008,19.368 C58.24,19.56 57.376,19.272 56.992,18.504 C56.608,17.736 55.936,15.72 55.648,14.664 C55.552,14.376 55.552,14.28 55.552,14.088 C55.552,13.8 55.744,13.704 56.032,13.704 C56.224,13.704 56.512,13.704 56.896,13.8 C59.776,14.664 64.768,15.048 68.32,15.048 L102.304,15.048 C103.456,15.048 103.936,14.76 104.416,14.28 C106.144,12.648 108.064,10.824 109.696,9.48 C110.08,9.192 110.464,9 110.944,9 C111.328,9 111.808,9.192 112.384,9.48 C114.688,10.824 118.24,13.032 120.256,14.664 C121.216,15.432 121.792,16.296 121.792,17.16 C121.792,17.928 121.408,18.6 120.256,19.272 C118.528,20.232 118.336,20.52 118.336,22.728 C119.392,22.632 120.448,22.632 121.408,22.632 C122.944,19.272 123.904,15.624 123.904,12.36 C123.904,11.784 124.192,11.496 124.768,11.496 C125.056,11.496 125.44,11.496 125.824,11.688 C128.8,12.84 132.928,14.664 136.096,16.296 C136.96,16.68 137.344,17.352 137.344,17.928 C137.344,18.696 136.672,19.368 135.424,19.368 L134.464,19.368 C133.6,19.368 133.024,19.56 132.16,20.136 C130.432,21.096 128.608,22.056 126.304,23.112 C129.088,23.688 131.296,24.84 132.256,26.856 C132.736,27.72 132.928,28.68 132.928,29.448 C132.928,32.52 130.336,34.92 127.648,34.92 C126.496,34.92 125.248,34.536 124.192,33.48 C121.12,30.504 123.136,27.72 118.432,25.128 C118.72,31.56 121.312,35.88 126.016,38.472 C127.168,39.048 128.032,39.336 128.608,39.336 C129.664,39.336 130.24,38.568 130.912,37.128 C131.776,35.304 132.832,32.232 133.6,29.448 C133.696,28.968 134.08,28.68 134.368,28.68 C134.848,28.68 135.328,29.064 135.328,29.736 L135.328,29.928 C135.232,32.52 135.136,34.44 135.136,35.88 C135.136,39.528 135.616,40.296 136.672,41.832 C137.728,43.368 138.304,44.904 138.304,46.344 C138.304,49.896 135.04,52.776 129.856,52.776 C129.376,52.776 128.896,52.68 128.416,52.68 C130.72,53.736 133.312,54.888 135.328,56.04 C136.096,56.52 136.576,57.192 136.576,57.864 C136.576,58.536 136,59.112 134.752,59.112 L133.792,59.112 C133.12,59.112 132.64,59.4 131.296,59.784 C129.088,60.456 127.552,61.032 125.632,61.32 C129.376,61.8 131.68,64.2 132.64,66.216 C133.024,67.176 133.216,68.04 133.216,68.904 C133.216,72.168 130.72,74.664 127.936,74.664 C126.688,74.664 125.344,74.184 124.192,72.936 C121.216,69.96 120.832,65.352 115.648,62.952 C116.896,69.192 119.68,73.8 124.576,77.544 C125.728,78.408 126.88,78.792 127.936,78.792 C129.088,78.792 130.048,78.216 130.816,76.872 C132.064,74.856 133.216,71.688 134.464,68.232 C134.656,67.848 135.04,67.656 135.424,67.656 C135.904,67.656 136.288,67.944 136.288,68.52 L136.288,68.712 C135.712,73.608 135.424,76.488 135.424,78.216 C135.424,80.328 135.808,81.096 136.768,82.344 C138.112,84.072 138.688,85.8 138.688,87.336 Z M84.544,47.784 L84.544,42.408 C84.544,38.28 84.544,34.728 84.448,31.56 C83.488,31.272 83.296,31.272 82.336,31.56 C81.184,31.944 79.648,32.328 78.4,32.712 C78.4,38.184 78.4,42.984 78.208,47.784 L84.544,47.784 Z M138.688,171.528 C138.688,172.2 138.304,172.776 137.152,172.776 L102.208,172.776 C102.304,177.192 102.304,181.512 102.4,185.736 L102.4,185.832 C102.4,189.192 99.04,189.864 93.376,189.96 L92.608,189.96 C87.52,189.96 85.792,189 85.792,186.312 L85.792,185.832 C85.984,181.8 86.08,177.384 86.176,172.776 L66.496,172.776 C62.752,172.776 57.184,172.968 55.264,173.544 C54.496,173.736 53.632,173.448 53.248,172.68 C52.864,171.912 52.288,169.896 52,168.744 L52,168.456 C52,167.88 52.384,167.784 52.768,167.784 L53.152,167.784 C53.248,167.88 53.344,167.88 53.344,167.88 C56.896,168.744 62.944,169.224 66.496,169.224 L86.368,169.224 C86.464,166.44 86.464,163.464 86.56,160.584 L77.536,160.584 C77.536,163.752 74.848,165 69.568,165.288 C68.896,165.288 68.224,165.384 67.552,165.384 C64.192,165.384 61.984,164.616 61.984,161.832 L61.984,161.448 C62.272,154.344 62.56,144.84 62.56,137.064 C62.56,131.4 62.464,126.696 61.888,124.584 C61.6,123.432 61.504,122.664 61.504,122.088 C61.504,121.224 61.792,120.936 62.272,120.936 C62.56,120.936 62.848,121.032 63.328,121.224 C69.952,123.624 78.592,126.984 78.592,126.984 L86.752,126.984 C86.752,124.296 86.656,121.608 86.56,119.4 L67.168,119.4 C63.424,119.4 59.488,119.592 57.568,120.168 C56.8,120.36 56.032,120.072 55.648,119.304 C55.264,118.536 54.688,116.424 54.4,115.368 C54.304,115.08 54.304,114.984 54.304,114.792 C54.304,114.504 54.496,114.408 54.784,114.408 C54.976,114.408 55.264,114.408 55.648,114.504 C58.528,115.368 63.616,115.752 67.168,115.752 L86.56,115.752 C86.368,112.008 86.176,109.32 85.984,107.976 C85.792,106.824 85.6,106.152 85.6,105.672 C85.6,105.288 85.792,105.096 86.368,105.096 C86.656,105.096 86.944,105.192 87.328,105.192 C91.456,105.576 99.904,106.248 104.608,107.112 C105.856,107.304 106.624,108.072 106.624,108.936 C106.624,109.704 105.952,110.568 104.608,110.952 C102.976,111.432 102.208,111.816 102.208,113.064 C102.208,113.928 102.208,114.792 102.112,115.752 L112.576,115.752 C113.536,115.752 114.592,115.56 115.264,114.888 C116.8,113.256 119.488,110.856 121.888,108.648 C122.272,108.36 122.752,108.168 123.328,108.168 C123.808,108.168 124.288,108.264 124.672,108.552 C128.032,110.76 131.968,113.928 135.232,116.712 C135.616,117 135.904,117.576 135.904,118.056 C135.904,118.728 135.424,119.4 134.368,119.4 L102.112,119.4 L102.112,126.984 L109.12,126.984 C110.176,126.984 110.656,126.696 111.232,126.216 C112.864,124.68 115.072,123.24 116.8,121.8 C117.088,121.512 117.568,121.32 118.048,121.32 C118.528,121.32 119.104,121.512 119.68,121.8 C122.656,123.336 126.88,125.64 129.472,127.752 C130.336,128.424 130.912,129.384 130.912,130.248 C130.912,131.016 130.528,131.784 129.568,132.36 C127.552,133.608 126.88,133.608 126.784,136.008 C126.784,137.928 126.688,140.232 126.688,142.632 C126.688,147.528 126.784,153 127.072,158.28 L127.072,158.472 C127.072,161.64 123.904,162.408 119.008,162.696 C118.048,162.792 117.184,162.792 116.416,162.792 C113.92,162.792 112.096,162.312 111.616,160.584 L102.112,160.584 C102.208,163.368 102.208,166.344 102.208,169.224 L115.456,169.224 C116.416,169.224 117.088,168.84 117.664,168.264 C119.776,166.152 122.848,163.56 124.768,162.12 C125.056,161.832 125.632,161.64 126.112,161.64 C126.592,161.64 126.976,161.736 127.36,162.024 C130.72,164.232 135.136,167.496 138.016,169.992 C138.4,170.376 138.688,170.952 138.688,171.528 Z M111.904,141.192 C111.904,137.16 111.904,133.512 111.808,130.632 L102.112,130.632 C102.112,133.992 102.016,137.448 102.016,141.192 L111.904,141.192 Z M86.752,141.192 L86.752,130.632 L77.344,130.632 C77.248,133.608 77.248,137.256 77.248,141.192 L86.752,141.192 Z M111.808,144.84 L102.016,144.84 C102.016,148.872 102.016,152.712 102.112,157.032 L111.616,157.032 C111.712,153.096 111.808,149.064 111.808,144.84 Z M86.656,144.84 L77.248,144.84 C77.344,149.064 77.344,153 77.44,157.032 L86.56,157.032 C86.656,152.808 86.656,148.968 86.656,144.84 Z" id="path-6"></path>
        <filter x="-39.2%" y="-18.8%" width="178.4%" height="137.6%" filterUnits="objectBoundingBox" id="filter-7">
            <feOffset dx="0" dy="0" in="SourceAlpha" result="shadowOffsetOuter1"></feOffset>
            <feGaussianBlur stdDeviation="10" in="shadowOffsetOuter1" result="shadowBlurOuter1"></feGaussianBlur>
            <feColorMatrix values="0 0 0 0 1   0 0 0 0 1   0 0 0 0 1  0 0 0 1 0" type="matrix" in="shadowBlurOuter1" result="shadowMatrixOuter1"></feColorMatrix>
            <feOffset dx="0" dy="0" in="SourceAlpha" result="shadowOffsetOuter2"></feOffset>
            <feGaussianBlur stdDeviation="2" in="shadowOffsetOuter2" result="shadowBlurOuter2"></feGaussianBlur>
            <feColorMatrix values="0 0 0 0 0   0 0 0 0 1   0 0 0 0 0.392156863  0 0 0 1 0" type="matrix" in="shadowBlurOuter2" result="shadowMatrixOuter2"></feColorMatrix>
            <feMerge>
                <feMergeNode in="shadowMatrixOuter1"></feMergeNode>
                <feMergeNode in="shadowMatrixOuter2"></feMergeNode>
            </feMerge>
        </filter>
    </defs>
    <g id="Symbols" stroke="none" stroke-width="1" fill="none" fill-rule="evenodd">
        <g id="koma-vecter" transform="translate(28.000000, 24.000000)">
            <g id="hisha-aite" transform="translate(1.000000, 8.000000)">
                <mask id="mask-2" fill="white">
                    <use xlink:href="#path-1"></use>
                </mask>
                <g id="Polygon" transform="translate(95.000000, 115.253112) scale(1, -1) translate(-95.000000, -115.253112) ">
                    <use fill="black" fill-opacity="1" filter="url(#filter-3)" xlink:href="#path-1"></use>
                    <use stroke="#00FF64" stroke-width="3" fill="#000000" fill-rule="evenodd" xlink:href="#path-1"></use>
                </g>
                <mask id="mask-5" fill="white">
                    <use xlink:href="#path-4"></use>
                </mask>
                <use id="Polygon-Copy-2" stroke="#00FF64" stroke-width="3" fill="#000000" transform="translate(95.000000, 105.253112) scale(1, -1) translate(-95.000000, -105.253112) " xlink:href="#path-4"></use>
                <g id="hisha" mask="url(#mask-5)" transform="translate(95.344000, 99.480000) scale(-1, -1) translate(-95.344000, -99.480000) ">
                    <use fill="black" fill-opacity="1" filter="url(#filter-7)" xlink:href="#path-6"></use>
                    <use fill="#0A3208" fill-rule="evenodd" xlink:href="#path-6"></use>
                </g>
            </g>
        </g>
    </g>
</svg>