<?xml version="1.0" encoding="UTF-8"?>
<svg width="248px" height="291px" viewBox="0 0 248 291" version="1.1" xmlns="http://www.w3.org/2000/svg" xmlns:xlink="http://www.w3.org/1999/xlink">
    <!-- Generator: Sketch 47.1 (45422) - http://www.bohemiancoding.com/sketch -->
    <title>kaku-aite</title>
    <desc>Created with Sketch.</desc>
    <defs>
        <polygon id="path-1" points="95 0 152 18.0206931 190 230.506224 0 230.506224 38 18.0206931"></polygon>
        <filter x="-37.6%" y="-30.2%" width="175.3%" height="162.0%" filterUnits="objectBoundingBox" id="filter-3">
            <feMorphology radius="1.5" operator="dilate" in="SourceAlpha" result="shadowSpreadOuter1"></feMorphology>
            <feOffset dx="0" dy="1" in="shadowSpreadOuter1" result="shadowOffsetOuter1"></feOffset>
            <feGaussianBlur stdDeviation="15.5" in="shadowOffsetOuter1" result="shadowBlurOuter1"></feGaussianBlur>
            <feComposite in="shadowBlurOuter1" in2="SourceAlpha" operator="out" result="shadowBlurOuter1"></feComposite>
            <feColorMatrix values="0 0 0 0 0   0 0 0 0 1   0 0 0 0 0  0 0 0 1 0" type="matrix" in="shadowBlurOuter1" result="shadowMatrixOuter1"></feColorMatrix>
            <feMorphology radius="1.5" operator="dilate" in="SourceAlpha" result="shadowSpreadOuter2"></feMorphology>
            <feOffset dx="0" dy="1" in="shadowSpreadOuter2" result="shadowOffsetOuter2"></feOffset>
            <feGaussianBlur stdDeviation="11.5" in="shadowOffsetOuter2" result="shadowBlurOuter2"></feGaussianBlur>
            <feComposite in="shadowBlurOuter2" in2="SourceAlpha" operator="out" result="shadowBlurOuter2"></feComposite>
            <feColorMatrix values="0 0 0 0 1   0 0 0 0 1   0 0 0 0 1  0 0 0 1 0" type="matrix" in="shadowBlurOuter2" result="shadowMatrixOuter2"></feColorMatrix>
            <feMerge>
                <feMergeNode in="shadowMatrixOuter1"></feMergeNode>
                <feMergeNode in="shadowMatrixOuter2"></feMergeNode>
            </feMerge>
        </filter>
        <polygon id="path-4" points="95 -10 152 8.02069307 190 220.506224 0 220.506224 38 8.02069307"></polygon>
        <path d="M134.944,40.632 C134.944,41.4 134.464,42.072 133.504,42.744 C131.488,44.088 130.816,44.28 130.72,46.296 C130.624,49.944 130.624,54.264 130.624,58.68 C130.624,68.568 130.72,79.416 130.816,86.424 L130.816,86.808 C130.816,95.832 127.744,98.712 114.4,99.768 C113.92,99.768 113.536,99.864 113.248,99.864 C111.904,99.864 111.712,99.48 111.52,98.232 C110.56,90.072 109.504,88.824 100.672,85.464 C100.096,85.176 99.712,84.6 99.712,84.024 C99.712,83.544 100,83.064 100.768,83.064 L100.864,83.064 C104.704,83.352 110.176,83.544 113.536,83.544 C115.36,83.544 115.648,82.968 115.744,81.048 C115.84,79.416 115.84,77.304 115.84,74.808 L77.344,74.808 C74.368,89.4 65.632,96.312 53.92,99.768 C53.632,99.864 53.44,99.864 53.248,99.864 C52.576,99.864 52.096,99.576 52.096,99 C52.096,98.808 52.192,98.424 52.48,98.04 C58.144,91.032 61.792,82.776 63.136,72.696 C63.904,67.896 64.192,61.08 64.192,54.744 C64.192,51.288 64.096,47.928 63.904,45.144 C60.832,46.488 57.376,47.832 53.824,48.792 C53.632,48.792 53.536,48.888 53.344,48.888 C52.672,48.888 52.288,48.408 52.288,47.832 C52.288,47.544 52.384,47.16 52.768,46.872 C64.864,36.312 72.928,24.888 74.56,16.248 C74.752,15.288 75.04,15 75.616,15 C75.808,15 76.096,15 76.384,15.096 C81.568,15.96 88.672,17.592 94.432,18.936 C95.392,19.128 95.872,19.896 95.872,20.664 C95.872,21.528 95.296,22.296 93.76,22.392 C91.36,22.584 90.592,23.16 90.016,23.832 C89.824,24.12 89.632,24.504 89.344,24.792 L95.872,24.792 C96.736,24.792 97.504,24.408 97.984,24.024 C99.712,22.584 102.112,20.568 103.84,19.32 C104.224,19.032 104.608,18.84 105.088,18.84 C105.664,18.84 106.144,19.032 106.72,19.32 C109.888,20.952 113.44,23.448 116.704,25.848 C118.048,26.808 118.72,27.96 118.72,28.92 C118.72,30.168 117.664,31.032 115.744,31.128 C112.48,31.224 111.904,31.608 110.368,32.376 C106.72,34.2 103.648,36.216 99.904,37.944 L113.536,37.944 C114.304,37.944 114.784,37.752 115.168,37.368 C116.896,35.736 119.392,33.432 121.216,31.8 C121.6,31.512 121.984,31.32 122.464,31.32 C122.944,31.32 123.424,31.512 123.904,31.8 C126.496,33.336 130.912,36.024 133.696,38.328 C134.56,39.096 134.944,39.864 134.944,40.632 Z M97.888,28.344 L86.656,28.344 C84.16,31.416 81.184,34.296 77.824,36.888 C79.264,37.56 80.32,37.944 80.32,37.944 L92.032,37.944 C94.336,34.968 96.448,31.416 97.888,28.344 Z M115.936,53.4 C115.936,48.792 115.936,44.376 115.84,41.496 L104.416,41.496 C104.32,44.568 104.32,48.888 104.32,53.4 L115.936,53.4 Z M90.016,53.4 L90.016,46.968 C90.016,44.856 90.016,43.032 89.92,41.496 L78.88,41.496 L78.88,53.4 L90.016,53.4 Z M115.936,71.16 L115.936,56.952 L104.224,56.952 C104.224,61.848 104.224,66.648 104.416,71.16 L115.936,71.16 Z M90.016,56.952 L78.88,56.952 C78.784,62.04 78.688,66.744 78.016,71.16 L89.728,71.16 C89.92,66.744 90.016,61.944 90.016,56.952 Z M134.464,121.848 C134.464,121.272 134.176,120.696 133.792,120.312 C130.528,117.336 126.304,114.168 123.328,112.056 C122.464,111.384 121.504,111.384 120.832,112.056 C118.816,114.168 116.128,116.856 114.4,118.776 C113.728,119.544 113.344,119.64 112.384,119.64 L102.784,119.64 C99.232,119.64 94.24,119.256 91.36,118.392 C90.976,118.296 90.688,118.296 90.496,118.296 C90.208,118.296 90.016,118.392 90.016,118.68 C90.016,118.872 90.016,118.968 90.112,119.256 C90.4,120.312 91.072,122.232 91.456,123 C91.744,123.576 92.224,123.864 92.8,123.864 C92.992,123.864 93.184,123.864 93.376,123.768 C95.296,123.288 98.944,123.096 102.688,123.096 L132.928,123.096 C133.984,123.096 134.464,122.52 134.464,121.848 Z M89.44,136.248 C89.44,137.112 88.672,137.976 87.136,138.072 C85.024,138.168 84.64,138.552 83.68,139.992 C81.952,142.68 80.128,145.176 78.208,147.48 C78.208,153.24 78.112,158.904 78.112,164.376 C78.112,173.784 78.208,182.808 78.4,191.736 C78.4,193.944 76,195.576 70.144,195.864 L68.512,195.864 C64.384,195.864 63.04,194.904 63.04,192.6 L63.04,192.312 C63.328,183.384 63.52,174.072 63.52,165.24 L63.52,159.864 C60.64,161.496 57.088,162.936 53.92,164.28 C53.632,164.376 53.344,164.472 53.056,164.472 C52.384,164.472 52,164.088 52,163.512 C52,163.128 52.192,162.744 52.48,162.36 C60.448,152.952 68.224,139.896 69.664,130.68 C65.536,133.176 60.064,135.864 55.168,137.688 C54.784,137.88 54.4,137.88 54.112,137.88 C53.44,137.88 53.056,137.496 53.056,137.016 C53.056,136.632 53.344,136.152 53.728,135.672 C59.872,129.144 64.96,121.368 67.264,112.728 C67.456,112.056 67.264,111 68.224,111 L68.512,111 C73.792,112.152 80.704,114.168 85.504,115.704 C86.752,116.088 87.424,116.952 87.424,117.72 C87.424,118.584 86.656,119.352 85.024,119.544 C83.104,119.736 82.72,119.544 81.664,120.792 C79.072,123.672 75.424,126.744 71.2,129.528 C76.384,130.872 82.912,132.696 87.808,134.328 C88.864,134.712 89.44,135.48 89.44,136.248 Z M138.784,142.584 C138.784,143.256 138.304,143.832 137.248,143.832 L124.192,143.832 C124.192,154.104 124.192,166.488 124.384,182.808 L124.384,183.192 C124.384,190.968 121.12,194.616 107.776,195.96 L107.008,195.96 C105.856,195.96 105.28,195.576 105.184,194.328 C104.704,186.456 102.688,185.016 92.032,180.792 C91.36,180.504 91.072,180.024 91.072,179.448 C91.072,178.872 91.552,178.392 92.224,178.392 L92.32,178.392 C96.928,178.68 103.456,179.064 106.432,179.064 C108.256,179.064 108.928,177.912 108.928,176.472 C109.12,166.008 109.12,150.744 108.928,143.832 L99.232,143.832 C95.488,143.832 91.84,144.024 89.92,144.504 C89.728,144.6 89.536,144.6 89.44,144.6 C88.864,144.6 88.288,144.216 88,143.64 C87.616,142.872 86.944,141.048 86.656,139.992 C86.56,139.704 86.56,139.608 86.56,139.416 C86.56,139.128 86.752,139.032 87.04,139.032 C87.232,139.032 87.52,139.032 87.904,139.128 C90.784,139.992 95.776,140.376 99.328,140.376 L115.648,140.376 C116.608,140.376 116.992,140.28 117.664,139.512 C119.488,137.208 122.464,134.04 124.576,131.544 C124.864,131.16 125.344,131.064 125.728,131.064 C126.208,131.064 126.784,131.256 127.168,131.544 C130.816,134.328 134.848,137.88 138.112,141.048 C138.496,141.528 138.784,142.104 138.784,142.584 Z" id="path-6"></path>
        <filter x="-39.2%" y="-18.8%" width="178.4%" height="137.6%" filterUnits="objectBoundingBox" id="filter-7">
            <feOffset dx="0" dy="0" in="SourceAlpha" result="shadowOffsetOuter1"></feOffset>
            <feGaussianBlur stdDeviation="10" in="shadowOffsetOuter1" result="shadowBlurOuter1"></feGaussianBlur>
            <feColorMatrix values="0 0 0 0 1   0 0 0 0 1   0 0 0 0 1  0 0 0 1 0" type="matrix" in="shadowBlurOuter1" result="shadowMatrixOuter1"></feColorMatrix>
            <feOffset dx="0" dy="0" in="SourceAlpha" result="shadowOffsetOuter2"></feOffset>
            <feGaussianBlur stdDeviation="2" in="shadowOffsetOuter2" result="shadowBlurOuter2"></feGaussianBlur>
            <feColorMatrix values="0 0 0 0 0   0 0 0 0 1   0 0 0 0 0.392156863  0 0 0 1 0" type="matrix" in="shadowBlurOuter2" result="shadowMatrixOuter2"></feColorMatrix>
            <feMerge>
                <feMergeNode in="shadowMatrixOuter1"></feMergeNode>
                <feMergeNode in="shadowMatrixOuter2"></feMergeNode>
            </feMerge>
        </filter>
    </defs>
    <g id="Symbols" stroke="none" stroke-width="1" fill="none" fill-rule="evenodd">
        <g id="koma-vecter" transform="translate(29.000000, 27.000000)">
            <g id="kaku-aite" transform="translate(0.000000, 5.000000)">
                <mask id="mask-2" fill="white">
                    <use xlink:href="#path-1"></use>
                </mask>
                <g id="Polygon" transform="translate(95.000000, 115.253112) scale(-1, -1) translate(-95.000000, -115.253112) ">
                    <use fill="black" fill-opacity="1" filter="url(#filter-3)" xlink:href="#path-1"></use>
                    <use stroke="#00FF64" stroke-width="3" fill="#000000" fill-rule="evenodd" xlink:href="#path-1"></use>
                </g>
                <mask id="mask-5" fill="white">
                    <use xlink:href="#path-4"></use>
                </mask>
                <use id="Polygon-Copy-3" stroke="#00FF64" stroke-width="3" fill="#000000" transform="translate(95.000000, 105.253112) scale(-1, -1) translate(-95.000000, -105.253112) " xlink:href="#path-4"></use>
                <g id="kakukou" mask="url(#mask-5)" transform="translate(95.392000, 105.480000) scale(-1, -1) translate(-95.392000, -105.480000) ">
                    <use fill="black" fill-opacity="1" filter="url(#filter-7)" xlink:href="#path-6"></use>
                    <use fill="#0A3208" fill-rule="evenodd" xlink:href="#path-6"></use>
                </g>
            </g>
        </g>
    </g>
</svg>