<?xml version="1.0" encoding="UTF-8"?>
<svg width="248px" height="291px" viewBox="0 0 248 291" version="1.1" xmlns="http://www.w3.org/2000/svg" xmlns:xlink="http://www.w3.org/1999/xlink">
    <!-- Generator: Sketch 47.1 (45422) - http://www.bohemiancoding.com/sketch -->
    <title>narikaku-aite</title>
    <desc>Created with Sketch.</desc>
    <defs>
        <polygon id="path-1" points="95 0 152 18.0206931 190 230.506224 0 230.506224 38 18.0206931"></polygon>
        <filter x="-37.6%" y="-30.2%" width="175.3%" height="162.0%" filterUnits="objectBoundingBox" id="filter-3">
            <feMorphology radius="1.5" operator="dilate" in="SourceAlpha" result="shadowSpreadOuter1"></feMorphology>
            <feOffset dx="0" dy="1" in="shadowSpreadOuter1" result="shadowOffsetOuter1"></feOffset>
            <feGaussianBlur stdDeviation="15.5" in="shadowOffsetOuter1" result="shadowBlurOuter1"></feGaussianBlur>
            <feComposite in="shadowBlurOuter1" in2="SourceAlpha" operator="out" result="shadowBlurOuter1"></feComposite>
            <feColorMatrix values="0 0 0 0 0   0 0 0 0 1   0 0 0 0 0  0 0 0 1 0" type="matrix" in="shadowBlurOuter1" result="shadowMatrixOuter1"></feColorMatrix>
            <feMorphology radius="1.5" operator="dilate" in="SourceAlpha" result="shadowSpreadOuter2"></feMorphology>
            <feOffset dx="0" dy="1" in="shadowSpreadOuter2" result="shadowOffsetOuter2"></feOffset>
            <feGaussianBlur stdDeviation="11.5" in="shadowOffsetOuter2" result="shadowBlurOuter2"></feGaussianBlur>
            <feComposite in="shadowBlurOuter2" in2="SourceAlpha" operator="out" result="shadowBlurOuter2"></feComposite>
            <feColorMatrix values="0 0 0 0 1   0 0 0 0 1   0 0 0 0 1  0 0 0 1 0" type="matrix" in="shadowBlurOuter2" result="shadowMatrixOuter2"></feColorMatrix>
            <feMerge>
                <feMergeNode in="shadowMatrixOuter1"></feMergeNode>
                <feMergeNode in="shadowMatrixOuter2"></feMergeNode>
            </feMerge>
        </filter>
        <polygon id="path-4" points="95 -10 152 8.02069307 190 220.506224 0 220.506224 38 8.02069307"></polygon>
        <path d="M96.16,21.328 C96.16,22.096 95.584,22.576 94.624,22.576 L65.632,22.576 C62.464,22.576 58.72,22.768 56.896,23.344 C56.128,23.536 55.36,23.248 54.976,22.48 C54.592,21.712 54.016,19.984 53.728,18.928 C53.632,18.64 53.632,18.544 53.632,18.352 C53.632,18.064 53.824,17.968 54.112,17.968 C54.304,17.968 54.592,17.968 54.976,18.064 C57.664,18.928 62.272,19.312 65.44,19.312 L65.44,17.872 C65.44,16.144 65.344,14.224 65.056,13.072 C64.768,11.92 64.576,11.248 64.576,10.768 C64.576,10.192 64.864,10 65.536,10 C65.824,10 66.112,10.096 66.496,10.096 C69.856,10.288 78.112,10.96 81.28,11.44 C82.624,11.632 83.2,12.4 83.2,13.168 C83.2,14.032 82.624,14.896 81.472,15.28 C79.84,15.856 79.264,16.336 79.264,17.776 L79.264,19.312 L81.184,19.312 C81.76,19.312 82.336,19.024 82.72,18.544 C83.968,16.72 85.312,15.184 86.848,13.168 C87.328,12.592 88.192,12.592 88.864,13.168 C91.264,15.184 93.376,17.488 95.68,20.176 C95.968,20.56 96.16,21.04 96.16,21.328 Z M138.88,85.456 C138.88,88.72 136.672,92.176 131.296,92.944 C127.552,93.52 122.368,93.712 117.376,93.712 C113.152,93.712 109.12,93.616 106.144,93.328 C99.904,92.848 96.544,90.256 96.544,82.864 L96.544,82.192 C96.64,75.472 96.736,68.368 96.736,61.552 C96.736,54.064 96.64,47.056 96.16,41.392 L64.768,41.392 C61.024,41.488 57.376,41.584 55.456,42.16 C54.688,42.352 53.92,42.064 53.536,41.296 C53.152,40.528 52.48,38.8 52.192,37.744 C52.096,37.456 52.096,37.36 52.096,37.168 C52.096,36.88 52.288,36.784 52.576,36.784 C52.768,36.784 53.056,36.784 53.44,36.88 C56.128,37.744 61.12,38.128 64.576,38.128 C63.328,37.552 62.176,36.496 61.6,34.768 C61.312,33.904 61.216,33.136 61.216,32.272 C61.216,31.408 61.312,30.544 61.312,29.68 C61.312,28.048 61.024,26.608 59.296,25.072 C59.008,24.784 58.816,24.496 58.816,24.208 C58.816,23.824 59.2,23.44 59.968,23.44 L60.256,23.44 C66.016,24.208 72.352,26.032 73.12,31.312 C73.216,31.696 73.216,32.08 73.216,32.464 C73.216,35.344 71.392,37.264 69.184,38.128 L73.888,38.128 C75.232,33.52 76.192,29.488 76.192,25.648 C76.192,25.168 76.096,24.592 76.096,24.112 L76.096,23.44 C76.096,22.96 76.192,22.768 76.672,22.768 L76.96,22.768 C81.184,23.344 86.656,24.304 90.784,25.36 C91.744,25.648 92.512,26.416 92.512,27.184 C92.512,27.76 91.936,28.336 90.592,28.432 C88.672,28.624 87.904,28.912 87.232,29.68 C84.64,32.656 81.376,35.632 77.92,38.128 L82.144,38.128 C83.008,38.128 83.584,37.84 84.064,37.264 C85.504,35.44 87.136,33.424 88.48,31.6 C88.768,31.216 89.056,31.024 89.536,31.024 C89.92,31.024 90.304,31.216 90.784,31.6 C92.896,33.616 97.792,38.512 98.272,40.144 C104.896,41.776 111.52,43.6 111.52,43.6 L119.68,43.6 C119.776,41.488 119.968,39.28 119.968,37.36 C119.968,36.304 119.872,35.344 119.776,34.576 L110.272,34.576 C110.08,36.592 107.968,37.168 103.264,37.552 C102.304,37.648 101.536,37.648 100.768,37.648 C97.504,37.648 95.968,36.88 96.16,34.384 C96.448,31.216 96.832,24.496 96.832,19.12 C96.832,16.432 96.736,14.128 96.448,12.688 C96.256,11.728 96.16,11.152 96.16,10.768 C96.16,10.096 96.352,10 96.832,10 C97.024,10 97.312,10.096 97.696,10.096 C102.496,10.384 107.008,10.864 112.096,11.44 C113.248,11.632 113.824,12.4 113.824,13.168 C113.824,13.936 113.248,14.704 112,14.992 C110.368,15.376 110.08,15.952 110.08,17.104 L110.08,20.176 L118.528,20.176 C119.392,20.176 119.776,20.176 120.352,19.504 C121.888,17.584 124.384,14.704 126.112,12.784 C126.4,12.4 126.784,12.208 127.072,12.208 C127.456,12.208 127.84,12.4 128.32,12.784 C131.488,15.184 134.56,18.16 137.344,21.136 C137.632,21.424 137.92,22 137.92,22.384 C137.92,23.056 137.536,23.536 136.48,23.536 L110.08,23.536 C110.08,26.128 110.08,28.816 110.176,31.216 L117.184,31.216 C118.24,31.216 118.912,30.928 119.392,30.448 C121.024,29.008 122.752,27.568 124.288,26.128 C124.576,25.84 124.96,25.744 125.44,25.744 C126.016,25.744 126.592,25.84 127.072,26.128 C129.568,27.472 132.448,29.488 135.136,31.504 C135.904,31.984 136.384,32.752 136.384,33.616 C136.384,34.192 136,34.96 135.04,35.536 C133.312,36.688 132.832,36.784 132.832,38.704 L132.832,39.952 C132.832,41.2 132.928,42.544 133.024,44.272 L133.024,44.752 C133.024,47.152 131.008,47.824 126.688,48.208 C128.704,49.552 131.104,51.568 133.696,54.064 C134.56,54.928 134.272,56.368 132.832,56.368 L110.272,56.368 L110.272,62.224 L118.336,62.224 C119.008,62.224 119.488,62.128 119.968,61.648 C121.312,60.208 122.656,58.768 124.384,57.232 C124.96,56.656 125.536,56.656 126.4,57.232 C128.416,58.576 131.008,60.688 133.696,63.28 C134.56,64.144 134.272,65.488 132.832,65.488 L110.272,65.488 C110.368,67.6 110.368,69.712 110.368,71.728 L117.856,71.728 C118.528,71.728 118.912,71.632 119.392,71.056 L123.808,66.64 C124.384,66.16 124.96,66.16 125.824,66.64 C127.648,67.888 129.856,69.616 132.256,71.92 C132.448,71.344 132.544,70.768 132.736,70.192 C132.928,69.52 133.408,69.136 133.984,69.136 C134.464,69.136 134.848,69.52 134.848,70.48 C134.848,72.496 134.752,74.032 134.752,75.28 C134.752,78.736 135.04,79.312 136.48,80.368 C137.92,81.52 138.88,83.44 138.88,85.456 Z M94.144,51.76 C92.512,52.72 91.744,53.296 91.744,54.544 C91.648,59.536 91.648,67.984 91.648,75.376 L91.648,84.208 C91.648,89.584 89.536,93.808 78.88,94.96 L78.4,94.96 C77.536,94.96 76.768,94.672 76.672,93.328 C76.288,86.608 75.232,85.456 69.952,83.152 C69.952,86.032 70.048,88.528 70.048,91.216 C70.048,93.904 67.552,94.672 62.944,94.864 L61.792,94.864 C58.432,94.864 56.416,94.096 56.416,91.888 L56.416,91.6 C56.8,86.704 56.992,76.816 56.992,67.312 C56.992,56.848 56.704,47.056 56.032,45.136 C55.744,44.368 55.648,43.888 55.648,43.504 C55.648,43.12 55.744,43.024 56.032,43.024 C56.224,43.024 56.512,43.12 56.896,43.216 C63.232,44.752 70.816,47.152 70.816,47.152 L76.576,47.152 C77.44,47.152 78.016,46.864 78.592,46.384 C80.032,45.424 81.664,43.696 83.104,42.64 C83.872,42.064 84.736,42.064 85.792,42.64 C88.192,43.888 91.264,45.808 93.856,47.536 C95.68,48.688 95.776,50.704 94.144,51.76 Z M124,48.4 C121.696,48.4 120.736,48.016 119.968,46.96 L110.464,46.96 C110.368,48.88 110.368,50.896 110.272,53.104 L118.336,53.104 C119.008,53.104 119.488,53.008 119.968,52.528 C121.216,51.184 122.464,49.84 124,48.4 Z M78.976,57.808 C78.976,55.216 78.976,52.72 78.88,50.512 L69.952,50.512 C69.952,52.816 69.856,55.312 69.856,57.808 L78.976,57.808 Z M78.976,69.136 L78.976,61.168 L69.856,61.168 L69.856,69.136 L78.976,69.136 Z M78.976,72.496 L69.856,72.496 C69.856,75.184 69.952,78.256 69.952,81.04 C71.392,81.232 73.696,81.328 75.616,81.328 L76.864,81.328 C78.4,81.328 78.784,80.848 78.784,79.408 C78.88,77.392 78.88,74.8 78.976,72.496 Z M131.296,74.896 L110.368,74.896 L110.368,78.16 C110.368,80.848 110.944,81.136 112.864,81.424 C116.032,81.808 121.984,81.808 124.864,81.424 C128.416,80.944 130.048,80.464 131.296,74.896 Z M138.592,157.168 C138.592,157.936 138.112,158.8 136.96,159.472 C135.712,160.144 135.04,160.336 134.848,163.024 C134.464,168.592 132.928,177.904 131.392,183.376 C129.664,189.712 123.136,190.672 113.632,190.96 L112.96,190.96 C112,190.96 111.52,190.768 111.424,189.616 C110.848,182.896 110.08,181.456 102.112,178.384 C101.056,177.904 101.152,176.368 102.4,176.368 L102.592,176.368 C106.528,176.656 109.792,176.944 112.96,176.944 C115.36,176.944 116.608,176.56 117.376,173.488 C118.24,169.36 119.104,163.408 119.392,157.456 L78.304,157.456 C77.92,160.24 74.752,161.584 69.184,161.872 C68.32,161.968 67.456,161.968 66.688,161.968 C63.52,161.968 61.6,161.392 61.6,158.608 L61.6,158.224 C62.08,150.256 62.272,138.256 62.272,127.984 C62.272,118.864 62.08,111.088 61.696,108.784 C61.6,108.016 61.504,107.536 61.504,107.248 C61.504,106.864 61.6,106.672 61.888,106.672 C62.176,106.672 62.656,106.768 63.232,106.96 C68.608,108.496 78.976,112.816 78.976,112.816 L112.192,112.816 C112.96,112.816 113.344,112.624 113.92,111.952 C115.648,110.224 118.24,107.824 120.064,106.384 C120.736,105.808 121.216,105.808 122.176,106.384 C124.672,108.016 128.512,111.088 131.584,113.872 C132.064,114.256 132.256,114.64 132.256,115.024 C132.256,115.696 131.68,116.176 130.816,116.176 L104.704,116.176 C104.704,119.44 104.608,122.704 104.608,126.064 L109.216,126.064 C109.984,126.064 110.368,125.968 110.944,125.2 C112.288,123.568 114.784,120.688 116.32,119.056 C116.896,118.384 117.568,118.384 118.432,119.056 C120.832,120.88 124.384,124.24 127.072,127.12 C127.456,127.504 127.648,127.984 127.648,128.368 C127.648,128.944 127.168,129.424 126.304,129.424 L104.512,129.424 L104.512,139.696 L109.408,139.696 C110.176,139.696 110.656,139.6 111.136,138.832 C112.576,136.912 114.88,134.224 116.608,132.4 C117.28,131.728 117.952,131.728 118.72,132.4 C121.312,134.512 124.768,137.68 127.648,140.752 C128.032,141.136 128.128,141.616 128.128,142 C128.128,142.576 127.744,143.056 126.88,143.056 L104.512,143.056 C104.512,146.608 104.512,150.352 104.608,154.192 L117.376,154.192 C118.432,154.192 118.72,154.096 119.2,153.712 C120.832,152.368 124.192,149.488 125.632,148.336 C126.112,147.952 126.4,147.76 126.88,147.76 C127.264,147.76 127.648,147.952 128.224,148.336 C131.008,150.064 134.464,152.656 137.44,154.96 C138.112,155.536 138.592,156.304 138.592,157.168 Z M115.84,168.304 C115.84,171.76 112.672,174.064 109.6,174.064 C107.68,174.064 105.856,173.104 104.896,170.992 C103.072,166.672 104.8,163.6 100.576,160.432 C100.288,160.24 100.096,159.952 100.096,159.664 C100.096,159.376 100.48,159.088 101.344,159.088 C107.68,159.28 114.112,161.488 115.552,166.48 C115.744,167.152 115.84,167.728 115.84,168.304 Z M101.824,173.296 C101.824,177.808 98.368,180.112 95.104,180.112 C93.088,180.112 91.072,179.152 90.016,177.136 C89.344,175.792 89.248,174.16 89.248,172.528 L89.248,170.992 C89.248,168.208 88.96,165.328 86.176,162.928 C85.888,162.64 85.792,162.448 85.792,162.16 C85.792,161.68 86.176,161.296 86.848,161.296 C87.04,161.296 87.136,161.392 87.328,161.392 C94.336,162.928 101.056,166.192 101.728,172.24 C101.728,172.624 101.824,173.008 101.824,173.296 Z M85.984,177.04 C85.984,182.032 82.24,184.624 78.688,184.624 C75.712,184.624 72.832,182.704 72.544,178.96 C72.544,178.576 72.448,178.288 72.448,177.904 C72.448,173.872 74.752,172.144 74.752,168.688 C74.752,167.536 74.464,166.192 73.792,164.464 C73.696,164.272 73.696,164.08 73.696,163.984 C73.696,163.408 74.08,163.024 74.56,163.024 C74.752,163.024 75.04,163.12 75.328,163.312 C80.8,166.48 85.888,170.608 85.984,176.848 L85.984,177.04 Z M68.416,176.272 C68.416,181.072 66.88,185.008 62.368,186.64 C61.216,187.024 60.16,187.216 59.2,187.216 C54.88,187.216 52,183.664 52,180.016 C52,177.904 53.056,175.6 55.456,174.064 C60.352,170.992 62.368,171.664 64.576,164.656 C64.768,163.984 65.056,163.696 65.44,163.696 C65.824,163.696 66.208,164.176 66.496,164.848 C67.552,168.784 68.416,172.72 68.416,176.272 Z M89.536,126.064 C89.44,122.8 89.344,119.44 89.248,116.176 L78.112,116.176 C78.112,118.384 78.016,121.936 78.016,126.064 L89.536,126.064 Z M89.536,129.424 L77.92,129.424 C78.016,131.056 78.016,132.784 78.016,134.512 L78.016,139.696 L89.44,139.696 C89.536,136.144 89.536,132.784 89.536,129.424 Z M89.44,143.056 L78.016,143.056 C78.016,147.088 78.112,150.928 78.208,154.192 L89.152,154.192 C89.248,150.352 89.344,146.608 89.44,143.056 Z" id="path-6"></path>
        <filter x="-154.8%" y="-74.3%" width="409.6%" height="248.7%" filterUnits="objectBoundingBox" id="filter-7">
            <feOffset dx="0" dy="0" in="SourceAlpha" result="shadowOffsetOuter1"></feOffset>
            <feGaussianBlur stdDeviation="10" in="shadowOffsetOuter1" result="shadowBlurOuter1"></feGaussianBlur>
            <feColorMatrix values="0 0 0 0 1   0 0 0 0 1   0 0 0 0 1  0 0 0 1 0" type="matrix" in="shadowBlurOuter1" result="shadowMatrixOuter1"></feColorMatrix>
            <feOffset dx="0" dy="0" in="SourceAlpha" result="shadowOffsetOuter2"></feOffset>
            <feGaussianBlur stdDeviation="3.5" in="shadowOffsetOuter2" result="shadowBlurOuter2"></feGaussianBlur>
            <feColorMatrix values="0 0 0 0 1   0 0 0 0 0   0 0 0 0 0  0 0 0 1 0" type="matrix" in="shadowBlurOuter2" result="shadowMatrixOuter2"></feColorMatrix>
            <feOffset dx="0" dy="0" in="SourceAlpha" result="shadowOffsetOuter3"></feOffset>
            <feGaussianBlur stdDeviation="20" in="shadowOffsetOuter3" result="shadowBlurOuter3"></feGaussianBlur>
            <feColorMatrix values="0 0 0 0 1   0 0 0 0 1   0 0 0 0 1  0 0 0 1 0" type="matrix" in="shadowBlurOuter3" result="shadowMatrixOuter3"></feColorMatrix>
            <feOffset dx="0" dy="0" in="SourceAlpha" result="shadowOffsetOuter4"></feOffset>
            <feGaussianBlur stdDeviation="22.5" in="shadowOffsetOuter4" result="shadowBlurOuter4"></feGaussianBlur>
            <feColorMatrix values="0 0 0 0 1   0 0 0 0 0.567964804   0 0 0 0 0.567964804  0 0 0 1 0" type="matrix" in="shadowBlurOuter4" result="shadowMatrixOuter4"></feColorMatrix>
            <feMerge>
                <feMergeNode in="shadowMatrixOuter1"></feMergeNode>
                <feMergeNode in="shadowMatrixOuter2"></feMergeNode>
                <feMergeNode in="shadowMatrixOuter3"></feMergeNode>
                <feMergeNode in="shadowMatrixOuter4"></feMergeNode>
            </feMerge>
        </filter>
    </defs>
    <g id="Symbols" stroke="none" stroke-width="1" fill="none" fill-rule="evenodd">
        <g id="koma-vecter" transform="translate(28.000000, 24.000000)">
            <g id="narikaku-aite" transform="translate(1.000000, 8.000000)">
                <mask id="mask-2" fill="white">
                    <use xlink:href="#path-1"></use>
                </mask>
                <g id="Polygon-Copy-16" transform="translate(95.000000, 115.253112) scale(-1, -1) translate(-95.000000, -115.253112) ">
                    <use fill="black" fill-opacity="1" filter="url(#filter-3)" xlink:href="#path-1"></use>
                    <use stroke="#00FF64" stroke-width="3" fill="#000000" fill-rule="evenodd" xlink:href="#path-1"></use>
                </g>
                <mask id="mask-5" fill="white">
                    <use xlink:href="#path-4"></use>
                </mask>
                <use id="Polygon-Copy-15" stroke="#00FF64" stroke-width="3" fill="#000000" transform="translate(95.000000, 105.253112) scale(-1, -1) translate(-95.000000, -105.253112) " xlink:href="#path-4"></use>
                <g id="kaku-nari" mask="url(#mask-5)" transform="translate(95.440000, 100.480000) scale(-1, -1) translate(-95.440000, -100.480000) ">
                    <use fill="black" fill-opacity="1" filter="url(#filter-7)" xlink:href="#path-6"></use>
                    <use fill="#320D08" fill-rule="evenodd" xlink:href="#path-6"></use>
                </g>
            </g>
        </g>
    </g>
</svg>