<?xml version="1.0" encoding="UTF-8"?>
<svg width="226px" height="255px" viewBox="0 0 226 255" version="1.1" xmlns="http://www.w3.org/2000/svg" xmlns:xlink="http://www.w3.org/1999/xlink">
    <!-- Generator: Sketch 47.1 (45422) - http://www.bohemiancoding.com/sketch -->
    <title>fu-aite</title>
    <desc>Created with Sketch.</desc>
    <defs>
        <polygon id="path-1" points="84 0 134.4 15.2594578 168 195.186722 0 195.186722 33.6 15.2594578"></polygon>
        <filter x="-42.6%" y="-35.6%" width="185.1%" height="173.3%" filterUnits="objectBoundingBox" id="filter-3">
            <feMorphology radius="1.5" operator="dilate" in="SourceAlpha" result="shadowSpreadOuter1"></feMorphology>
            <feOffset dx="0" dy="1" in="shadowSpreadOuter1" result="shadowOffsetOuter1"></feOffset>
            <feGaussianBlur stdDeviation="15.5" in="shadowOffsetOuter1" result="shadowBlurOuter1"></feGaussianBlur>
            <feComposite in="shadowBlurOuter1" in2="SourceAlpha" operator="out" result="shadowBlurOuter1"></feComposite>
            <feColorMatrix values="0 0 0 0 0   0 0 0 0 1   0 0 0 0 0  0 0 0 1 0" type="matrix" in="shadowBlurOuter1" result="shadowMatrixOuter1"></feColorMatrix>
            <feMorphology radius="1.5" operator="dilate" in="SourceAlpha" result="shadowSpreadOuter2"></feMorphology>
            <feOffset dx="0" dy="1" in="shadowSpreadOuter2" result="shadowOffsetOuter2"></feOffset>
            <feGaussianBlur stdDeviation="11.5" in="shadowOffsetOuter2" result="shadowBlurOuter2"></feGaussianBlur>
            <feComposite in="shadowBlurOuter2" in2="SourceAlpha" operator="out" result="shadowBlurOuter2"></feComposite>
            <feColorMatrix values="0 0 0 0 1   0 0 0 0 1   0 0 0 0 1  0 0 0 1 0" type="matrix" in="shadowBlurOuter2" result="shadowMatrixOuter2"></feColorMatrix>
            <feMerge>
                <feMergeNode in="shadowMatrixOuter1"></feMergeNode>
                <feMergeNode in="shadowMatrixOuter2"></feMergeNode>
            </feMerge>
        </filter>
        <polygon id="path-4" points="84 -8 134.4 7.25945784 168 187.186722 0 187.186722 33.6 7.25945784"></polygon>
        <path d="M118.547,33.596 C118.547,34.149 118.231,34.623 117.362,34.623 L91.45,34.623 C91.371,36.835 91.371,38.889 91.371,40.864 C91.371,44.024 91.45,47.184 91.529,51.134 L91.529,51.292 C91.529,56.427 87.895,60.219 78.494,61.72 C78.178,61.799 77.941,61.799 77.704,61.799 C77.072,61.799 76.677,61.562 76.598,60.851 C76.519,60.772 76.519,60.614 76.519,60.535 C76.203,54.136 75.255,53.109 69.172,50.66 C68.777,50.502 68.619,50.186 68.619,49.87 C68.619,49.396 69.014,48.922 69.646,48.922 L69.725,48.922 C70.989,49.001 72.174,49.159 73.359,49.238 C74.544,49.317 75.65,49.317 76.756,49.396 L77.072,49.396 C78.415,49.396 78.81,48.922 78.889,47.263 C78.968,44.972 79.047,42.523 79.047,40.074 C79.047,38.336 78.968,36.519 78.968,34.623 L59.534,34.623 C56.453,34.623 53.214,34.781 51.634,35.255 C51.002,35.413 50.37,35.176 50.054,34.544 C49.738,33.912 49.185,32.332 48.948,31.463 C48.869,31.226 48.869,31.147 48.869,30.989 C48.869,30.752 49.027,30.673 49.264,30.673 C49.422,30.673 49.659,30.673 49.975,30.752 C52.345,31.463 56.769,31.779 59.692,31.779 C59.771,29.093 59.85,25.854 59.85,22.852 C59.85,19.455 59.771,16.295 59.455,14.399 C59.297,13.372 59.139,12.74 59.139,12.424 C59.139,12.108 59.297,12.029 59.771,12.029 L60.482,12.029 C64.432,12.345 69.251,12.898 73.754,13.609 C74.86,13.767 75.334,14.32 75.334,14.952 C75.334,15.663 74.781,16.374 73.912,16.69 C72.49,17.164 71.937,17.638 71.858,18.744 C71.7,20.877 71.621,23.8 71.621,26.723 C71.621,28.461 71.7,30.199 71.7,31.779 L78.731,31.779 C78.889,28.461 78.968,24.353 78.968,20.561 C78.968,16.453 78.889,12.661 78.573,10.607 C78.415,9.659 78.257,9.027 78.257,8.632 C78.257,8.158 78.415,8 78.889,8 C79.126,8 79.363,8.079 79.679,8.079 C83.471,8.395 89.08,9.027 93.346,9.659 C94.531,9.817 95.005,10.449 95.005,11.081 C95.005,11.792 94.452,12.582 93.583,12.819 C92.161,13.214 91.529,13.767 91.529,14.952 C91.45,15.979 91.45,17.401 91.45,19.06 L95.637,19.06 C96.427,19.06 96.98,18.823 97.454,18.349 C98.876,16.69 100.693,14.478 102.115,12.898 C102.352,12.582 102.747,12.424 103.063,12.424 C103.379,12.424 103.774,12.582 104.09,12.819 C106.46,14.557 109.225,17.006 111.911,19.692 C112.227,20.008 112.464,20.482 112.464,20.877 C112.464,21.43 112.148,21.825 111.2,21.825 L91.45,21.825 C91.45,25.143 91.45,28.935 91.529,31.779 L99.824,31.779 C100.614,31.779 101.009,31.621 101.483,31.068 C103.221,29.093 105.275,26.644 107.013,24.748 C107.487,24.195 108.356,24.195 108.988,24.748 C111.674,26.802 115.15,29.646 118.073,32.411 C118.389,32.727 118.547,33.201 118.547,33.596 Z M118.152,48.211 C118.152,51.687 115.071,53.978 111.911,53.978 C110.252,53.978 108.593,53.346 107.25,51.924 C102.668,46.947 105.354,43.629 94.847,38.889 C94.373,38.652 94.136,38.336 94.136,37.941 C94.136,37.467 94.531,37.072 95.242,37.072 L95.321,37.072 C106.223,37.625 113.649,39.205 116.73,44.024 C117.678,45.525 118.152,46.947 118.152,48.211 Z M76.835,40.153 C76.835,40.864 76.282,41.575 75.176,41.733 C73.833,41.891 73.28,42.128 72.806,42.918 C68.382,50.818 61.351,57.138 49.185,61.167 C49.027,61.246 48.948,61.246 48.79,61.246 C48.316,61.246 48,60.93 48,60.456 C48,60.14 48.079,59.903 48.316,59.587 C54.952,51.924 59.297,43.55 60.403,36.835 C60.482,36.045 60.64,35.887 61.035,35.887 C61.193,35.887 61.43,35.887 61.667,35.966 C66.17,36.756 71.621,37.862 75.65,38.81 C76.44,38.968 76.835,39.521 76.835,40.153 Z M111.437,56.98 C111.437,57.691 110.884,58.323 109.857,58.323 C109.699,58.323 109.462,58.244 109.304,58.244 C108.672,58.165 108.277,58.086 107.882,58.086 C107.171,58.086 106.855,58.323 106.381,58.955 C95.558,71.595 85.841,77.046 51.476,77.836 C50.765,77.836 50.37,77.362 50.37,76.967 C50.37,76.572 50.686,76.177 51.16,76.019 C78.494,68.672 90.344,61.878 96.98,48.606 C97.296,47.895 97.612,47.263 98.165,47.263 C98.323,47.263 98.639,47.342 98.955,47.579 C102.589,49.791 107.013,52.714 110.331,55.163 C111.121,55.716 111.437,56.427 111.437,56.98 Z M119.1,133.899 C119.1,134.452 118.705,134.768 117.836,134.768 L58.586,134.768 C55.505,134.768 52.266,134.926 50.686,135.4 C50.054,135.558 49.501,135.321 49.185,134.689 C48.869,134.057 48.316,132.714 48.079,131.845 C48,131.608 48,131.45 48,131.292 C48,131.055 48.079,130.897 48.395,130.897 C48.553,130.897 48.711,130.897 48.948,130.976 C51.318,131.687 55.11,132.003 58.033,132.003 L59.771,132.003 C59.929,127.658 60.087,121.417 60.087,115.255 C60.087,106.012 59.771,96.769 58.981,94.162 C58.823,93.609 58.665,93.135 58.665,92.819 C58.665,92.424 58.902,92.187 59.297,92.187 C59.534,92.187 59.771,92.266 60.008,92.345 C65.696,93.925 74.465,97.164 74.465,97.164 C83.55,95.189 91.529,90.844 94.215,88.553 C94.768,88 95.163,87.763 95.558,87.763 C95.953,87.763 96.348,88 97.059,88.474 C99.35,90.054 104.722,94.162 107.724,96.769 C108.277,97.243 108.593,97.875 108.593,98.428 C108.593,99.139 107.961,99.771 107.013,99.771 C106.697,99.771 106.302,99.692 105.907,99.534 C104.88,99.139 104.169,98.981 103.458,98.981 C103.063,98.981 102.589,99.06 102.036,99.218 C96.506,100.482 88.29,101.114 79.205,101.114 C77.388,101.114 75.492,101.114 73.596,101.035 C73.596,102.773 73.517,106.565 73.517,111.068 L94.531,111.068 C95.321,111.068 95.795,110.673 96.19,110.199 C97.691,108.54 100.535,105.301 101.957,103.958 C102.51,103.405 103.221,103.405 104.011,103.958 C105.986,105.301 111.042,109.488 113.254,111.621 C113.57,111.937 113.886,112.411 113.886,112.885 C113.886,113.359 113.491,113.833 112.543,113.833 L100.298,113.833 C100.298,116.993 100.219,121.891 100.219,126.236 C100.219,128.369 100.219,130.423 100.298,132.003 L101.009,132.003 C101.641,132.003 102.194,131.687 102.51,131.213 C103.853,129.396 106.697,125.999 107.961,124.498 C108.514,123.866 109.383,123.866 110.094,124.498 C112.227,126.315 116.651,130.581 118.547,132.793 C118.942,133.188 119.1,133.583 119.1,133.899 Z M85.051,144.011 C85.051,143.379 84.656,142.668 83.629,142.273 C79.442,140.535 73.28,138.086 68.935,136.585 C68.698,136.506 68.461,136.427 68.224,136.427 C67.75,136.427 67.434,136.743 67.118,137.454 C65.301,142.826 57.638,150.726 48.79,156.098 C48.316,156.414 48.079,156.809 48.079,157.125 C48.079,157.52 48.395,157.836 49.106,157.836 L49.343,157.836 C61.43,156.888 71.621,152.306 79.6,146.223 C80.232,145.67 81.18,145.512 82.365,145.512 L83.076,145.512 C84.419,145.512 85.051,144.801 85.051,144.011 Z M114.834,151.042 C114.834,149.62 114.36,148.04 113.412,146.46 C109.225,139.745 98.323,139.034 87.026,138.481 L86.868,138.481 C85.999,138.481 85.525,138.955 85.525,139.508 C85.525,139.824 85.762,140.219 86.236,140.377 C95.4,144.09 99.113,150.252 102.589,154.755 C104.327,157.046 106.381,157.994 108.356,157.994 C111.832,157.994 114.834,154.913 114.834,151.042 Z M87.184,124.261 C87.184,120.469 87.184,116.519 87.105,113.833 L73.517,113.833 C73.438,119.995 73.438,126.947 73.517,132.003 L87.105,132.003 C87.184,129.87 87.184,127.105 87.184,124.261 Z" id="path-6"></path>
        <filter x="-47.8%" y="-22.7%" width="195.6%" height="145.3%" filterUnits="objectBoundingBox" id="filter-7">
            <feOffset dx="0" dy="0" in="SourceAlpha" result="shadowOffsetOuter1"></feOffset>
            <feGaussianBlur stdDeviation="10" in="shadowOffsetOuter1" result="shadowBlurOuter1"></feGaussianBlur>
            <feColorMatrix values="0 0 0 0 1   0 0 0 0 1   0 0 0 0 1  0 0 0 1 0" type="matrix" in="shadowBlurOuter1" result="shadowMatrixOuter1"></feColorMatrix>
            <feOffset dx="0" dy="0" in="SourceAlpha" result="shadowOffsetOuter2"></feOffset>
            <feGaussianBlur stdDeviation="2" in="shadowOffsetOuter2" result="shadowBlurOuter2"></feGaussianBlur>
            <feColorMatrix values="0 0 0 0 0   0 0 0 0 1   0 0 0 0 0.392156863  0 0 0 1 0" type="matrix" in="shadowBlurOuter2" result="shadowMatrixOuter2"></feColorMatrix>
            <feMerge>
                <feMergeNode in="shadowMatrixOuter1"></feMergeNode>
                <feMergeNode in="shadowMatrixOuter2"></feMergeNode>
            </feMerge>
        </filter>
    </defs>
    <g id="Symbols" stroke="none" stroke-width="1" fill="none" fill-rule="evenodd">
        <g id="koma-vecter" transform="translate(28.000000, 24.000000)">
            <g id="fu-aite" transform="translate(1.000000, 8.000000)">
                <mask id="mask-2" fill="white">
                    <use xlink:href="#path-1"></use>
                </mask>
                <g id="Polygon" transform="translate(84.000000, 97.593361) scale(-1, -1) translate(-84.000000, -97.593361) ">
                    <use fill="black" fill-opacity="1" filter="url(#filter-3)" xlink:href="#path-1"></use>
                    <use stroke="#00FF64" stroke-width="3" fill="#000000" fill-rule="evenodd" xlink:href="#path-1"></use>
                </g>
                <mask id="mask-5" fill="white">
                    <use xlink:href="#path-4"></use>
                </mask>
                <use id="Polygon-Copy-8" stroke="#00FF64" stroke-width="3" fill="#000000" transform="translate(84.000000, 89.593361) scale(-1, -1) translate(-84.000000, -89.593361) " xlink:href="#path-4"></use>
                <g id="歩-兵" mask="url(#mask-5)" transform="translate(83.550000, 82.997000) scale(-1, -1) translate(-83.550000, -82.997000) ">
                    <use fill="black" fill-opacity="1" filter="url(#filter-7)" xlink:href="#path-6"></use>
                    <use fill="#0A3208" fill-rule="evenodd" xlink:href="#path-6"></use>
                </g>
            </g>
        </g>
    </g>
</svg>