<?xml version="1.0" encoding="UTF-8"?>
<svg width="226px" height="255px" viewBox="0 0 226 255" version="1.1" xmlns="http://www.w3.org/2000/svg" xmlns:xlink="http://www.w3.org/1999/xlink">
    <!-- Generator: Sketch 47.1 (45422) - http://www.bohemiancoding.com/sketch -->
    <title>tokin-aite</title>
    <desc>Created with Sketch.</desc>
    <defs>
        <polygon id="path-1" points="84 8 134.4 23.2594578 168 203.186722 0 203.186722 33.6 23.2594578"></polygon>
        <filter x="-42.6%" y="-35.6%" width="185.1%" height="173.3%" filterUnits="objectBoundingBox" id="filter-2">
            <feMorphology radius="1.5" operator="dilate" in="SourceAlpha" result="shadowSpreadOuter1"></feMorphology>
            <feOffset dx="0" dy="1" in="shadowSpreadOuter1" result="shadowOffsetOuter1"></feOffset>
            <feGaussianBlur stdDeviation="15.5" in="shadowOffsetOuter1" result="shadowBlurOuter1"></feGaussianBlur>
            <feComposite in="shadowBlurOuter1" in2="SourceAlpha" operator="out" result="shadowBlurOuter1"></feComposite>
            <feColorMatrix values="0 0 0 0 0   0 0 0 0 1   0 0 0 0 0  0 0 0 1 0" type="matrix" in="shadowBlurOuter1" result="shadowMatrixOuter1"></feColorMatrix>
            <feMorphology radius="1.5" operator="dilate" in="SourceAlpha" result="shadowSpreadOuter2"></feMorphology>
            <feOffset dx="0" dy="1" in="shadowSpreadOuter2" result="shadowOffsetOuter2"></feOffset>
            <feGaussianBlur stdDeviation="11.5" in="shadowOffsetOuter2" result="shadowBlurOuter2"></feGaussianBlur>
            <feComposite in="shadowBlurOuter2" in2="SourceAlpha" operator="out" result="shadowBlurOuter2"></feComposite>
            <feColorMatrix values="0 0 0 0 1   0 0 0 0 1   0 0 0 0 1  0 0 0 1 0" type="matrix" in="shadowBlurOuter2" result="shadowMatrixOuter2"></feColorMatrix>
            <feMerge>
                <feMergeNode in="shadowMatrixOuter1"></feMergeNode>
                <feMergeNode in="shadowMatrixOuter2"></feMergeNode>
            </feMerge>
        </filter>
        <polygon id="path-3" points="84 0 134.4 15.2594578 168 195.186722 0 195.186722 33.6 15.2594578"></polygon>
        <path d="M109.225,46.781 C109.225,42.515 104.09,36.827 97.296,36.353 L96.822,36.353 C96.111,36.353 95.795,36.511 95.795,36.985 C95.795,37.222 95.953,37.617 96.269,38.091 C96.585,38.486 96.664,38.802 96.664,39.118 C96.664,40.066 95.558,40.619 93.583,41.409 C88.843,43.147 84.103,44.806 79.679,46.702 C79.284,45.596 79.126,44.253 79.126,42.673 C79.126,40.461 79.442,37.696 79.758,34.457 C80.311,29.243 82.365,29.954 82.365,27.505 L82.365,27.268 C82.207,23.081 76.519,20 70.831,20 C69.251,20 67.671,20.237 66.17,20.79 C65.222,21.106 64.827,21.343 64.827,21.659 C64.827,21.975 65.222,22.291 66.012,22.686 C68.145,23.871 68.856,26.794 68.856,31.692 L68.856,35.879 C68.856,41.33 69.409,46.228 75.334,48.756 C65.222,53.654 57.559,59.816 57.559,68.743 C57.559,69.691 57.638,70.639 57.796,71.666 C59.534,81.62 70.91,86.123 88.29,86.123 C91.766,86.123 95.558,85.965 99.508,85.57 C104.327,85.254 108.514,82.726 108.514,78.697 C108.514,78.065 108.435,77.354 108.198,76.643 C107.329,73.799 104.722,72.219 101.009,72.219 C99.982,72.219 98.876,72.377 97.691,72.614 C92.477,73.799 86.157,74.589 80.39,74.589 C71.305,74.589 63.405,72.614 62.457,66.926 C62.378,66.531 62.378,66.136 62.378,65.741 C62.378,57.92 76.124,52.39 97.138,51.363 C98.955,51.284 100.377,51.284 101.562,51.284 L102.589,51.284 C105.354,51.284 106.539,51.205 107.882,49.941 C108.751,49.072 109.225,47.966 109.225,46.781 Z M119.179,164.622 C119.179,165.175 118.863,165.57 117.915,165.57 L58.586,165.57 C55.505,165.57 52.424,165.728 50.844,166.202 C50.212,166.36 49.501,166.123 49.185,165.491 C48.869,164.859 48.316,163.358 48.079,162.489 C48,162.331 48,162.173 48,162.094 C48,161.778 48.158,161.62 48.395,161.62 C48.632,161.62 48.869,161.699 49.185,161.778 C51.555,162.489 55.663,162.805 58.586,162.805 L75.176,162.805 C75.255,157.591 75.255,151.824 75.255,146.136 L75.255,139.105 L61.509,139.105 C58.428,139.105 55.347,139.263 53.767,139.737 C53.135,139.895 52.424,139.658 52.108,139.026 C51.792,138.394 51.239,136.814 51.002,135.945 C50.923,135.787 50.923,135.629 50.923,135.55 C50.923,135.234 51.081,135.155 51.397,135.155 C51.555,135.155 51.792,135.155 52.108,135.234 C54.478,135.945 58.586,136.261 61.509,136.261 L75.255,136.261 C75.255,132.785 75.255,129.467 75.176,126.465 L74.149,126.465 C71.463,126.465 68.54,126.623 66.96,127.097 C66.328,127.255 65.617,127.018 65.301,126.386 C65.222,126.228 65.143,125.991 64.985,125.675 C60.324,127.966 55.11,129.546 49.264,130.652 L48.948,130.652 C48.395,130.652 48.079,130.336 48.079,129.941 C48.079,129.625 48.316,129.23 48.711,128.993 C61.667,120.382 69.883,108.295 72.648,99.763 C72.964,98.894 72.806,98.499 73.517,98.499 C73.675,98.499 73.991,98.499 74.307,98.578 C78.889,99.131 84.893,99.763 89.475,100.632 C90.344,100.79 90.897,101.422 90.897,102.133 C90.897,102.686 90.423,103.397 89.238,103.634 C88.685,103.792 88.211,103.871 87.895,103.95 C95.321,110.665 104.169,113.904 117.994,114.773 C118.784,114.852 119.179,115.326 119.179,115.8 C119.179,116.353 118.863,116.906 118.231,117.222 C115.308,118.96 114.597,120.619 114.202,128.598 C114.123,129.388 113.649,129.625 113.175,129.625 C112.938,129.625 112.701,129.625 112.464,129.546 C99.745,126.149 91.213,118.486 85.683,106.083 C81.417,113.588 75.966,119.197 69.172,123.384 C71.068,123.621 73.043,123.7 74.702,123.7 L81.654,123.7 C82.444,123.7 82.918,123.542 83.471,122.989 C85.051,121.33 87.105,119.355 88.764,117.538 C89.08,117.222 89.317,117.064 89.633,117.064 C89.949,117.064 90.344,117.222 90.66,117.459 C93.109,119.355 95.874,121.567 98.718,124.332 C99.113,124.648 99.35,125.122 99.35,125.517 C99.35,126.07 98.955,126.465 98.007,126.465 L88.132,126.465 C88.053,129.388 88.053,132.706 88.053,136.261 L95.874,136.261 C96.664,136.261 97.217,136.182 97.691,135.55 C99.35,133.733 101.404,131.442 103.142,129.625 C103.379,129.388 103.695,129.23 104.09,129.23 C104.406,129.23 104.801,129.388 105.117,129.625 C107.566,131.442 110.884,134.365 113.807,136.893 C114.123,137.209 114.36,137.604 114.36,138.078 C114.36,138.631 113.965,139.105 113.096,139.105 L88.053,139.105 C88.053,146.926 88.053,155.379 88.132,162.805 L99.824,162.805 C100.693,162.805 101.167,162.568 101.641,162.094 C103.458,159.882 105.749,157.196 107.566,154.984 C107.803,154.747 108.119,154.589 108.435,154.589 C108.751,154.589 109.146,154.747 109.462,154.984 C112.622,157.354 115.624,160.119 118.626,163.358 C118.942,163.674 119.179,164.227 119.179,164.622 Z M72.253,153.404 C72.253,158.065 69.093,160.672 65.933,160.672 C63.642,160.672 61.351,159.25 60.482,156.248 C59.139,151.903 60.956,147.321 56.453,142.976 C55.742,142.265 55.9,141.238 56.927,141.238 C57.006,141.238 57.164,141.317 57.322,141.317 C64.985,142.502 71.779,145.82 72.253,152.614 L72.253,153.404 Z M111.121,146.057 C111.121,146.768 110.489,147.479 109.304,147.716 C107.803,147.953 107.171,148.032 106.618,148.822 C103.616,153.088 97.375,158.776 90.739,161.383 C90.581,161.462 90.423,161.462 90.265,161.462 C89.712,161.462 89.317,161.225 89.317,160.751 C89.317,160.593 89.396,160.435 89.475,160.277 C92.477,154.747 94.61,147.558 95.163,142.186 C95.321,141.238 95.4,140.843 95.953,140.843 C96.111,140.843 96.269,140.843 96.506,140.922 C100.93,141.949 105.433,143.055 109.62,144.477 C110.647,144.793 111.121,145.425 111.121,146.057 Z" id="path-5"></path>
        <filter x="-189.0%" y="-92.0%" width="477.9%" height="283.9%" filterUnits="objectBoundingBox" id="filter-6">
            <feOffset dx="0" dy="0" in="SourceAlpha" result="shadowOffsetOuter1"></feOffset>
            <feGaussianBlur stdDeviation="10" in="shadowOffsetOuter1" result="shadowBlurOuter1"></feGaussianBlur>
            <feColorMatrix values="0 0 0 0 1   0 0 0 0 1   0 0 0 0 1  0 0 0 1 0" type="matrix" in="shadowBlurOuter1" result="shadowMatrixOuter1"></feColorMatrix>
            <feOffset dx="0" dy="0" in="SourceAlpha" result="shadowOffsetOuter2"></feOffset>
            <feGaussianBlur stdDeviation="3.5" in="shadowOffsetOuter2" result="shadowBlurOuter2"></feGaussianBlur>
            <feColorMatrix values="0 0 0 0 1   0 0 0 0 0   0 0 0 0 0  0 0 0 1 0" type="matrix" in="shadowBlurOuter2" result="shadowMatrixOuter2"></feColorMatrix>
            <feOffset dx="0" dy="0" in="SourceAlpha" result="shadowOffsetOuter3"></feOffset>
            <feGaussianBlur stdDeviation="20" in="shadowOffsetOuter3" result="shadowBlurOuter3"></feGaussianBlur>
            <feColorMatrix values="0 0 0 0 1   0 0 0 0 1   0 0 0 0 1  0 0 0 1 0" type="matrix" in="shadowBlurOuter3" result="shadowMatrixOuter3"></feColorMatrix>
            <feOffset dx="0" dy="0" in="SourceAlpha" result="shadowOffsetOuter4"></feOffset>
            <feGaussianBlur stdDeviation="22.5" in="shadowOffsetOuter4" result="shadowBlurOuter4"></feGaussianBlur>
            <feColorMatrix values="0 0 0 0 1   0 0 0 0 0   0 0 0 0 0  0 0 0 1 0" type="matrix" in="shadowBlurOuter4" result="shadowMatrixOuter4"></feColorMatrix>
            <feMerge>
                <feMergeNode in="shadowMatrixOuter1"></feMergeNode>
                <feMergeNode in="shadowMatrixOuter2"></feMergeNode>
                <feMergeNode in="shadowMatrixOuter3"></feMergeNode>
                <feMergeNode in="shadowMatrixOuter4"></feMergeNode>
            </feMerge>
        </filter>
    </defs>
    <g id="Symbols" stroke="none" stroke-width="1" fill="none" fill-rule="evenodd">
        <g id="koma-vecter" transform="translate(28.000000, 24.000000)">
            <g id="tokin-aite" transform="translate(1.000000, 0.000000)">
                <g id="Polygon" transform="translate(84.000000, 105.593361) scale(-1, -1) translate(-84.000000, -105.593361) ">
                    <use fill="black" fill-opacity="1" filter="url(#filter-2)" xlink:href="#path-1"></use>
                    <use stroke="#00FF64" stroke-width="3" fill="#000000" fill-rule="evenodd" xlink:href="#path-1"></use>
                </g>
                <mask id="mask-4" fill="white">
                    <use xlink:href="#path-3"></use>
                </mask>
                <use id="Polygon-Copy-8" stroke="#00FF64" stroke-width="3" fill="#000000" transform="translate(84.000000, 97.593361) scale(-1, -1) translate(-84.000000, -97.593361) " xlink:href="#path-3"></use>
                <g id="nari-fu" transform="translate(83.589500, 93.124700) scale(-1, -1) translate(-83.589500, -93.124700) ">
                    <use fill="black" fill-opacity="1" filter="url(#filter-6)" xlink:href="#path-5"></use>
                    <use fill="#320D08" fill-rule="evenodd" xlink:href="#path-5"></use>
                </g>
            </g>
        </g>
    </g>
</svg>