<?xml version="1.0" encoding="UTF-8"?>
<svg width="250px" height="297px" viewBox="0 0 250 297" version="1.1" xmlns="http://www.w3.org/2000/svg" xmlns:xlink="http://www.w3.org/1999/xlink">
    <!-- Generator: Sketch 47.1 (45422) - http://www.bohemiancoding.com/sketch -->
    <title>kin</title>
    <desc>Created with Sketch.</desc>
    <defs>
        <path d="M95,0 L152,17.2213881 L190,220.282158 L0,220.282158 L38,17.2213881 L95,0 Z M0,220.282158 L190,220.282158 L190,237 L0,237 L0,220.282158 Z" id="path-1"></path>
        <filter x="-37.6%" y="-29.3%" width="175.3%" height="160.3%" filterUnits="objectBoundingBox" id="filter-3">
            <feMorphology radius="1.5" operator="dilate" in="SourceAlpha" result="shadowSpreadOuter1"></feMorphology>
            <feOffset dx="0" dy="1" in="shadowSpreadOuter1" result="shadowOffsetOuter1"></feOffset>
            <feGaussianBlur stdDeviation="15.5" in="shadowOffsetOuter1" result="shadowBlurOuter1"></feGaussianBlur>
            <feComposite in="shadowBlurOuter1" in2="SourceAlpha" operator="out" result="shadowBlurOuter1"></feComposite>
            <feColorMatrix values="0 0 0 0 0   0 0 0 0 1   0 0 0 0 0  0 0 0 1 0" type="matrix" in="shadowBlurOuter1" result="shadowMatrixOuter1"></feColorMatrix>
            <feMorphology radius="1.5" operator="dilate" in="SourceAlpha" result="shadowSpreadOuter2"></feMorphology>
            <feOffset dx="0" dy="1" in="shadowSpreadOuter2" result="shadowOffsetOuter2"></feOffset>
            <feGaussianBlur stdDeviation="11.5" in="shadowOffsetOuter2" result="shadowBlurOuter2"></feGaussianBlur>
            <feComposite in="shadowBlurOuter2" in2="SourceAlpha" operator="out" result="shadowBlurOuter2"></feComposite>
            <feColorMatrix values="0 0 0 0 1   0 0 0 0 1   0 0 0 0 1  0 0 0 1 0" type="matrix" in="shadowBlurOuter2" result="shadowMatrixOuter2"></feColorMatrix>
            <feMerge>
                <feMergeNode in="shadowMatrixOuter1"></feMergeNode>
                <feMergeNode in="shadowMatrixOuter2"></feMergeNode>
            </feMerge>
        </filter>
        <path d="M134.6,108.464 C134.6,109.08 134.248,109.52 133.192,109.52 L67.104,109.52 C63.672,109.52 60.24,109.696 58.48,110.224 C57.776,110.4 56.984,110.136 56.632,109.432 C56.28,108.728 55.664,107.056 55.4,106.088 C55.312,105.912 55.312,105.736 55.312,105.648 C55.312,105.296 55.488,105.12 55.752,105.12 C56.016,105.12 56.28,105.208 56.632,105.296 C59.272,106.088 63.848,106.44 67.104,106.44 L85.584,106.44 C85.672,100.632 85.672,94.208 85.672,87.872 L85.672,80.04 L70.36,80.04 C66.928,80.04 63.496,80.216 61.736,80.744 C61.032,80.92 60.24,80.656 59.888,79.952 C59.536,79.248 58.92,77.488 58.656,76.52 C58.568,76.344 58.568,76.168 58.568,76.08 C58.568,75.728 58.744,75.64 59.096,75.64 C59.272,75.64 59.536,75.64 59.888,75.728 C62.528,76.52 67.104,76.872 70.36,76.872 L85.672,76.872 C85.672,73 85.672,69.304 85.584,65.96 L84.44,65.96 C81.448,65.96 78.192,66.136 76.432,66.664 C75.728,66.84 74.936,66.576 74.584,65.872 C74.496,65.696 74.408,65.432 74.232,65.08 C69.04,67.632 63.232,69.392 56.72,70.624 L56.368,70.624 C55.752,70.624 55.4,70.272 55.4,69.832 C55.4,69.48 55.664,69.04 56.104,68.776 C70.536,59.184 79.688,45.72 82.768,36.216 C83.12,35.248 82.944,34.808 83.736,34.808 C83.912,34.808 84.264,34.808 84.616,34.896 C89.72,35.512 96.408,36.216 101.512,37.184 C102.48,37.36 103.096,38.064 103.096,38.856 C103.096,39.472 102.568,40.264 101.248,40.528 C100.632,40.704 100.104,40.792 99.752,40.88 C108.024,48.36 117.88,51.968 133.28,52.936 C134.16,53.024 134.6,53.552 134.6,54.08 C134.6,54.696 134.248,55.312 133.544,55.664 C130.288,57.6 129.496,59.448 129.056,68.336 C128.968,69.216 128.44,69.48 127.912,69.48 C127.648,69.48 127.384,69.48 127.12,69.392 C112.952,65.608 103.448,57.072 97.288,43.256 C92.536,51.616 86.464,57.864 78.896,62.528 C81.008,62.792 83.208,62.88 85.056,62.88 L92.8,62.88 C93.68,62.88 94.208,62.704 94.824,62.088 C96.584,60.24 98.872,58.04 100.72,56.016 C101.072,55.664 101.336,55.488 101.688,55.488 C102.04,55.488 102.48,55.664 102.832,55.928 C105.56,58.04 108.64,60.504 111.808,63.584 C112.248,63.936 112.512,64.464 112.512,64.904 C112.512,65.52 112.072,65.96 111.016,65.96 L100.016,65.96 C99.928,69.216 99.928,72.912 99.928,76.872 L108.64,76.872 C109.52,76.872 110.136,76.784 110.664,76.08 C112.512,74.056 114.8,71.504 116.736,69.48 C117,69.216 117.352,69.04 117.792,69.04 C118.144,69.04 118.584,69.216 118.936,69.48 C121.664,71.504 125.36,74.76 128.616,77.576 C128.968,77.928 129.232,78.368 129.232,78.896 C129.232,79.512 128.792,80.04 127.824,80.04 L99.928,80.04 C99.928,88.752 99.928,98.168 100.016,106.44 L113.04,106.44 C114.008,106.44 114.536,106.176 115.064,105.648 C117.088,103.184 119.64,100.192 121.664,97.728 C121.928,97.464 122.28,97.288 122.632,97.288 C122.984,97.288 123.424,97.464 123.776,97.728 C127.296,100.368 130.64,103.448 133.984,107.056 C134.336,107.408 134.6,108.024 134.6,108.464 Z M82.328,95.968 C82.328,101.16 78.808,104.064 75.288,104.064 C72.736,104.064 70.184,102.48 69.216,99.136 C67.72,94.296 69.744,89.192 64.728,84.352 C63.936,83.56 64.112,82.416 65.256,82.416 C65.344,82.416 65.52,82.504 65.696,82.504 C74.232,83.824 81.8,87.52 82.328,95.088 L82.328,95.968 Z M125.624,87.784 C125.624,88.576 124.92,89.368 123.6,89.632 C121.928,89.896 121.224,89.984 120.608,90.864 C117.264,95.616 110.312,101.952 102.92,104.856 C102.744,104.944 102.568,104.944 102.392,104.944 C101.776,104.944 101.336,104.68 101.336,104.152 C101.336,103.976 101.424,103.8 101.512,103.624 C104.856,97.464 107.232,89.456 107.848,83.472 C108.024,82.416 108.112,81.976 108.728,81.976 C108.904,81.976 109.08,81.976 109.344,82.064 C114.272,83.208 119.288,84.44 123.952,86.024 C125.096,86.376 125.624,87.08 125.624,87.784 Z M132.312,135.632 C132.312,136.424 131.696,136.952 130.64,136.952 C130.376,136.952 129.936,136.864 129.584,136.776 C128.44,136.424 127.824,136.248 127.032,136.248 C126.592,136.248 126.152,136.336 125.536,136.424 C118.76,137.392 107.672,138.624 95.792,138.624 C92.712,138.624 89.632,138.536 86.552,138.36 C85.496,138.272 85.056,137.832 85.056,137.304 C85.056,136.864 85.496,136.336 86.464,136.16 C101.248,133.168 112.6,128.416 116.912,125.16 C117.528,124.72 117.88,124.368 118.408,124.368 C118.672,124.368 119.024,124.456 119.552,124.808 C122.984,127.008 128.088,131.056 131.168,133.696 C131.96,134.312 132.312,135.016 132.312,135.632 Z M114.712,149.624 C114.712,153.848 111.456,156.224 108.288,156.224 C106,156.224 103.8,154.992 103.008,152.176 C102.832,151.472 102.744,150.768 102.744,150.064 C102.744,148.392 103.272,146.808 103.272,145.136 C103.272,143.64 102.832,142.144 101.512,140.296 C101.424,140.12 101.336,139.944 101.336,139.768 C101.336,139.328 101.6,138.976 102.216,138.976 C102.304,138.976 102.48,139.064 102.656,139.064 C107.584,139.944 113.832,143.64 114.624,148.128 C114.712,148.656 114.712,149.184 114.712,149.624 Z M100.808,152.704 C100.808,156.752 97.64,158.952 94.56,158.952 C92.008,158.952 89.544,157.456 88.84,154.552 C88.664,153.584 88.576,152.792 88.576,152 C88.576,150.68 88.752,149.536 88.752,148.392 C88.752,146.544 88.312,144.608 86.288,142.144 C86.112,141.88 85.936,141.528 85.936,141.352 C85.936,140.824 86.288,140.56 86.904,140.56 C86.992,140.56 87.168,140.648 87.344,140.648 C94.384,142.408 99.928,145.752 100.72,151.56 C100.808,151.912 100.808,152.352 100.808,152.704 Z M88.048,128.416 C88.048,129.12 87.52,129.912 86.376,130.176 C84.88,130.528 84.352,131.408 84.264,132.464 C84.088,134.664 84,143.64 84,155.432 C84,168.28 84.088,184.472 84.44,198.64 C84.44,200.752 82.856,201.984 79.16,202.424 C78.632,202.512 78.104,202.6 77.488,202.6 L76.256,202.6 C72.472,202.6 71.064,201.544 71.064,199.52 C71.24,190.632 71.416,179.72 71.504,169.16 C69.128,174.44 65.256,180.16 62.792,183.592 C62.176,184.384 62.264,184.912 62.088,186.408 C62,187.552 61.296,188.168 60.592,188.168 C59.976,188.168 59.36,187.64 59.096,186.672 C57.864,181.656 56.368,174.88 55.488,169.952 C55.4,169.512 55.4,169.248 55.4,168.984 C55.4,168.368 55.752,168.368 57.336,168.192 C60.064,167.84 66.576,166.432 71.504,163.792 L71.504,153.056 C71.152,156.4 68.512,157.984 65.784,157.984 C63.232,157.984 60.592,156.576 59.536,153.848 C59.184,153.056 59.096,152.264 59.096,151.472 C59.096,149.448 59.888,147.6 59.888,145.224 C59.888,143.112 59.36,140.736 57.16,137.656 C57.072,137.48 56.984,137.304 56.984,137.04 C56.984,136.6 57.336,136.16 57.952,136.16 C58.04,136.16 58.216,136.16 58.392,136.248 C64.992,139.064 69.832,142.672 71.504,147.688 C71.504,137.744 71.416,129.56 71.24,128.24 C70.976,126.656 70.888,125.776 70.888,125.336 C70.888,124.808 70.976,124.72 71.328,124.72 C71.504,124.72 71.68,124.808 72.032,124.808 C76.784,125.248 82.064,126.04 86.464,126.832 C87.52,127.008 88.048,127.712 88.048,128.416 Z M134.688,168.632 C134.688,169.248 134.424,169.688 133.368,169.688 L123.776,169.688 C123.776,177.256 123.864,187.024 124.04,192.744 L124.04,193.008 C124.04,198.728 120.96,201.544 109.52,202.512 L108.904,202.512 C107.936,202.512 107.496,202.336 107.408,201.456 C106.704,194.064 105.384,193.272 98.696,190.368 C98.08,190.104 97.816,189.664 97.816,189.224 C97.816,188.696 98.256,188.256 99.136,188.256 L99.312,188.256 C102.304,188.432 105.296,188.608 108.552,188.696 L108.728,188.696 C110.224,188.696 110.488,187.728 110.576,186.496 C110.664,184.296 110.752,180.688 110.752,176.816 C110.752,174.44 110.752,171.976 110.664,169.688 L96.584,169.688 C93.152,169.688 89.632,169.864 87.872,170.392 C87.168,170.568 86.376,170.304 86.024,169.6 C85.672,168.896 85.144,167.136 84.88,166.168 C84.792,165.904 84.792,165.816 84.792,165.64 C84.792,165.376 84.968,165.288 85.232,165.288 C85.408,165.288 85.672,165.288 86.024,165.376 C88.664,166.168 93.24,166.52 96.496,166.52 L110.576,166.52 C110.488,163.792 110.312,161.592 110.136,160.36 C109.872,159.04 109.696,158.16 109.696,157.632 C109.696,157.016 109.96,156.84 110.576,156.84 C110.752,156.84 111.016,156.928 111.28,156.928 C112.16,157.016 113.04,157.192 114.272,157.368 C116.12,151.824 118.056,143.376 118.144,139.064 C118.144,138.184 118.232,137.92 118.76,137.92 C119.024,137.92 119.288,138.008 119.728,138.096 C123.512,139.064 129.232,140.736 132.752,141.968 C133.544,142.232 133.984,142.936 133.984,143.552 C133.984,144.344 133.368,145.048 132.224,145.136 C131.344,145.136 130.376,145.488 129.848,146.104 C126.592,150.592 122.544,154.728 117.968,157.808 C120.08,158.072 123.336,158.424 125.184,158.688 C126.24,158.864 126.856,159.48 126.856,160.184 C126.856,160.8 126.328,161.504 125.272,161.944 C124.128,162.384 123.864,163 123.864,163.792 L123.864,166.52 C124.216,166.52 124.392,166.256 124.744,165.728 C125.536,164.32 126.68,162.472 127.824,160.8 C128.088,160.448 128.352,160.272 128.704,160.272 C128.968,160.272 129.32,160.448 129.584,160.8 C131.168,162.824 133.104,165.464 134.336,167.488 C134.512,167.84 134.688,168.28 134.688,168.632 Z M104.592,181.568 C104.592,185.352 101.16,187.816 97.816,187.816 C95.704,187.816 93.592,186.76 92.448,184.56 C91.832,183.416 91.744,182.536 91.744,181.656 C91.744,180.512 92.008,179.456 92.008,178.312 C92.008,176.816 91.48,175.144 89.104,172.68 C88.84,172.416 88.752,172.064 88.752,171.8 C88.752,171.448 89.016,171.096 89.632,171.096 L89.984,171.096 C96.76,172.328 102.568,174.088 104.24,179.28 C104.504,180.072 104.592,180.864 104.592,181.568 Z" id="path-4"></path>
        <filter x="-42.8%" y="-20.3%" width="185.7%" height="140.5%" filterUnits="objectBoundingBox" id="filter-5">
            <feOffset dx="0" dy="0" in="SourceAlpha" result="shadowOffsetOuter1"></feOffset>
            <feGaussianBlur stdDeviation="10" in="shadowOffsetOuter1" result="shadowBlurOuter1"></feGaussianBlur>
            <feColorMatrix values="0 0 0 0 1   0 0 0 0 1   0 0 0 0 1  0 0 0 1 0" type="matrix" in="shadowBlurOuter1" result="shadowMatrixOuter1"></feColorMatrix>
            <feOffset dx="0" dy="0" in="SourceAlpha" result="shadowOffsetOuter2"></feOffset>
            <feGaussianBlur stdDeviation="2" in="shadowOffsetOuter2" result="shadowBlurOuter2"></feGaussianBlur>
            <feColorMatrix values="0 0 0 0 0   0 0 0 0 1   0 0 0 0 0.392156863  0 0 0 1 0" type="matrix" in="shadowBlurOuter2" result="shadowMatrixOuter2"></feColorMatrix>
            <feMerge>
                <feMergeNode in="shadowMatrixOuter1"></feMergeNode>
                <feMergeNode in="shadowMatrixOuter2"></feMergeNode>
            </feMerge>
        </filter>
    </defs>
    <g id="Symbols" stroke="none" stroke-width="1" fill="none" fill-rule="evenodd">
        <g id="koma-vecter" transform="translate(29.000000, 20.000000)">
            <g id="kin" transform="translate(1.000000, 8.000000)">
                <mask id="mask-2" fill="white">
                    <use xlink:href="#path-1"></use>
                </mask>
                <g id="Polygon" transform="translate(95.000000, 118.500000) scale(-1, 1) translate(-95.000000, -118.500000) ">
                    <use fill="black" fill-opacity="1" filter="url(#filter-3)" xlink:href="#path-1"></use>
                    <use stroke="#00FF64" stroke-width="3" fill="#000000" fill-rule="evenodd" xlink:href="#path-1"></use>
                </g>
                <g mask="url(#mask-2)">
                    <use fill="black" fill-opacity="1" filter="url(#filter-5)" xlink:href="#path-4"></use>
                    <use fill="#0A3208" fill-rule="evenodd" xlink:href="#path-4"></use>
                </g>
            </g>
        </g>
    </g>
</svg>