<?xml version="1.0" encoding="UTF-8"?>
<svg width="244px" height="291px" viewBox="0 0 244 291" version="1.1" xmlns="http://www.w3.org/2000/svg" xmlns:xlink="http://www.w3.org/1999/xlink">
    <!-- Generator: Sketch 47.1 (45422) - http://www.bohemiancoding.com/sketch -->
    <title>gin</title>
    <desc>Created with Sketch.</desc>
    <defs>
        <path d="M92,0 L147.2,16.7854036 L184,214.705394 L0,214.705394 L36.8,16.7854036 L92,0 Z M0,214.705394 L184,214.705394 L184,231 L0,231 L0,214.705394 Z" id="path-1"></path>
        <filter x="-38.9%" y="-30.1%" width="177.7%" height="161.9%" filterUnits="objectBoundingBox" id="filter-3">
            <feMorphology radius="1.5" operator="dilate" in="SourceAlpha" result="shadowSpreadOuter1"></feMorphology>
            <feOffset dx="0" dy="1" in="shadowSpreadOuter1" result="shadowOffsetOuter1"></feOffset>
            <feGaussianBlur stdDeviation="15.5" in="shadowOffsetOuter1" result="shadowBlurOuter1"></feGaussianBlur>
            <feComposite in="shadowBlurOuter1" in2="SourceAlpha" operator="out" result="shadowBlurOuter1"></feComposite>
            <feColorMatrix values="0 0 0 0 0   0 0 0 0 1   0 0 0 0 0  0 0 0 1 0" type="matrix" in="shadowBlurOuter1" result="shadowMatrixOuter1"></feColorMatrix>
            <feMorphology radius="1.5" operator="dilate" in="SourceAlpha" result="shadowSpreadOuter2"></feMorphology>
            <feOffset dx="0" dy="1" in="shadowSpreadOuter2" result="shadowOffsetOuter2"></feOffset>
            <feGaussianBlur stdDeviation="11.5" in="shadowOffsetOuter2" result="shadowBlurOuter2"></feGaussianBlur>
            <feComposite in="shadowBlurOuter2" in2="SourceAlpha" operator="out" result="shadowBlurOuter2"></feComposite>
            <feColorMatrix values="0 0 0 0 1   0 0 0 0 1   0 0 0 0 1  0 0 0 1 0" type="matrix" in="shadowBlurOuter2" result="shadowMatrixOuter2"></feColorMatrix>
            <feMerge>
                <feMergeNode in="shadowMatrixOuter1"></feMergeNode>
                <feMergeNode in="shadowMatrixOuter2"></feMergeNode>
            </feMerge>
        </filter>
        <path d="M130.325,101.03 C127.18,102.475 126.075,104.94 125.31,112.93 C125.225,113.78 124.715,114.29 124.12,114.29 C123.95,114.29 123.695,114.29 123.525,114.12 C118,110.975 113.75,105.705 110.775,98.055 C103.975,104.09 97.685,107.745 91.31,110.89 C90.63,111.23 89.95,111.315 89.865,112.505 C89.78,113.78 89.1,114.375 88.42,114.375 C87.825,114.375 87.145,113.865 86.89,112.93 C85.615,108.68 84.34,105.28 83.15,101.115 C83.065,100.775 82.98,100.435 82.98,100.265 C82.98,99.755 83.235,99.67 83.575,99.67 C83.83,99.67 84.085,99.755 84.34,99.755 C85.87,99.67 88.165,99.5 90.375,99.245 C90.545,94.315 90.46,88.79 90.545,83.265 C89.355,83.265 89.015,83.605 88.505,84.285 C86.04,87.515 82.895,91.68 78.305,94.825 C78.05,94.995 77.795,95.08 77.625,95.08 L77.625,95.76 C81.195,95.08 84.935,94.315 88.845,93.38 L89.1,93.38 C89.61,93.38 89.865,93.805 89.865,94.315 C89.865,94.57 89.695,94.91 89.44,95.165 C80.005,102.39 70.655,107.575 61.9,110.55 C61.135,110.805 60.88,111.145 60.625,112.42 C60.37,113.695 59.775,114.375 59.18,114.375 C58.585,114.375 57.99,113.78 57.735,112.76 C56.46,108.34 55.185,104.09 54.335,100.01 C54.165,99.5 54.08,99.16 54.08,98.905 C54.08,98.395 54.505,98.395 56.035,98.395 C58.5,98.31 61.985,98.055 66.065,97.545 C66.065,95.93 66.15,94.23 66.15,92.615 C65.215,94.315 63.345,95.25 61.645,95.25 C59.69,95.25 57.82,94.145 57.395,91.595 C57.31,91 57.225,90.405 57.225,89.895 C57.225,87.94 57.82,86.325 57.82,84.455 C57.82,82.925 57.395,81.225 56.12,79.015 C56.035,78.76 55.95,78.59 55.95,78.42 C55.95,78.08 56.29,77.825 56.715,77.825 C56.97,77.825 57.14,77.91 57.395,77.995 C62.41,80.46 65.13,83.605 66.235,87.005 C66.235,83.265 66.32,78.76 66.32,75.275 L65.64,75.275 C62.495,75.275 59.265,75.36 57.565,75.955 C56.885,76.125 56.205,75.87 55.865,75.19 C55.525,74.51 55.015,73.065 54.76,71.96 L54.76,71.535 C54.76,71.195 54.845,71.11 55.1,71.11 C55.355,71.11 55.525,71.11 55.865,71.195 C58.415,71.96 62.665,72.3 65.64,72.3 L66.32,72.3 C66.32,69.325 66.235,66.605 66.15,64.055 L62.325,64.055 C60.285,65.67 57.99,67.2 55.525,68.73 C55.27,68.9 55.015,68.985 54.845,68.985 C54.42,68.985 54.165,68.645 54.165,68.305 C54.165,68.05 54.165,67.88 54.335,67.625 C59.69,57.595 63.345,46.8 64.11,40.765 C64.28,39.575 64.195,39.15 64.875,39.15 C65.045,39.15 65.215,39.235 65.385,39.235 C69.805,39.66 75.67,40.425 79.92,41.105 C80.94,41.275 81.45,41.87 81.45,42.465 C81.45,43.145 80.94,43.74 79.92,43.995 C78.9,44.25 78.475,44.25 78.135,44.59 C84.68,46.035 88.76,47.82 89.865,52.75 C89.95,53.26 90.035,53.685 90.035,54.11 C90.035,57.425 87.145,59.805 84.34,59.805 C84.085,59.805 83.83,59.72 83.575,59.72 C84.34,60.485 85.19,61.25 85.87,62.015 C86.125,62.355 86.295,62.78 86.295,63.12 C86.295,63.63 85.955,64.055 85.275,64.055 L77.625,64.055 L77.625,72.3 C77.965,72.215 78.305,72.045 78.56,71.705 C79.58,70.345 81.195,68.56 82.555,66.945 C83.065,66.35 83.745,66.35 84.425,66.945 C86.38,68.645 88.335,70.685 90.545,73.32 L90.545,67.965 C90.545,55.385 90.29,44.845 89.61,42.635 C89.355,41.87 89.27,41.275 89.27,40.935 C89.27,40.255 89.525,40 90.035,40 C90.205,40 90.545,40.085 90.885,40.17 C96.58,41.87 103.805,44.76 103.805,44.76 L110.52,44.76 C111.285,44.76 111.795,44.59 112.22,44.165 C113.665,42.975 115.45,41.445 116.81,40.34 C117.32,39.915 118.255,39.915 119.105,40.34 C121.485,41.53 124.46,43.995 126.585,45.525 C127.35,46.035 127.69,46.715 127.69,47.395 C127.69,48.075 127.265,48.84 126.5,49.35 C124.8,50.455 124.375,50.795 124.375,52.24 C124.375,53.77 124.29,55.895 124.29,58.275 C124.29,63.12 124.375,69.155 124.63,73.83 L124.63,74.17 C124.63,76.55 122.76,77.74 119.19,77.995 C122.845,79.95 127.35,82.585 129.305,84.03 C129.9,84.455 130.24,85.05 130.24,85.56 C130.24,86.325 129.73,86.92 128.71,86.92 L128.285,86.92 C127.775,86.835 127.435,86.75 127.095,86.75 C126.585,86.75 126.16,87.005 125.48,87.515 C123.525,88.96 120.89,90.405 117.915,91.765 C121.145,94.91 125.14,97.205 130.07,98.82 C131.175,99.16 131.26,100.605 130.325,101.03 Z M112.39,57.68 C112.475,53.855 112.475,50.285 112.39,47.82 L102.7,47.82 C102.615,49.86 102.53,53.345 102.53,57.68 L112.39,57.68 Z M79.665,55.98 C78.56,52.495 80.175,50.54 76.69,46.97 C73.545,52.58 70.145,57.17 65.895,61.08 L72.185,61.08 C72.95,61.08 73.46,60.91 73.8,60.485 C74.905,59.125 76.435,57.255 77.795,55.81 C78.05,55.555 78.305,55.385 78.645,55.385 C78.985,55.385 79.325,55.555 79.665,55.98 Z M112.39,60.74 L102.445,60.74 L102.445,71.705 L112.22,71.705 C112.305,68.22 112.39,64.395 112.39,60.74 Z M116.98,78.08 C114.005,78.08 112.135,77.655 112.135,75.275 L112.135,74.765 L108.99,74.765 C110.265,80.12 112.135,84.37 114.6,87.94 C115.79,84.455 116.725,80.545 116.98,78.08 Z M90.545,80.63 L90.545,75.275 L77.625,75.275 C77.54,80.8 77.54,86.665 77.625,92.53 C79.155,87.345 80.005,82.415 80.09,78.59 L80.09,77.825 C80.09,77.4 80.175,77.145 80.6,77.145 C80.855,77.145 81.11,77.23 81.45,77.315 C84.255,78.25 87.485,79.355 90.545,80.63 Z M110.01,95.76 C108.14,90.065 106.95,83.095 106.27,74.765 L102.445,74.765 C102.445,82.16 102.53,90.065 102.53,97.375 C105.08,96.865 107.63,96.355 110.01,95.76 Z M128.54,134.69 C128.54,135.455 127.945,135.965 126.925,135.965 C126.67,135.965 126.245,135.88 125.905,135.795 C124.8,135.455 124.205,135.285 123.44,135.285 C123.015,135.285 122.59,135.37 121.995,135.455 C115.45,136.39 104.74,137.58 93.265,137.58 C90.29,137.58 87.315,137.495 84.34,137.325 C83.32,137.24 82.895,136.815 82.895,136.305 C82.895,135.88 83.32,135.37 84.255,135.2 C98.535,132.31 109.5,127.72 113.665,124.575 C114.26,124.15 114.6,123.81 115.11,123.81 C115.365,123.81 115.705,123.895 116.215,124.235 C119.53,126.36 124.46,130.27 127.435,132.82 C128.2,133.415 128.54,134.095 128.54,134.69 Z M111.54,148.205 C111.54,152.285 108.395,154.58 105.335,154.58 C103.125,154.58 101,153.39 100.235,150.67 C100.065,149.99 99.98,149.31 99.98,148.63 C99.98,147.015 100.49,145.485 100.49,143.87 C100.49,142.425 100.065,140.98 98.79,139.195 C98.705,139.025 98.62,138.855 98.62,138.685 C98.62,138.26 98.875,137.92 99.47,137.92 C99.555,137.92 99.725,138.005 99.895,138.005 C104.655,138.855 110.69,142.425 111.455,146.76 C111.54,147.27 111.54,147.78 111.54,148.205 Z M98.11,151.18 C98.11,155.09 95.05,157.215 92.075,157.215 C89.61,157.215 87.23,155.77 86.55,152.965 C86.38,152.03 86.295,151.265 86.295,150.5 C86.295,149.225 86.465,148.12 86.465,147.015 C86.465,145.23 86.04,143.36 84.085,140.98 C83.915,140.725 83.745,140.385 83.745,140.215 C83.745,139.705 84.085,139.45 84.68,139.45 C84.765,139.45 84.935,139.535 85.105,139.535 C91.905,141.235 97.26,144.465 98.025,150.075 C98.11,150.415 98.11,150.84 98.11,151.18 Z M85.785,127.72 C85.785,128.4 85.275,129.165 84.17,129.42 C82.725,129.76 82.215,130.61 82.13,131.63 C81.96,133.755 81.875,142.425 81.875,153.815 C81.875,166.225 81.96,181.865 82.3,195.55 C82.3,197.59 80.77,198.78 77.2,199.205 C76.69,199.29 76.18,199.375 75.585,199.375 L74.395,199.375 C70.74,199.375 69.38,198.355 69.38,196.4 C69.55,187.815 69.72,177.275 69.805,167.075 C67.51,172.175 63.77,177.7 61.39,181.015 C60.795,181.78 60.88,182.29 60.71,183.735 C60.625,184.84 59.945,185.435 59.265,185.435 C58.67,185.435 58.075,184.925 57.82,183.99 C56.63,179.145 55.185,172.6 54.335,167.84 C54.25,167.415 54.25,167.16 54.25,166.905 C54.25,166.31 54.59,166.31 56.12,166.14 C58.755,165.8 65.045,164.44 69.805,161.89 L69.805,151.52 C69.465,154.75 66.915,156.28 64.28,156.28 C61.815,156.28 59.265,154.92 58.245,152.285 C57.905,151.52 57.82,150.755 57.82,149.99 C57.82,148.035 58.585,146.25 58.585,143.955 C58.585,141.915 58.075,139.62 55.95,136.645 C55.865,136.475 55.78,136.305 55.78,136.05 C55.78,135.625 56.12,135.2 56.715,135.2 C56.8,135.2 56.97,135.2 57.14,135.285 C63.515,138.005 68.19,141.49 69.805,146.335 C69.805,136.73 69.72,128.825 69.55,127.55 C69.295,126.02 69.21,125.17 69.21,124.745 C69.21,124.235 69.295,124.15 69.635,124.15 C69.805,124.15 69.975,124.235 70.315,124.235 C74.905,124.66 80.005,125.425 84.255,126.19 C85.275,126.36 85.785,127.04 85.785,127.72 Z M130.835,166.565 C130.835,167.16 130.58,167.585 129.56,167.585 L120.295,167.585 C120.295,174.895 120.38,184.33 120.55,189.855 L120.55,190.11 C120.55,195.635 117.575,198.355 106.525,199.29 L105.93,199.29 C104.995,199.29 104.57,199.12 104.485,198.27 C103.805,191.13 102.53,190.365 96.07,187.56 C95.475,187.305 95.22,186.88 95.22,186.455 C95.22,185.945 95.645,185.52 96.495,185.52 L96.665,185.52 C99.555,185.69 102.445,185.86 105.59,185.945 L105.76,185.945 C107.205,185.945 107.46,185.01 107.545,183.82 C107.63,181.695 107.715,178.21 107.715,174.47 C107.715,172.175 107.715,169.795 107.63,167.585 L94.03,167.585 C90.715,167.585 87.315,167.755 85.615,168.265 C84.935,168.435 84.17,168.18 83.83,167.5 C83.49,166.82 82.98,165.12 82.725,164.185 C82.64,163.93 82.64,163.845 82.64,163.675 C82.64,163.42 82.81,163.335 83.065,163.335 C83.235,163.335 83.49,163.335 83.83,163.42 C86.38,164.185 90.8,164.525 93.945,164.525 L107.545,164.525 C107.46,161.89 107.29,159.765 107.12,158.575 C106.865,157.3 106.695,156.45 106.695,155.94 C106.695,155.345 106.95,155.175 107.545,155.175 C107.715,155.175 107.97,155.26 108.225,155.26 C109.075,155.345 109.925,155.515 111.115,155.685 C112.9,150.33 114.77,142.17 114.855,138.005 C114.855,137.155 114.94,136.9 115.45,136.9 C115.705,136.9 115.96,136.985 116.385,137.07 C120.04,138.005 125.565,139.62 128.965,140.81 C129.73,141.065 130.155,141.745 130.155,142.34 C130.155,143.105 129.56,143.785 128.455,143.87 C127.605,143.87 126.67,144.21 126.16,144.805 C123.015,149.14 119.105,153.135 114.685,156.11 C116.725,156.365 119.87,156.705 121.655,156.96 C122.675,157.13 123.27,157.725 123.27,158.405 C123.27,159 122.76,159.68 121.74,160.105 C120.635,160.53 120.38,161.125 120.38,161.89 L120.38,164.525 C120.72,164.525 120.89,164.27 121.23,163.76 C121.995,162.4 123.1,160.615 124.205,159 C124.46,158.66 124.715,158.49 125.055,158.49 C125.31,158.49 125.65,158.66 125.905,159 C127.435,160.955 129.305,163.505 130.495,165.46 C130.665,165.8 130.835,166.225 130.835,166.565 Z M101.765,179.06 C101.765,182.715 98.45,185.095 95.22,185.095 C93.18,185.095 91.14,184.075 90.035,181.95 C89.44,180.845 89.355,179.995 89.355,179.145 C89.355,178.04 89.61,177.02 89.61,175.915 C89.61,174.47 89.1,172.855 86.805,170.475 C86.55,170.22 86.465,169.88 86.465,169.625 C86.465,169.285 86.72,168.945 87.315,168.945 L87.655,168.945 C94.2,170.135 99.81,171.835 101.425,176.85 C101.68,177.615 101.765,178.38 101.765,179.06 Z" id="path-4"></path>
        <filter x="-44.2%" y="-21.2%" width="188.4%" height="142.4%" filterUnits="objectBoundingBox" id="filter-5">
            <feOffset dx="0" dy="0" in="SourceAlpha" result="shadowOffsetOuter1"></feOffset>
            <feGaussianBlur stdDeviation="10" in="shadowOffsetOuter1" result="shadowBlurOuter1"></feGaussianBlur>
            <feColorMatrix values="0 0 0 0 1   0 0 0 0 1   0 0 0 0 1  0 0 0 1 0" type="matrix" in="shadowBlurOuter1" result="shadowMatrixOuter1"></feColorMatrix>
            <feOffset dx="0" dy="0" in="SourceAlpha" result="shadowOffsetOuter2"></feOffset>
            <feGaussianBlur stdDeviation="2" in="shadowOffsetOuter2" result="shadowBlurOuter2"></feGaussianBlur>
            <feColorMatrix values="0 0 0 0 0   0 0 0 0 1   0 0 0 0 0.392156863  0 0 0 1 0" type="matrix" in="shadowBlurOuter2" result="shadowMatrixOuter2"></feColorMatrix>
            <feMerge>
                <feMergeNode in="shadowMatrixOuter1"></feMergeNode>
                <feMergeNode in="shadowMatrixOuter2"></feMergeNode>
            </feMerge>
        </filter>
    </defs>
    <g id="Symbols" stroke="none" stroke-width="1" fill="none" fill-rule="evenodd">
        <g id="koma-vecter" transform="translate(29.000000, 20.000000)">
            <g id="gin" transform="translate(1.000000, 8.000000)">
                <mask id="mask-2" fill="white">
                    <use xlink:href="#path-1"></use>
                </mask>
                <g id="Polygon-Copy-24" transform="translate(92.000000, 115.500000) scale(-1, 1) translate(-92.000000, -115.500000) ">
                    <use fill="black" fill-opacity="1" filter="url(#filter-3)" xlink:href="#path-1"></use>
                    <use stroke="#00FF64" stroke-width="3" fill="#000000" fill-rule="evenodd" xlink:href="#path-1"></use>
                </g>
                <g mask="url(#mask-2)">
                    <use fill="black" fill-opacity="1" filter="url(#filter-5)" xlink:href="#path-4"></use>
                    <use fill="#0A3208" fill-rule="evenodd" xlink:href="#path-4"></use>
                </g>
            </g>
        </g>
    </g>
</svg>