<?xml version="1.0" encoding="UTF-8"?>
<svg width="244px" height="291px" viewBox="0 0 244 291" version="1.1" xmlns="http://www.w3.org/2000/svg" xmlns:xlink="http://www.w3.org/1999/xlink">
    <!-- Generator: Sketch 47.1 (45422) - http://www.bohemiancoding.com/sketch -->
    <title>narigin</title>
    <desc>Created with Sketch.</desc>
    <defs>
        <path d="M92,0 L147.2,16.7854036 L184,214.705394 L0,214.705394 L36.8,16.7854036 L92,0 Z M0,214.705394 L184,214.705394 L184,231 L0,231 L0,214.705394 Z" id="path-1"></path>
        <filter x="-38.9%" y="-30.1%" width="177.7%" height="161.9%" filterUnits="objectBoundingBox" id="filter-3">
            <feMorphology radius="1.5" operator="dilate" in="SourceAlpha" result="shadowSpreadOuter1"></feMorphology>
            <feOffset dx="0" dy="1" in="shadowSpreadOuter1" result="shadowOffsetOuter1"></feOffset>
            <feGaussianBlur stdDeviation="15.5" in="shadowOffsetOuter1" result="shadowBlurOuter1"></feGaussianBlur>
            <feComposite in="shadowBlurOuter1" in2="SourceAlpha" operator="out" result="shadowBlurOuter1"></feComposite>
            <feColorMatrix values="0 0 0 0 0   0 0 0 0 1   0 0 0 0 0  0 0 0 1 0" type="matrix" in="shadowBlurOuter1" result="shadowMatrixOuter1"></feColorMatrix>
            <feMorphology radius="1.5" operator="dilate" in="SourceAlpha" result="shadowSpreadOuter2"></feMorphology>
            <feOffset dx="0" dy="1" in="shadowSpreadOuter2" result="shadowOffsetOuter2"></feOffset>
            <feGaussianBlur stdDeviation="11.5" in="shadowOffsetOuter2" result="shadowBlurOuter2"></feGaussianBlur>
            <feComposite in="shadowBlurOuter2" in2="SourceAlpha" operator="out" result="shadowBlurOuter2"></feComposite>
            <feColorMatrix values="0 0 0 0 1   0 0 0 0 1   0 0 0 0 1  0 0 0 1 0" type="matrix" in="shadowBlurOuter2" result="shadowMatrixOuter2"></feColorMatrix>
            <feMerge>
                <feMergeNode in="shadowMatrixOuter1"></feMergeNode>
                <feMergeNode in="shadowMatrixOuter2"></feMergeNode>
            </feMerge>
        </filter>
        <path d="M131.005,111 C131.005,114.57 128.37,117.375 124.29,117.375 C122.76,117.375 121.06,117.035 119.19,116.1 C112.9,112.955 108.14,108.79 104.57,103.52 C97.43,109.3 88.25,113.55 76.18,115.675 L75.84,115.675 C74.65,115.675 74.565,114.485 75.585,114.06 C85.105,109.215 93.435,102.5 99.98,94.51 C97.855,88.9 96.41,82.525 95.39,75.215 C95.22,75.555 94.88,75.895 94.455,76.15 C93.095,77.085 92.755,77.255 92.67,79.55 C92.5,83.29 92.415,91.45 90.97,97.4 C89.865,102.075 85.36,104.03 79.325,104.88 C79.07,104.88 78.815,104.965 78.645,104.965 C77.71,104.965 77.455,104.54 77.285,103.605 C76.775,98.42 76.69,96.125 72.44,93.915 C69.465,105.73 62.41,112.53 55.355,116.95 C54.93,117.205 54.59,117.29 54.335,117.29 C53.995,117.29 53.74,117.035 53.74,116.61 C53.74,116.27 53.91,115.93 54.08,115.42 C57.31,108.025 59.435,101.735 60.71,90.175 C61.305,84.82 61.56,77.595 61.56,70.965 C61.56,63.315 61.22,56.43 60.71,54.39 C60.455,53.37 60.37,52.605 60.37,52.18 C60.37,51.5 60.54,51.33 60.88,51.33 C61.22,51.33 61.475,51.415 61.9,51.585 C65.98,52.945 71.25,54.73 75.67,56.6 L93.775,56.6 C93.605,52.775 93.435,48.78 93.265,44.615 C93.18,43.85 92.925,43.17 92.925,42.66 C92.925,42.32 93.095,42.15 93.69,42.15 L94.03,42.15 C97.94,42.49 102.955,43 106.525,43.68 C106.355,43.51 106.355,43.255 106.355,43.085 C106.355,42.66 106.695,42.405 107.46,42.405 L107.63,42.405 C112.9,42.66 118.17,43.51 119.7,47.93 C119.955,48.695 120.04,49.375 120.04,49.97 C120.04,50.99 119.785,51.925 119.36,52.69 C119.87,52.095 120.38,51.585 120.975,50.99 C121.57,50.395 122.165,50.395 122.93,50.99 C125.31,52.86 127.69,54.815 129.985,57.45 C130.24,57.705 130.495,58.3 130.495,58.725 C130.495,59.15 130.24,59.575 129.22,59.575 L106.185,59.575 C106.61,68.075 107.375,75.725 108.735,81.59 C111.03,77.085 113.07,71.73 114.345,66.63 C114.515,65.695 114.43,64.845 115.11,64.845 C115.28,64.845 115.535,64.93 115.79,65.015 C119.87,66.63 124.29,68.585 128.03,70.54 C128.88,71.05 129.305,71.645 129.305,72.24 C129.305,73.09 128.54,73.77 127.265,73.77 C125.565,73.77 125.14,73.94 124.63,75.045 C121.57,81.93 118.255,88.22 114.005,93.83 C115.62,96.21 117.575,98.25 119.87,100.12 C120.55,100.715 121.145,100.97 121.655,100.97 C122.25,100.97 122.845,100.545 123.185,99.78 C124.8,96.72 126.245,93.66 127.52,90.43 C127.86,89.495 128.285,89.07 128.71,89.07 C129.135,89.07 129.475,89.58 129.475,90.6 L129.475,91.11 C128.71,95.615 128.115,98.845 128.115,101.31 C128.115,103.18 128.455,104.71 129.39,106.07 C130.495,107.77 131.005,109.47 131.005,111 Z M117.405,54.73 C116.47,55.325 115.365,55.58 114.26,55.58 C112.56,55.58 110.945,54.9 109.84,53.115 C108.48,50.99 109.585,48.695 108.565,46.315 C108.31,46.57 107.97,46.825 107.46,46.995 C106.27,47.505 105.93,47.675 105.93,49.375 C105.93,51.925 106.015,54.305 106.1,56.6 L114.26,56.6 C115.535,56.6 116.215,55.92 117.405,54.73 Z M95.05,72.58 C94.625,68.5 94.285,64.165 93.945,59.575 L74.48,59.575 L74.48,71.645 L78.56,71.645 C79.495,71.645 80.005,71.39 80.43,70.965 C81.45,70.03 83.575,68.245 85.105,66.885 C85.36,66.63 85.785,66.46 86.21,66.46 C86.635,66.46 86.975,66.545 87.485,66.885 C90.12,68.585 93.435,70.965 95.05,72.58 Z M80.855,77 L80.855,74.62 L74.395,74.62 C74.225,80.74 73.8,86.86 72.95,91.79 C74.225,91.96 75.84,92.13 77.2,92.13 C79.495,92.13 79.75,91.96 80.175,89.155 C80.685,85.5 80.855,81.25 80.855,77 Z M130.325,189.03 C127.18,190.475 126.075,192.94 125.31,200.93 C125.225,201.78 124.715,202.29 124.12,202.29 C123.95,202.29 123.695,202.29 123.525,202.12 C118,198.975 113.75,193.705 110.775,186.055 C103.975,192.09 97.685,195.745 91.31,198.89 C90.63,199.23 89.95,199.315 89.865,200.505 C89.78,201.78 89.1,202.375 88.42,202.375 C87.825,202.375 87.145,201.865 86.89,200.93 C85.615,196.68 84.34,193.28 83.15,189.115 C83.065,188.775 82.98,188.435 82.98,188.265 C82.98,187.755 83.235,187.67 83.575,187.67 C83.83,187.67 84.085,187.755 84.34,187.755 C85.87,187.67 88.165,187.5 90.375,187.245 C90.545,182.315 90.46,176.79 90.545,171.265 C89.355,171.265 89.015,171.605 88.505,172.285 C86.04,175.515 82.895,179.68 78.305,182.825 C78.05,182.995 77.795,183.08 77.625,183.08 L77.625,183.76 C81.195,183.08 84.935,182.315 88.845,181.38 L89.1,181.38 C89.61,181.38 89.865,181.805 89.865,182.315 C89.865,182.57 89.695,182.91 89.44,183.165 C80.005,190.39 70.655,195.575 61.9,198.55 C61.135,198.805 60.88,199.145 60.625,200.42 C60.37,201.695 59.775,202.375 59.18,202.375 C58.585,202.375 57.99,201.78 57.735,200.76 C56.46,196.34 55.185,192.09 54.335,188.01 C54.165,187.5 54.08,187.16 54.08,186.905 C54.08,186.395 54.505,186.395 56.035,186.395 C58.5,186.31 61.985,186.055 66.065,185.545 C66.065,183.93 66.15,182.23 66.15,180.615 C65.215,182.315 63.345,183.25 61.645,183.25 C59.69,183.25 57.82,182.145 57.395,179.595 C57.31,179 57.225,178.405 57.225,177.895 C57.225,175.94 57.82,174.325 57.82,172.455 C57.82,170.925 57.395,169.225 56.12,167.015 C56.035,166.76 55.95,166.59 55.95,166.42 C55.95,166.08 56.29,165.825 56.715,165.825 C56.97,165.825 57.14,165.91 57.395,165.995 C62.41,168.46 65.13,171.605 66.235,175.005 C66.235,171.265 66.32,166.76 66.32,163.275 L65.64,163.275 C62.495,163.275 59.265,163.36 57.565,163.955 C56.885,164.125 56.205,163.87 55.865,163.19 C55.525,162.51 55.015,161.065 54.76,159.96 L54.76,159.535 C54.76,159.195 54.845,159.11 55.1,159.11 C55.355,159.11 55.525,159.11 55.865,159.195 C58.415,159.96 62.665,160.3 65.64,160.3 L66.32,160.3 C66.32,157.325 66.235,154.605 66.15,152.055 L62.325,152.055 C60.285,153.67 57.99,155.2 55.525,156.73 C55.27,156.9 55.015,156.985 54.845,156.985 C54.42,156.985 54.165,156.645 54.165,156.305 C54.165,156.05 54.165,155.88 54.335,155.625 C59.69,145.595 63.345,134.8 64.11,128.765 C64.28,127.575 64.195,127.15 64.875,127.15 C65.045,127.15 65.215,127.235 65.385,127.235 C69.805,127.66 75.67,128.425 79.92,129.105 C80.94,129.275 81.45,129.87 81.45,130.465 C81.45,131.145 80.94,131.74 79.92,131.995 C78.9,132.25 78.475,132.25 78.135,132.59 C84.68,134.035 88.76,135.82 89.865,140.75 C89.95,141.26 90.035,141.685 90.035,142.11 C90.035,145.425 87.145,147.805 84.34,147.805 C84.085,147.805 83.83,147.72 83.575,147.72 C84.34,148.485 85.19,149.25 85.87,150.015 C86.125,150.355 86.295,150.78 86.295,151.12 C86.295,151.63 85.955,152.055 85.275,152.055 L77.625,152.055 L77.625,160.3 C77.965,160.215 78.305,160.045 78.56,159.705 C79.58,158.345 81.195,156.56 82.555,154.945 C83.065,154.35 83.745,154.35 84.425,154.945 C86.38,156.645 88.335,158.685 90.545,161.32 L90.545,155.965 C90.545,143.385 90.29,132.845 89.61,130.635 C89.355,129.87 89.27,129.275 89.27,128.935 C89.27,128.255 89.525,128 90.035,128 C90.205,128 90.545,128.085 90.885,128.17 C96.58,129.87 103.805,132.76 103.805,132.76 L110.52,132.76 C111.285,132.76 111.795,132.59 112.22,132.165 C113.665,130.975 115.45,129.445 116.81,128.34 C117.32,127.915 118.255,127.915 119.105,128.34 C121.485,129.53 124.46,131.995 126.585,133.525 C127.35,134.035 127.69,134.715 127.69,135.395 C127.69,136.075 127.265,136.84 126.5,137.35 C124.8,138.455 124.375,138.795 124.375,140.24 C124.375,141.77 124.29,143.895 124.29,146.275 C124.29,151.12 124.375,157.155 124.63,161.83 L124.63,162.17 C124.63,164.55 122.76,165.74 119.19,165.995 C122.845,167.95 127.35,170.585 129.305,172.03 C129.9,172.455 130.24,173.05 130.24,173.56 C130.24,174.325 129.73,174.92 128.71,174.92 L128.285,174.92 C127.775,174.835 127.435,174.75 127.095,174.75 C126.585,174.75 126.16,175.005 125.48,175.515 C123.525,176.96 120.89,178.405 117.915,179.765 C121.145,182.91 125.14,185.205 130.07,186.82 C131.175,187.16 131.26,188.605 130.325,189.03 Z M112.39,145.68 C112.475,141.855 112.475,138.285 112.39,135.82 L102.7,135.82 C102.615,137.86 102.53,141.345 102.53,145.68 L112.39,145.68 Z M79.665,143.98 C78.56,140.495 80.175,138.54 76.69,134.97 C73.545,140.58 70.145,145.17 65.895,149.08 L72.185,149.08 C72.95,149.08 73.46,148.91 73.8,148.485 C74.905,147.125 76.435,145.255 77.795,143.81 C78.05,143.555 78.305,143.385 78.645,143.385 C78.985,143.385 79.325,143.555 79.665,143.98 Z M112.39,148.74 L102.445,148.74 L102.445,159.705 L112.22,159.705 C112.305,156.22 112.39,152.395 112.39,148.74 Z M116.98,166.08 C114.005,166.08 112.135,165.655 112.135,163.275 L112.135,162.765 L108.99,162.765 C110.265,168.12 112.135,172.37 114.6,175.94 C115.79,172.455 116.725,168.545 116.98,166.08 Z M90.545,168.63 L90.545,163.275 L77.625,163.275 C77.54,168.8 77.54,174.665 77.625,180.53 C79.155,175.345 80.005,170.415 80.09,166.59 L80.09,165.825 C80.09,165.4 80.175,165.145 80.6,165.145 C80.855,165.145 81.11,165.23 81.45,165.315 C84.255,166.25 87.485,167.355 90.545,168.63 Z M110.01,183.76 C108.14,178.065 106.95,171.095 106.27,162.765 L102.445,162.765 C102.445,170.16 102.53,178.065 102.53,185.375 C105.08,184.865 107.63,184.355 110.01,183.76 Z" id="path-4"></path>
        <filter x="-174.1%" y="-83.9%" width="448.2%" height="267.9%" filterUnits="objectBoundingBox" id="filter-5">
            <feOffset dx="0" dy="0" in="SourceAlpha" result="shadowOffsetOuter1"></feOffset>
            <feGaussianBlur stdDeviation="10" in="shadowOffsetOuter1" result="shadowBlurOuter1"></feGaussianBlur>
            <feColorMatrix values="0 0 0 0 1   0 0 0 0 1   0 0 0 0 1  0 0 0 1 0" type="matrix" in="shadowBlurOuter1" result="shadowMatrixOuter1"></feColorMatrix>
            <feOffset dx="0" dy="0" in="SourceAlpha" result="shadowOffsetOuter2"></feOffset>
            <feGaussianBlur stdDeviation="3.5" in="shadowOffsetOuter2" result="shadowBlurOuter2"></feGaussianBlur>
            <feColorMatrix values="0 0 0 0 1   0 0 0 0 0   0 0 0 0 0  0 0 0 1 0" type="matrix" in="shadowBlurOuter2" result="shadowMatrixOuter2"></feColorMatrix>
            <feOffset dx="0" dy="0" in="SourceAlpha" result="shadowOffsetOuter3"></feOffset>
            <feGaussianBlur stdDeviation="20" in="shadowOffsetOuter3" result="shadowBlurOuter3"></feGaussianBlur>
            <feColorMatrix values="0 0 0 0 1   0 0 0 0 1   0 0 0 0 1  0 0 0 1 0" type="matrix" in="shadowBlurOuter3" result="shadowMatrixOuter3"></feColorMatrix>
            <feOffset dx="0" dy="0" in="SourceAlpha" result="shadowOffsetOuter4"></feOffset>
            <feGaussianBlur stdDeviation="22.5" in="shadowOffsetOuter4" result="shadowBlurOuter4"></feGaussianBlur>
            <feColorMatrix values="0 0 0 0 1   0 0 0 0 0   0 0 0 0 0  0 0 0 1 0" type="matrix" in="shadowBlurOuter4" result="shadowMatrixOuter4"></feColorMatrix>
            <feMerge>
                <feMergeNode in="shadowMatrixOuter1"></feMergeNode>
                <feMergeNode in="shadowMatrixOuter2"></feMergeNode>
                <feMergeNode in="shadowMatrixOuter3"></feMergeNode>
                <feMergeNode in="shadowMatrixOuter4"></feMergeNode>
            </feMerge>
        </filter>
    </defs>
    <g id="Symbols" stroke="none" stroke-width="1" fill="none" fill-rule="evenodd">
        <g id="koma-vecter" transform="translate(29.000000, 20.000000)">
            <g id="narigin" transform="translate(1.000000, 8.000000)">
                <mask id="mask-2" fill="white">
                    <use xlink:href="#path-1"></use>
                </mask>
                <g id="Polygon" transform="translate(92.000000, 115.500000) scale(-1, 1) translate(-92.000000, -115.500000) ">
                    <use fill="black" fill-opacity="1" filter="url(#filter-3)" xlink:href="#path-1"></use>
                    <use stroke="#00FF64" stroke-width="3" fill="#000000" fill-rule="evenodd" xlink:href="#path-1"></use>
                </g>
                <g id="kakukou-nari" mask="url(#mask-2)">
                    <use fill="black" fill-opacity="1" filter="url(#filter-5)" xlink:href="#path-4"></use>
                    <use fill="#320D08" fill-rule="evenodd" xlink:href="#path-4"></use>
                </g>
            </g>
        </g>
    </g>
</svg>