<?xml version="1.0" encoding="UTF-8"?>
<svg width="244px" height="280px" viewBox="0 0 244 280" version="1.1" xmlns="http://www.w3.org/2000/svg" xmlns:xlink="http://www.w3.org/1999/xlink">
    <!-- Generator: Sketch 47.1 (45422) - http://www.bohemiancoding.com/sketch -->
    <title>keima</title>
    <desc>Created with Sketch.</desc>
    <defs>
        <path d="M92,0 L147.2,15.9860987 L184,204.481328 L0,204.481328 L36.8,15.9860987 L92,0 Z M0,204.481328 L184,204.481328 L184,220 L0,220 L0,204.481328 Z" id="path-1"></path>
        <filter x="-38.9%" y="-31.6%" width="177.7%" height="165.0%" filterUnits="objectBoundingBox" id="filter-3">
            <feMorphology radius="1.5" operator="dilate" in="SourceAlpha" result="shadowSpreadOuter1"></feMorphology>
            <feOffset dx="0" dy="1" in="shadowSpreadOuter1" result="shadowOffsetOuter1"></feOffset>
            <feGaussianBlur stdDeviation="15.5" in="shadowOffsetOuter1" result="shadowBlurOuter1"></feGaussianBlur>
            <feComposite in="shadowBlurOuter1" in2="SourceAlpha" operator="out" result="shadowBlurOuter1"></feComposite>
            <feColorMatrix values="0 0 0 0 0   0 0 0 0 1   0 0 0 0 0  0 0 0 1 0" type="matrix" in="shadowBlurOuter1" result="shadowMatrixOuter1"></feColorMatrix>
            <feMorphology radius="1.5" operator="dilate" in="SourceAlpha" result="shadowSpreadOuter2"></feMorphology>
            <feOffset dx="0" dy="1" in="shadowSpreadOuter2" result="shadowOffsetOuter2"></feOffset>
            <feGaussianBlur stdDeviation="11.5" in="shadowOffsetOuter2" result="shadowBlurOuter2"></feGaussianBlur>
            <feComposite in="shadowBlurOuter2" in2="SourceAlpha" operator="out" result="shadowBlurOuter2"></feComposite>
            <feColorMatrix values="0 0 0 0 1   0 0 0 0 1   0 0 0 0 1  0 0 0 1 0" type="matrix" in="shadowBlurOuter2" result="shadowMatrixOuter2"></feColorMatrix>
            <feMerge>
                <feMergeNode in="shadowMatrixOuter1"></feMergeNode>
                <feMergeNode in="shadowMatrixOuter2"></feMergeNode>
            </feMerge>
        </filter>
        <path d="M126.786,64.425 C126.786,64.978 126.391,65.452 125.364,65.452 L94.159,65.452 C91.157,65.452 88.076,65.61 86.496,66.084 C86.891,67.19 87.049,68.375 86.97,69.718 C86.733,72.641 84.521,74.142 82.388,74.142 C80.65,74.142 78.912,73.115 78.675,70.824 C78.596,70.192 78.596,69.639 78.596,69.086 C78.596,67.901 78.675,66.795 78.675,65.689 C78.675,64.109 78.438,62.45 77.174,60.554 C77.174,73.431 77.253,89.389 77.569,100.923 L77.569,101.002 C77.569,102.74 75.436,103.609 71.802,103.846 C71.249,103.846 70.696,103.925 70.222,103.925 C67.141,103.925 65.166,103.214 65.166,101.239 L65.166,101.16 C65.324,95.077 65.482,87.177 65.561,79.04 C63.191,82.279 60.584,84.886 57.977,87.019 C57.74,87.177 57.503,87.256 57.345,87.256 C57.029,87.256 56.713,87.019 56.713,86.624 C56.713,86.466 56.792,86.308 56.871,86.15 C60.9,76.907 63.744,67.348 65.324,54.234 C63.428,54.234 61.216,54.471 60.031,54.787 C59.873,54.787 59.715,54.866 59.557,54.866 C59.083,54.866 58.688,54.629 58.451,54.155 C58.135,53.523 57.582,51.943 57.345,51.074 C57.266,50.837 57.266,50.758 57.266,50.6 C57.266,50.363 57.424,50.284 57.661,50.284 C57.819,50.284 58.056,50.284 58.372,50.363 C59.952,50.837 62.243,51.153 64.376,51.232 C64.85,51.311 65.245,51.311 65.64,51.311 C65.64,43.49 65.482,37.723 65.245,36.222 C65.087,35.511 65.008,34.958 65.008,34.642 C65.008,34.168 65.245,34.089 65.719,34.089 L66.193,34.089 C69.827,34.405 75.278,35.116 79.07,35.827 C80.018,36.064 80.492,36.617 80.492,37.249 C80.492,37.881 80.018,38.513 78.991,38.75 C77.727,39.145 77.411,39.54 77.411,40.488 C77.332,42.621 77.332,46.492 77.253,51.232 C77.569,51.153 78.043,50.916 78.201,50.679 C79.07,49.099 80.097,46.887 81.124,45.228 C81.282,44.991 81.598,44.833 81.835,44.833 C82.151,44.833 82.388,44.991 82.625,45.228 C84.126,47.045 86.259,49.968 87.681,52.338 C87.839,52.733 87.997,53.049 87.997,53.365 C87.997,53.839 87.681,54.155 87.049,54.155 L77.253,54.155 C77.174,55.261 77.174,56.525 77.174,57.71 C79.544,58.974 82.072,60.317 83.652,61.897 C83.652,61.581 83.81,61.502 84.126,61.502 C84.284,61.502 84.521,61.502 84.837,61.581 C87.207,62.292 91.236,62.608 94.159,62.608 L96.292,62.608 C96.371,58.658 96.45,53.997 96.45,49.731 L96.213,49.731 C93.606,49.731 90.525,49.889 88.945,50.363 C88.313,50.521 87.602,50.284 87.286,49.652 C86.97,49.02 86.496,47.598 86.259,46.729 C86.18,46.571 86.18,46.413 86.18,46.334 C86.18,46.018 86.338,45.939 86.654,45.939 C86.812,45.939 87.049,45.939 87.365,46.018 C89.735,46.729 94.001,47.045 96.213,47.045 L96.45,47.045 C96.45,41.752 96.292,37.486 96.055,36.459 C95.739,35.511 95.581,34.879 95.581,34.563 C95.581,34.168 95.818,34.089 96.371,34.089 L97.082,34.089 C101.269,34.405 106.404,34.879 110.591,35.511 C111.776,35.748 112.329,36.38 112.329,37.17 C112.329,37.802 111.855,38.513 110.749,38.829 C109.327,39.224 108.853,39.54 108.853,40.646 C108.853,42.384 108.774,44.596 108.774,47.045 L109.564,47.045 C110.117,47.045 110.591,46.966 110.986,46.413 C112.25,44.833 113.988,42.621 115.489,40.883 C115.726,40.646 116.042,40.488 116.358,40.488 C116.595,40.488 116.911,40.646 117.227,40.883 C119.36,42.7 121.809,45.149 124.258,47.756 C124.495,47.993 124.653,48.388 124.653,48.704 C124.653,49.257 124.258,49.731 123.547,49.731 L108.774,49.731 C108.774,54.076 108.774,58.737 108.853,62.608 L110.512,62.608 C111.144,62.608 111.539,62.529 112.092,61.897 C113.514,60.159 115.331,57.868 116.832,56.13 C117.069,55.814 117.385,55.656 117.701,55.656 C118.017,55.656 118.412,55.814 118.807,56.13 C121.256,58.184 123.863,60.712 126.312,63.319 C126.549,63.556 126.786,64.03 126.786,64.425 Z M128.208,99.738 C128.208,100.212 127.892,100.686 126.944,100.686 L90.288,100.686 C87.207,100.686 84.126,100.844 82.546,101.318 C81.914,101.476 81.203,101.239 80.887,100.607 C80.571,99.975 80.097,98.474 79.86,97.605 C79.781,97.447 79.781,97.289 79.781,97.21 C79.781,96.894 79.939,96.815 80.255,96.815 C80.413,96.815 80.65,96.815 80.966,96.894 C83.336,97.605 87.049,97.921 90.288,97.921 L96.213,97.921 C96.371,93.023 96.45,87.177 96.45,82.042 L93.764,82.042 C90.683,82.042 87.681,82.2 86.101,82.674 C85.469,82.832 84.679,82.595 84.363,81.963 C84.047,81.331 83.573,79.988 83.336,79.119 C83.178,78.487 83.336,78.329 83.81,78.329 C83.968,78.329 84.205,78.329 84.521,78.408 C86.891,79.119 90.841,79.435 93.764,79.435 L96.45,79.435 C96.371,74.379 96.213,70.429 95.976,69.481 C95.739,68.454 95.502,67.822 95.502,67.506 C95.502,67.111 95.739,66.953 96.213,66.953 C96.45,66.953 96.766,67.032 97.082,67.032 C101.269,67.348 106.404,67.822 110.591,68.454 C111.776,68.691 112.329,69.323 112.329,70.034 C112.329,70.745 111.776,71.456 110.749,71.693 C109.327,72.088 108.853,72.404 108.853,73.51 C108.853,75.011 108.774,77.144 108.774,79.435 L109.88,79.435 C110.512,79.435 110.907,79.356 111.302,78.803 C112.566,77.065 114.225,74.932 115.726,73.036 C115.963,72.799 116.279,72.72 116.595,72.72 C116.911,72.72 117.227,72.799 117.543,73.036 C119.597,74.774 122.204,77.46 124.653,80.146 C124.89,80.383 125.048,80.699 125.048,81.015 C125.048,81.568 124.653,82.042 123.942,82.042 L108.774,82.042 C108.774,87.335 108.774,93.497 108.853,97.921 L111.46,97.921 C112.092,97.921 112.566,97.842 113.04,97.21 C114.462,95.077 116.358,92.47 117.859,90.574 C118.096,90.258 118.412,90.179 118.728,90.179 C119.123,90.179 119.597,90.337 119.913,90.574 C121.967,92.312 125.206,95.63 127.655,98.395 C127.971,98.711 128.208,99.264 128.208,99.738 Z M128.05,156.117 C128.05,156.749 127.655,157.46 126.707,158.013 C125.68,158.566 125.127,158.724 124.969,160.936 C124.653,165.518 123.389,173.181 122.125,177.684 C120.703,182.898 115.331,183.688 107.51,183.925 L106.957,183.925 C106.167,183.925 105.772,183.767 105.693,182.819 C105.219,177.289 104.587,176.104 98.03,173.576 C97.161,173.181 97.24,171.917 98.267,171.917 L98.425,171.917 C101.664,172.154 104.35,172.391 106.957,172.391 C108.932,172.391 109.959,172.075 110.591,169.547 C111.302,166.15 112.013,161.252 112.25,156.354 L78.438,156.354 C78.122,158.645 75.515,159.751 70.933,159.988 C70.222,160.067 69.511,160.067 68.879,160.067 C66.272,160.067 64.692,159.593 64.692,157.302 L64.692,156.986 C65.087,150.429 65.245,140.554 65.245,132.101 C65.245,124.596 65.087,118.197 64.771,116.301 C64.692,115.669 64.613,115.274 64.613,115.037 C64.613,114.721 64.692,114.563 64.929,114.563 C65.166,114.563 65.561,114.642 66.035,114.8 C70.459,116.064 78.991,119.619 78.991,119.619 L106.325,119.619 C106.957,119.619 107.273,119.461 107.747,118.908 C109.169,117.486 111.302,115.511 112.803,114.326 C113.356,113.852 113.751,113.852 114.541,114.326 C116.595,115.669 119.755,118.197 122.283,120.488 C122.678,120.804 122.836,121.12 122.836,121.436 C122.836,121.989 122.362,122.384 121.651,122.384 L100.163,122.384 C100.163,125.07 100.084,127.756 100.084,130.521 L103.876,130.521 C104.508,130.521 104.824,130.442 105.298,129.81 C106.404,128.467 108.458,126.097 109.722,124.754 C110.196,124.201 110.749,124.201 111.46,124.754 C113.435,126.255 116.358,129.02 118.57,131.39 C118.886,131.706 119.044,132.101 119.044,132.417 C119.044,132.891 118.649,133.286 117.938,133.286 L100.005,133.286 L100.005,141.739 L104.034,141.739 C104.666,141.739 105.061,141.66 105.456,141.028 C106.641,139.448 108.537,137.236 109.959,135.735 C110.512,135.182 111.065,135.182 111.697,135.735 C113.83,137.473 116.674,140.08 119.044,142.608 C119.36,142.924 119.439,143.319 119.439,143.635 C119.439,144.109 119.123,144.504 118.412,144.504 L100.005,144.504 C100.005,147.427 100.005,150.508 100.084,153.668 L110.591,153.668 C111.46,153.668 111.697,153.589 112.092,153.273 C113.435,152.167 116.2,149.797 117.385,148.849 C117.78,148.533 118.017,148.375 118.412,148.375 C118.728,148.375 119.044,148.533 119.518,148.849 C121.809,150.271 124.653,152.404 127.102,154.3 C127.655,154.774 128.05,155.406 128.05,156.117 Z M109.327,165.281 C109.327,168.125 106.72,170.021 104.192,170.021 C102.612,170.021 101.111,169.231 100.321,167.493 C98.82,163.938 100.242,161.41 96.766,158.803 C96.529,158.645 96.371,158.408 96.371,158.171 C96.371,157.934 96.687,157.697 97.398,157.697 C102.612,157.855 107.905,159.672 109.09,163.78 C109.248,164.333 109.327,164.807 109.327,165.281 Z M97.793,169.389 C97.793,173.102 94.949,174.998 92.263,174.998 C90.604,174.998 88.945,174.208 88.076,172.549 C87.523,171.443 87.444,170.1 87.444,168.757 L87.444,167.493 C87.444,165.202 87.207,162.832 84.916,160.857 C84.679,160.62 84.6,160.462 84.6,160.225 C84.6,159.83 84.916,159.514 85.469,159.514 C85.627,159.514 85.706,159.593 85.864,159.593 C91.631,160.857 97.161,163.543 97.714,168.52 C97.714,168.836 97.793,169.152 97.793,169.389 Z M84.758,172.47 C84.758,176.578 81.677,178.711 78.754,178.711 C76.305,178.711 73.935,177.131 73.698,174.05 C73.698,173.734 73.619,173.497 73.619,173.181 C73.619,169.863 75.515,168.441 75.515,165.597 C75.515,164.649 75.278,163.543 74.725,162.121 C74.646,161.963 74.646,161.805 74.646,161.726 C74.646,161.252 74.962,160.936 75.357,160.936 C75.515,160.936 75.752,161.015 75.989,161.173 C80.492,163.78 84.679,167.177 84.758,172.312 L84.758,172.47 Z M70.301,171.838 C70.301,175.788 69.037,179.027 65.324,180.37 C64.376,180.686 63.507,180.844 62.717,180.844 C59.162,180.844 56.792,177.921 56.792,174.919 C56.792,173.181 57.661,171.285 59.636,170.021 C63.665,167.493 65.324,168.046 67.141,162.279 C67.299,161.726 67.536,161.489 67.852,161.489 C68.168,161.489 68.484,161.884 68.721,162.437 C69.59,165.676 70.301,168.915 70.301,171.838 Z M87.681,130.521 C87.602,127.835 87.523,125.07 87.444,122.384 L78.28,122.384 C78.28,124.201 78.201,127.124 78.201,130.521 L87.681,130.521 Z M87.681,133.286 L78.122,133.286 C78.201,134.629 78.201,136.051 78.201,137.473 L78.201,141.739 L87.602,141.739 C87.681,138.816 87.681,136.051 87.681,133.286 Z M87.602,144.504 L78.201,144.504 C78.201,147.822 78.28,150.982 78.359,153.668 L87.365,153.668 C87.444,150.508 87.523,147.427 87.602,144.504 Z" id="path-4"></path>
        <filter x="-47.6%" y="-22.7%" width="195.1%" height="145.4%" filterUnits="objectBoundingBox" id="filter-5">
            <feOffset dx="0" dy="0" in="SourceAlpha" result="shadowOffsetOuter1"></feOffset>
            <feGaussianBlur stdDeviation="10" in="shadowOffsetOuter1" result="shadowBlurOuter1"></feGaussianBlur>
            <feColorMatrix values="0 0 0 0 1   0 0 0 0 1   0 0 0 0 1  0 0 0 1 0" type="matrix" in="shadowBlurOuter1" result="shadowMatrixOuter1"></feColorMatrix>
            <feOffset dx="0" dy="0" in="SourceAlpha" result="shadowOffsetOuter2"></feOffset>
            <feGaussianBlur stdDeviation="2" in="shadowOffsetOuter2" result="shadowBlurOuter2"></feGaussianBlur>
            <feColorMatrix values="0 0 0 0 0   0 0 0 0 1   0 0 0 0 0.392156863  0 0 0 1 0" type="matrix" in="shadowBlurOuter2" result="shadowMatrixOuter2"></feColorMatrix>
            <feMerge>
                <feMergeNode in="shadowMatrixOuter1"></feMergeNode>
                <feMergeNode in="shadowMatrixOuter2"></feMergeNode>
            </feMerge>
        </filter>
    </defs>
    <g id="Symbols" stroke="none" stroke-width="1" fill="none" fill-rule="evenodd">
        <g id="koma-vecter" transform="translate(29.000000, 20.000000)">
            <g id="keima" transform="translate(1.000000, 8.000000)">
                <mask id="mask-2" fill="white">
                    <use xlink:href="#path-1"></use>
                </mask>
                <g id="Polygon-Copy-23" transform="translate(92.000000, 110.000000) scale(-1, 1) translate(-92.000000, -110.000000) ">
                    <use fill="black" fill-opacity="1" filter="url(#filter-3)" xlink:href="#path-1"></use>
                    <use stroke="#00FF64" stroke-width="3" fill="#000000" fill-rule="evenodd" xlink:href="#path-1"></use>
                </g>
                <g mask="url(#mask-2)">
                    <use fill="black" fill-opacity="1" filter="url(#filter-5)" xlink:href="#path-4"></use>
                    <use fill="#0A3208" fill-rule="evenodd" xlink:href="#path-4"></use>
                </g>
            </g>
        </g>
    </g>
</svg>