<?xml version="1.0" encoding="UTF-8"?>
<svg width="234px" height="280px" viewBox="0 0 234 280" version="1.1" xmlns="http://www.w3.org/2000/svg" xmlns:xlink="http://www.w3.org/1999/xlink">
    <!-- Generator: Sketch 47.1 (45422) - http://www.bohemiancoding.com/sketch -->
    <title>narikyou</title>
    <desc>Created with Sketch.</desc>
    <defs>
        <path d="M87,0 L139.2,15.9860987 L174,204.481328 L0,204.481328 L34.8,15.9860987 L87,0 Z M0,204.481328 L174,204.481328 L174,220 L0,220 L0,204.481328 Z" id="path-1"></path>
        <filter x="-41.1%" y="-31.6%" width="182.2%" height="165.0%" filterUnits="objectBoundingBox" id="filter-3">
            <feMorphology radius="1.5" operator="dilate" in="SourceAlpha" result="shadowSpreadOuter1"></feMorphology>
            <feOffset dx="0" dy="1" in="shadowSpreadOuter1" result="shadowOffsetOuter1"></feOffset>
            <feGaussianBlur stdDeviation="15.5" in="shadowOffsetOuter1" result="shadowBlurOuter1"></feGaussianBlur>
            <feComposite in="shadowBlurOuter1" in2="SourceAlpha" operator="out" result="shadowBlurOuter1"></feComposite>
            <feColorMatrix values="0 0 0 0 0   0 0 0 0 1   0 0 0 0 0  0 0 0 1 0" type="matrix" in="shadowBlurOuter1" result="shadowMatrixOuter1"></feColorMatrix>
            <feMorphology radius="1.5" operator="dilate" in="SourceAlpha" result="shadowSpreadOuter2"></feMorphology>
            <feOffset dx="0" dy="1" in="shadowSpreadOuter2" result="shadowOffsetOuter2"></feOffset>
            <feGaussianBlur stdDeviation="11.5" in="shadowOffsetOuter2" result="shadowBlurOuter2"></feGaussianBlur>
            <feComposite in="shadowBlurOuter2" in2="SourceAlpha" operator="out" result="shadowBlurOuter2"></feComposite>
            <feColorMatrix values="0 0 0 0 1   0 0 0 0 1   0 0 0 0 1  0 0 0 1 0" type="matrix" in="shadowBlurOuter2" result="shadowMatrixOuter2"></feColorMatrix>
            <feMerge>
                <feMergeNode in="shadowMatrixOuter1"></feMergeNode>
                <feMergeNode in="shadowMatrixOuter2"></feMergeNode>
            </feMerge>
        </filter>
        <path d="M123.287,97 C123.287,100.318 120.838,102.925 117.046,102.925 C115.624,102.925 114.044,102.609 112.306,101.74 C106.46,98.817 102.036,94.946 98.718,90.048 C92.082,95.42 83.55,99.37 72.332,101.345 L72.016,101.345 C70.91,101.345 70.831,100.239 71.779,99.844 C80.627,95.341 88.369,89.1 94.452,81.674 C92.477,76.46 91.134,70.535 90.186,63.741 C90.028,64.057 89.712,64.373 89.317,64.61 C88.053,65.479 87.737,65.637 87.658,67.77 C87.5,71.246 87.421,78.83 86.078,84.36 C85.051,88.705 80.864,90.522 75.255,91.312 C75.018,91.312 74.781,91.391 74.623,91.391 C73.754,91.391 73.517,90.996 73.359,90.127 C72.885,85.308 72.806,83.175 68.856,81.121 C66.091,92.102 59.534,98.422 52.977,102.53 C52.582,102.767 52.266,102.846 52.029,102.846 C51.713,102.846 51.476,102.609 51.476,102.214 C51.476,101.898 51.634,101.582 51.792,101.108 C54.794,94.235 56.769,88.389 57.954,77.645 C58.507,72.668 58.744,65.953 58.744,59.791 C58.744,52.681 58.428,46.282 57.954,44.386 C57.717,43.438 57.638,42.727 57.638,42.332 C57.638,41.7 57.796,41.542 58.112,41.542 C58.428,41.542 58.665,41.621 59.06,41.779 C62.852,43.043 67.75,44.702 71.858,46.44 L88.685,46.44 C88.527,42.885 88.369,39.172 88.211,35.301 C88.132,34.59 87.895,33.958 87.895,33.484 C87.895,33.168 88.053,33.01 88.606,33.01 L88.922,33.01 C92.556,33.326 97.217,33.8 100.535,34.432 C100.377,34.274 100.377,34.037 100.377,33.879 C100.377,33.484 100.693,33.247 101.404,33.247 L101.562,33.247 C106.46,33.484 111.358,34.274 112.78,38.382 C113.017,39.093 113.096,39.725 113.096,40.278 C113.096,41.226 112.859,42.095 112.464,42.806 C112.938,42.253 113.412,41.779 113.965,41.226 C114.518,40.673 115.071,40.673 115.782,41.226 C117.994,42.964 120.206,44.781 122.339,47.23 C122.576,47.467 122.813,48.02 122.813,48.415 C122.813,48.81 122.576,49.205 121.628,49.205 L100.219,49.205 C100.614,57.105 101.325,64.215 102.589,69.666 C104.722,65.479 106.618,60.502 107.803,55.762 C107.961,54.893 107.882,54.103 108.514,54.103 C108.672,54.103 108.909,54.182 109.146,54.261 C112.938,55.762 117.046,57.579 120.522,59.396 C121.312,59.87 121.707,60.423 121.707,60.976 C121.707,61.766 120.996,62.398 119.811,62.398 C118.231,62.398 117.836,62.556 117.362,63.583 C114.518,69.982 111.437,75.828 107.487,81.042 C108.988,83.254 110.805,85.15 112.938,86.888 C113.57,87.441 114.123,87.678 114.597,87.678 C115.15,87.678 115.703,87.283 116.019,86.572 C117.52,83.728 118.863,80.884 120.048,77.882 C120.364,77.013 120.759,76.618 121.154,76.618 C121.549,76.618 121.865,77.092 121.865,78.04 L121.865,78.514 C121.154,82.701 120.601,85.703 120.601,87.994 C120.601,89.732 120.917,91.154 121.786,92.418 C122.813,93.998 123.287,95.578 123.287,97 Z M110.647,44.702 C109.778,45.255 108.751,45.492 107.724,45.492 C106.144,45.492 104.643,44.86 103.616,43.201 C102.352,41.226 103.379,39.093 102.431,36.881 C102.194,37.118 101.878,37.355 101.404,37.513 C100.298,37.987 99.982,38.145 99.982,39.725 C99.982,42.095 100.061,44.307 100.14,46.44 L107.724,46.44 C108.909,46.44 109.541,45.808 110.647,44.702 Z M89.87,61.292 C89.475,57.5 89.159,53.471 88.843,49.205 L70.752,49.205 L70.752,60.423 L74.544,60.423 C75.413,60.423 75.887,60.186 76.282,59.791 C77.23,58.922 79.205,57.263 80.627,55.999 C80.864,55.762 81.259,55.604 81.654,55.604 C82.049,55.604 82.365,55.683 82.839,55.999 C85.288,57.579 88.369,59.791 89.87,61.292 Z M76.677,65.4 L76.677,63.188 L70.673,63.188 C70.515,68.876 70.12,74.564 69.33,79.146 C70.515,79.304 72.016,79.462 73.28,79.462 C75.413,79.462 75.65,79.304 76.045,76.697 C76.519,73.3 76.677,69.35 76.677,65.4 Z M123.05,139.317 C123.05,139.712 122.813,140.107 122.339,140.344 C118.863,141.924 118.547,144.373 117.757,150.298 C117.678,150.851 117.441,151.641 116.572,151.641 C116.414,151.641 116.256,151.641 116.019,151.562 C106.065,148.797 97.928,144.057 93.109,132.523 L92.793,132.523 C92.872,137.263 92.872,142.082 93.109,146.19 L93.109,146.348 C93.109,148.955 91.529,150.061 86.473,150.298 L85.604,150.298 C81.97,150.298 80.627,149.35 80.627,147.296 L80.627,146.743 C80.785,144.057 80.864,140.66 80.943,137.5 C76.835,141.924 71.779,145.637 66.091,148.165 C71.305,149.903 76.519,151.72 76.519,151.72 L97.217,151.72 C98.007,151.72 98.481,151.483 99.034,151.088 C100.298,150.219 101.878,148.955 103.537,148.007 C103.853,147.77 104.169,147.691 104.485,147.691 C104.722,147.691 105.038,147.77 105.512,148.007 C107.803,149.192 111.279,151.246 113.333,152.668 C114.123,153.221 114.755,154.011 114.755,154.88 C114.755,155.512 114.36,156.144 113.491,156.618 C111.516,157.724 111.516,158.198 111.437,159.936 C111.358,161.595 111.358,163.728 111.358,166.098 C111.358,169.89 111.437,174.472 111.674,179.212 L111.674,179.449 C111.674,181.977 108.751,182.53 105.038,182.767 C104.169,182.846 103.379,182.846 102.668,182.846 C100.14,182.846 98.797,182.372 98.797,180.239 L98.797,179.844 C98.797,179.212 98.876,178.501 98.876,177.869 L75.571,177.869 L75.571,179.291 C75.571,181.898 73.201,182.609 68.935,182.846 C68.303,182.846 67.671,182.925 67.118,182.925 C64.432,182.925 62.536,182.451 62.536,180.081 L62.536,179.844 C62.931,173.998 63.247,166.493 63.247,160.173 C63.247,155.67 63.089,151.799 62.615,149.666 C59.692,150.614 56.453,151.404 53.214,152.036 L52.898,152.036 C52.345,152.036 52.108,151.72 52.108,151.404 C52.108,151.088 52.266,150.693 52.74,150.456 C60.956,145.163 67.355,139.001 71.226,132.523 L64.59,132.523 C61.509,132.523 58.27,132.681 56.69,133.155 C56.058,133.313 55.426,133.076 55.11,132.444 C54.794,131.812 54.32,130.232 54.083,129.363 C54.004,129.126 54.004,128.968 54.004,128.889 C54.004,128.573 54.162,128.494 54.399,128.494 C54.557,128.494 54.794,128.573 55.11,128.652 C57.48,129.442 61.667,129.679 64.59,129.679 L81.022,129.679 L81.022,124.228 C78.257,124.228 75.413,124.307 72.569,124.307 C68.461,124.307 64.353,124.228 60.166,124.149 C58.823,124.149 58.112,123.675 58.112,123.122 C58.112,122.648 58.744,122.095 60.166,121.937 C77.862,119.251 94.215,115.775 99.587,113.563 C100.614,113.168 100.851,112.773 101.167,112.773 C101.404,112.773 101.562,112.852 101.878,113.089 C105.512,115.143 109.857,117.75 113.412,120.357 C114.202,120.989 114.597,121.7 114.597,122.253 C114.597,122.885 114.123,123.359 113.096,123.359 C112.78,123.359 112.464,123.28 112.069,123.201 C110.173,122.727 110.41,122.569 108.909,122.727 C103.695,123.201 98.165,123.596 92.793,123.833 L92.793,129.679 L103.774,129.679 C104.564,129.679 104.88,129.521 105.433,128.968 C106.855,127.546 109.146,125.571 111.042,123.991 C111.516,123.596 112.306,123.596 113.017,123.991 C115.94,125.65 118.626,127.625 121.47,130.39 C121.786,130.706 122.023,131.101 122.023,131.496 C122.023,132.049 121.628,132.523 120.759,132.523 L96.506,132.523 C102.747,137.184 110.805,138.211 122.023,138.369 C122.655,138.369 123.05,138.843 123.05,139.317 Z M99.113,162.859 C99.113,160.015 99.034,157.25 98.955,154.485 L75.413,154.485 C75.413,157.329 75.413,160.094 75.334,162.859 L99.113,162.859 Z M99.113,165.624 L75.413,165.624 C75.413,168.705 75.413,171.865 75.492,175.025 L98.955,175.025 C99.034,172.023 99.113,168.863 99.113,165.624 Z" id="path-4"></path>
        <filter x="-187.3%" y="-89.7%" width="474.6%" height="279.4%" filterUnits="objectBoundingBox" id="filter-5">
            <feOffset dx="0" dy="0" in="SourceAlpha" result="shadowOffsetOuter1"></feOffset>
            <feGaussianBlur stdDeviation="10" in="shadowOffsetOuter1" result="shadowBlurOuter1"></feGaussianBlur>
            <feColorMatrix values="0 0 0 0 1   0 0 0 0 1   0 0 0 0 1  0 0 0 1 0" type="matrix" in="shadowBlurOuter1" result="shadowMatrixOuter1"></feColorMatrix>
            <feOffset dx="0" dy="0" in="SourceAlpha" result="shadowOffsetOuter2"></feOffset>
            <feGaussianBlur stdDeviation="3.5" in="shadowOffsetOuter2" result="shadowBlurOuter2"></feGaussianBlur>
            <feColorMatrix values="0 0 0 0 1   0 0 0 0 0   0 0 0 0 0  0 0 0 1 0" type="matrix" in="shadowBlurOuter2" result="shadowMatrixOuter2"></feColorMatrix>
            <feOffset dx="0" dy="0" in="SourceAlpha" result="shadowOffsetOuter3"></feOffset>
            <feGaussianBlur stdDeviation="20" in="shadowOffsetOuter3" result="shadowBlurOuter3"></feGaussianBlur>
            <feColorMatrix values="0 0 0 0 1   0 0 0 0 1   0 0 0 0 1  0 0 0 1 0" type="matrix" in="shadowBlurOuter3" result="shadowMatrixOuter3"></feColorMatrix>
            <feOffset dx="0" dy="0" in="SourceAlpha" result="shadowOffsetOuter4"></feOffset>
            <feGaussianBlur stdDeviation="22.5" in="shadowOffsetOuter4" result="shadowBlurOuter4"></feGaussianBlur>
            <feColorMatrix values="0 0 0 0 1   0 0 0 0 0   0 0 0 0 0  0 0 0 1 0" type="matrix" in="shadowBlurOuter4" result="shadowMatrixOuter4"></feColorMatrix>
            <feMerge>
                <feMergeNode in="shadowMatrixOuter1"></feMergeNode>
                <feMergeNode in="shadowMatrixOuter2"></feMergeNode>
                <feMergeNode in="shadowMatrixOuter3"></feMergeNode>
                <feMergeNode in="shadowMatrixOuter4"></feMergeNode>
            </feMerge>
        </filter>
    </defs>
    <g id="Symbols" stroke="none" stroke-width="1" fill="none" fill-rule="evenodd">
        <g id="koma-vecter" transform="translate(29.000000, 20.000000)">
            <g id="narikyou" transform="translate(1.000000, 8.000000)">
                <mask id="mask-2" fill="white">
                    <use xlink:href="#path-1"></use>
                </mask>
                <g id="Polygon-Copy-22" transform="translate(87.000000, 110.000000) scale(-1, 1) translate(-87.000000, -110.000000) ">
                    <use fill="black" fill-opacity="1" filter="url(#filter-3)" xlink:href="#path-1"></use>
                    <use stroke="#00FF64" stroke-width="3" fill="#000000" fill-rule="evenodd" xlink:href="#path-1"></use>
                </g>
                <g id="nari-kyou" mask="url(#mask-2)">
                    <use fill="black" fill-opacity="1" filter="url(#filter-5)" xlink:href="#path-4"></use>
                    <use fill="#320D08" fill-rule="evenodd" xlink:href="#path-4"></use>
                </g>
            </g>
        </g>
    </g>
</svg>